<?xml version="1.0" encoding="utf-8"?>
<!-- Generator: Adobe Illustrator 26.5.0, SVG Export Plug-In . SVG Version: 6.00 Build 0)  -->
<svg version="1.1" id="Layer_1" xmlns="http://www.w3.org/2000/svg" xmlns:xlink="http://www.w3.org/1999/xlink" x="0px" y="0px"
	 viewBox="0 0 1082.3 412.4" style="enable-background:new 0 0 1082.3 412.4;" xml:space="preserve">
<style type="text/css">
	.st0{fill-rule:evenodd;clip-rule:evenodd;fill:#FFFFFF;}
	.st1{fill:#EF4D23;}
</style>
<g>
	<g>
		
			<image style="overflow:visible;opacity:0.4;" width="4475" height="1672" xlink:href="1EDFCB57.png"  transform="matrix(0.24 0 0 0.24 7.1569 16.1041)">
		</image>
		<g>
			<path class="st0" d="M342.1,103.6c0,3-0.1,3.2-1.4,4c-7.2,3.8-18.2,5-26.9,5c-27.3,0-51.4-12.9-51.4-43.7
				c0-17.8,9.3-30.3,19.4-36.5c10.6-6.4,20.5-7.2,29.8-7.2c6.6,0.1,13.2,0.7,19.7,1.8c2.9,0.6,5.8,1,8.8,1.2
				c1.3,0.1,1.6,0.6,1.6,1.3c-0.6,6.1-0.9,12.2-0.8,18.2c0,1.8-0.3,2.3-1.2,2.3c-0.9,0-1-0.6-1.1-1.4c-0.2-3.4-1.6-6.7-3.8-9.3
				c-3.3-3.6-12.3-8.7-24.9-8.7c-6.1,0-14.3,0.4-22.1,6.9c-6.2,5.2-10.3,13.6-10.3,27.3c0,24,15.3,41.9,38.8,41.9
				c3.2,0.2,6.4-0.2,9.5-1.2c0.7-0.4,1.3-1,1.7-1.7c0.4-0.7,0.5-1.6,0.4-2.4V91.1c0-5.6,0-9.8-0.1-13.2c-0.1-3.8-1.1-5.6-4.8-6.4
				c-1.4-0.2-2.9-0.4-4.3-0.3c-1,0-1.7-0.2-1.7-0.9s0.8-1.1,2.3-1.1c3.3,0,7,0.1,10.2,0.2c2.4,0.1,4.5,0.1,6,0.1
				c1.6,0,3.9-0.1,6.2-0.2c2.4-0.1,4.9-0.2,6.8-0.2c1.5,0,2.2,0.2,2.2,1.1s-0.7,0.9-1.5,0.9c-1,0-2,0.1-3,0.3
				c-3,0.6-4.1,2.5-4.2,6.4c-0.1,3.3-0.1,7.8-0.1,13.4L342.1,103.6z M71.3,340.1c0.4-1.4,0.8-2.1,1.9-2.1c16-0.7,31.9-1.4,47.7-2
				c0.4,0,0.8,0.2,1.1,0.5c0.3,0.3,0.5,0.7,0.5,1.1c5.6,16.9,8.4,25.3,14,41.8c0.2,0.5,0.3,1,0.2,1.5c0,0.5-0.2,1-0.4,1.5
				c-0.2,0.5-0.6,0.9-1,1.2c-0.4,0.3-0.9,0.6-1.4,0.7c-0.8,0.2-1.5,0.6-2.1,1.2c-0.5,0.6-0.8,1.4-0.9,2.2c0,1.6,1.3,2.3,4.6,2
				c10-0.8,20.1-1.4,30.2-2.1h0l0,0h0h0l0,0h0h0l0,0h0l0,0c9.2-0.6,18.4-1.2,27.5-1.9c4-0.3,5.4-1.4,5.4-2.9c0-1.5-1.4-2.3-4-2.3
				c-2.2,0.1-4.5-0.1-6.6-0.5c-7.3-0.7-11.9-6.4-19-26.3c-13-35.6-25.3-71.6-37.6-107.5c-5.7-16.7-11.4-33.4-17.1-49.9
				c-3.5-10.1-5.2-14.1-7.5-14.3c-2.3-0.2-4.6,3.5-8.6,15.1c-19.4,56.6-38,113.4-55.8,170.5c-4.4,14.3-8.6,23.8-15.9,26.7
				c-2.1,0.9-4.4,1.5-6.6,1.9c-2.3,0.4-4,1-4,3.4c0,1.8,1.2,2.8,4.2,2.5c7-0.8,15.5-2.1,21.1-3l0,0h0c2.7-0.4,4.7-0.7,5.5-0.8
				c5.8-0.6,10.6-0.9,15.2-1.1c4.1-0.2,8-0.4,12.4-0.9c2.7-0.3,4.4-1.1,4.4-3.3c0-1.4-0.9-2.4-3.8-2.4c-1.5,0-5.1-0.2-7.3-0.4
				c-4.1-0.4-6.3-2.5-6.3-8c0.4-6.3,1.5-12.5,3.3-18.5C67.4,354.2,68.7,349.5,71.3,340.1z M116,313c0.2,0.5,0.2,1.4-1,1.4l-35.8,0.8
				c-0.6,0-1-0.5-0.8-1.4c5.9-19.9,11.8-39.7,17.8-59.5c0.4-1.4,0.8-2,1.5,0C103.7,274,109.8,293.5,116,313z M212.4,370.8
				c0,5,1,8.2,4.6,9.7c8.2,3.9,19.3,5.6,34.9,4.5c13.1-0.8,25.6-5.1,36.5-12.4c12.5-8.6,22.2-28.7,22.2-43.6
				c0.1-25.7-19.7-44.9-38.5-60.6c-2-1.6-3.5-2.8-5-4l0,0c-1.7-1.3-3.4-2.7-5.6-4.4c-14.2-11.4-16.8-21.1-16.8-29.4
				c0-11.3,6.3-22.1,23.5-21.2c15.1,0.8,24.7,9.4,28.7,17c2.1,4.3,3.4,9,3.8,13.8c0.4,3.7,1.3,4.5,2.3,4.5c1.7,0,2.3-1.6,2.3-5.8
				c0-15.1,0.3-21.8,0.6-27.2c0.1-2.1,0.2-3.9,0.2-6c0-1.8-0.6-2.6-2.7-3.4c-3.4-1.3-6.8-2.4-10.3-3.3c-7.9-2.1-15.9-3.4-24.1-3.8
				c-28.3-2-54.2,19.2-53.4,48.4c0.6,24,13,46.1,32.7,60.6c4.8,3.8,7.3,5.8,11.7,9.3l1.3,1c17.8,13.7,19.5,21.7,19.5,31.9
				s-6.1,22.3-26,23.3c-18.1,0.9-32.7-12.5-35.6-30.1c-0.5-2.5-0.9-5.1-1-7.7c-0.2-2-0.6-4.2-1.9-4.2c-1.3,0-2.1,1.6-2.5,6.1
				C213,341,212.4,350.5,212.4,370.8z M489.4,351.8c0,13-0.4,14.3-4.2,15.9c-16.4,6.5-34.4,8.3-51.4,9.3c-53,3-99.5-30.1-99.7-87.3
				c0-27.8,12.6-59.3,37.7-74.2c18.2-10.8,39.4-13.8,60.1-13.2c11.4,0.5,22.7,1.8,34,3.8c1.8,0.3,3.6,0.6,5.4,0.9
				c5.2,0.9,10.3,1.9,14.8,2c1.9,0,2.4,1,2.1,2.9l0,0.1l0,0.2l0,0.3c-0.5,2.9-2.2,13-2.2,39.9c0,3.5-0.8,4.6-2.3,4.6
				c-1.5,0-2.3-1.8-2.5-3.5c-0.2-3.8-1.1-7.5-2.5-11c-7.3-20.8-32.3-26-51.8-26.5c-15.5-0.4-28.4,4-37.5,15.3
				c-10.6,13.2-13.3,32.2-13.2,48.8c0.2,37,17.8,83.7,62,82.5c2.9,0,8.6-0.4,11.7-2.9c0.9-0.7,1.5-1.7,2-2.7c0.4-1,0.6-2.2,0.5-3.3
				v-13.5c0-9.1-0.1-17.8-0.2-25.9c-0.1-12.5-2.7-17.3-9.9-18.4c-3-0.5-6-0.9-9-1.1c-1.6-0.1-3.3-0.9-3.3-2.2c0-1.3,1-2.2,4.4-2.2
				c8.3,0,17.5,0.2,24.7,0.4h0h0h0h0l0,0c4.6,0.1,8.5,0.2,10.7,0.2c3.4,0,8-0.1,13.1-0.3h0h0h0h0h0h0h0h0h0h0h0
				c6.2-0.2,13.2-0.4,19.4-0.4c3.1,0,4.8,0.4,4.8,2.2c0,1.8-1.4,2.1-3.3,2.2c-0.4,0-1.5,0.1-2.7,0.3l0,0c-1,0.1-2,0.3-2.9,0.4
				c-5,1.1-7.4,3.6-8,11.2c-0.5,7-0.6,18.5-0.6,29.3L489.4,351.8z M564.2,328.8c0.4-1.1,0.8-1.5,1.9-1.5c16,0,32,0.1,48.1,0.3
				c0.4,0,0.8,0.1,1.1,0.4c0.3,0.2,0.5,0.6,0.6,1c5.4,13.5,8.2,20.6,13.4,33.7l0.7,1.7c0.2,0.4,0.2,0.9,0.2,1.3
				c0,0.5-0.2,0.9-0.4,1.3c-0.2,0.4-0.6,0.7-1,0.9c-0.4,0.2-0.8,0.4-1.3,0.4c-1.8,0.4-2.9,1.3-2.9,2.6s1.3,2,4.6,2.1
				c11.1,0.3,22.2,0.7,33.4,1.2l0,0c8.2,0.3,16.3,0.7,24.4,0.9c4,0.1,5.5-0.7,5.5-2.1c0-1.4-1.4-2.2-4-2.4c-2.3-0.1-4.5-0.5-6.7-1.1
				c-7.3-1.3-11.9-6.9-19.1-24.4c-5.2-12.5-10.4-25.1-15.6-37.7l0,0l0,0l0,0l0,0l0,0l0,0l0,0l0,0l0,0
				c-12.9-31.3-25.7-62.7-39.3-93.4c-3.5-7.9-5.2-10.9-7.5-10.9s-4.6,3.4-8.6,12.9c-18.6,44.3-37.3,88.6-56,132.8
				c-4.3,10.5-8.6,17.3-15.9,18.9c-2.2,0.5-4.4,0.8-6.6,0.9c-2.4,0.1-4,0.5-4,2.2c0,1.3,1.2,2.2,4.2,2.2c6.9,0,15.2-0.4,20.7-0.6h0
				h0l0,0c2.9-0.1,5-0.2,5.8-0.2c5.8,0,10.5,0.2,15,0.4c4.2,0.2,8.2,0.3,12.7,0.3c2.7,0,4.4-0.4,4.4-2.2c0-1.1-0.8-2-3.8-2.2
				c-1.6-0.1-5.1-0.6-7.3-0.9c-4.2-0.6-6.3-2.5-6.3-6.6c0.4-4.8,1.5-9.5,3.3-14c1.1-3,1.9-5.4,2.8-7.7l0-0.1
				C561.7,335.8,562.7,332.9,564.2,328.8z M609.1,308.6c0.2,0.4,0.2,1.1-1,1.1l-35.8-0.1c-0.1,0-0.3,0-0.4-0.1
				c-0.1-0.1-0.2-0.1-0.3-0.3c-0.1-0.1-0.1-0.2-0.2-0.4c0-0.1,0-0.3,0.1-0.4c5.9-15.7,11.9-31.4,17.8-47.1c0.4-1.1,0.8-1.5,1.5,0
				C596.8,277.2,603,292.9,609.1,308.6z M725.7,269.5c0-15.8,0-31.7-0.6-47.4c-0.4-9.4-3-12.3-8-13.3c-2.8-0.4-5.6-0.6-8.4-0.6
				c-2.5-0.2-3.8-1-3.8-2.4c0-1.4,1.5-2.1,4.6-2.2c5.3-0.2,14.5-0.3,21.8-0.4c5-0.1,9.1-0.1,10.3-0.2c1.7-0.1,6.4-0.4,11.9-0.8
				c7.4-0.5,16.3-1.2,21.8-1.5c19.7-1,33.6,0.5,42.7,5.9c9.9,5.8,19,17.8,19,36.3c0,20.4-11.5,38-28,49.1c2.9,4.8,5.7,9.6,8.6,14.5
				c10.3,17.4,20.6,34.8,32.2,51c10.8,15,16.3,19.7,22,21.2c1.7,0.5,3.5,0.8,5.2,1.1c2.1,0.3,3.6,1.3,3.6,2.8c0,2.3-2.1,2.4-4.2,2.2
				l-4-0.3l0,0c-5.2-0.4-8.8-0.6-14.9-1.1c-21.6-1.5-30.8-4.8-38.1-10.4c-6.4-5-13.5-15.7-21.6-31c-4-7.6-7.2-13.7-9.8-18.7l0,0
				c-3.7-7.1-6.2-12.1-8.5-15.8c-0.3-0.4-0.6-0.8-1.1-1s-0.9-0.4-1.4-0.4l-13.8-0.1c-1,0-1.7,0.4-1.7,1.9v11.9
				c0,18.4,0.2,29.6,1,39.2c0.5,6,1.9,11.3,8.2,13.3c3.1,1,6.2,1.6,9.4,1.9c3.3,0.4,3.8,1.4,3.8,2.8c0,1.4-1.5,2-4.4,1.9
				c-10.2-0.5-24.9-1.6-32.8-2.1l0,0l0,0l0,0h0l0,0l0,0h0c-3-0.2-5-0.4-5.4-0.4c-1,0-4.5-0.1-9-0.1h0h0h0h0h0
				c-7.2-0.1-16.6-0.2-21-0.4c-3.1-0.1-4.2-0.8-4.2-2.4c0-1.6,1.6-2.1,3.8-2.1c2.4-0.1,4.8-0.3,7.1-0.7c4.2-1,5.9-5.1,6.5-12.8
				c1-13,1-26.2,1-39.3v0v0v0v0v0v0v0c0-2.9,0-5.8,0-8.6L725.7,269.5z M761.7,284.8c-0.1,0.7,0.1,1.4,0.4,2c0.3,0.6,0.9,1.1,1.5,1.5
				c4,2.3,10.3,3,16.1,3.1c5.9,0,9.9-0.9,13.3-3.8c4.4-3.8,7.5-14.8,8.2-30.1c0.7-17.2-9.4-42-29.7-41.5c-2.8,0-5.7,0.4-8.4,1.3
				c-0.8,0.5-1.3,0.7-1.3,2.6L761.7,284.8z M912.5,253.3c0,4.6-0.1,9.1-0.1,13.7v45.4c0,2.5,0,4.9,0,7.4v0
				c-0.1,15.3-0.2,30.6-1,45.7c-0.6,10-2.8,14.7-6.9,15.3c-2.1,0.4-4.3,0.6-6.5,0.5c-2.2-0.1-4,0.5-4,2.3c0,1.2,0.6,2.6,4.2,2.9
				c4.1,0.3,6.7,0.4,9.9,0.5c1.3,0,2.8,0.1,4.5,0.1c5.9,0.2,10.9,0.6,15.9,1c4,0.3,12.6,1.9,20.7,3.6c7.4,1.6,14.8,2.7,22.4,3.2
				c27,1.6,53.8-3.3,71.5-27.3c17.3-23.5,23-53.2,23-80c0.1-24.9-4.3-52.2-20-74.3c-18.9-26.2-53.3-29-82.8-25.7
				c-5.3,0.6-9.8,1-13.8,1.5l0,0h0v0l0,0l0,0l0,0c-9.2,1-15.3,1.6-20.1,2c-5.5,0.5-14.6,0.9-22.1,1.3l0,0h0l0,0
				c-5.1,0.3-9.5,0.5-11.6,0.6c-3.6,0.3-4.8,1.1-4.8,2.7c0,1.3,0.9,2.4,4,2.5c2.1,0.1,3.7,0.1,5,0.1l0,0c1.1,0,1.9,0,2.7,0.1
				c8,0.5,9,7.5,9.4,14.9C912.7,226.5,912.6,239.9,912.5,253.3z M949.5,304c0-2.6,0-5.3,0-7.9V262c0-5.5,0-11.1,0.1-16.7v0
				c0.1-11.1,0.1-22.3,0.1-33.3c0-2.4,0-3.6,1.9-5c1.9-1.3,6.7-2.6,11.3-3c22.5-1.8,35.1,10.5,48.1,26.9
				c11.2,20.5,15.3,43,15.7,64.9c0.4,21.5-0.2,47.7-13.6,66.5c-10.5,14.7-23.4,17.8-38.1,16.6c-9.2-0.7-17.8-5.2-21.6-11.4
				c-2.3-3.1-3.2-8.6-3.6-19.5C949.5,333.5,949.5,318.7,949.5,304z M403.8,30.6c18.3,0,32.7,15.5,32.7,40.5c0,32.2-18,36-25.9,35.9
				c-21.4,0-34.2-18.3-34.2-41.6C376.3,37.7,390.9,30.6,403.8,30.6z M474.8,59.1c0-17,0-20.1-0.2-23.6c-0.2-3.6-1.1-5.6-4.8-6.4
				c-1.4-0.3-2.9-0.4-4.3-0.3c-1.2,0-1.9-0.2-1.9-1c0-0.8,0.8-1,2.4-1c3.4,0,7.2,0.1,10.4,0.2c2.3,0.1,4.3,0.1,5.6,0.1
				c1.4,0,3.5-0.1,5.9-0.1c3.4-0.1,7.4-0.2,11.2-0.2c13.9,0,32.5,0,44.7,12.7c7.2,7.6,11.1,17.8,10.8,28.3
				c0.2,11.6-4.2,22.7-12.2,31.1c-5.1,5.2-16.7,13.2-37.3,13.2c-4,0-8.6-0.3-12.8-0.7l-1.2-0.1c-3.8-0.3-7.2-0.6-9.7-0.6
				c-1.2,0-3.7,0-6.4,0.1c-2.7,0.1-5.5,0.2-7.7,0.2c-1.5,0-2.2-0.3-2.2-1.1c0-0.8,0.4-0.9,1.8-0.9c1.4,0,2.7-0.1,4-0.4
				c2.2-0.4,2.8-2.9,3.2-6.1c0.5-4.7,0.5-13.5,0.5-23.8v0V59.1z M488.7,71.4c0,11.8,0.1,20.4,0.2,22.5c0.1,2.8,0.3,7.2,1.2,8.5
				c1.4,2.1,5.8,4.5,14.6,4.5c11.4,0,18.9-2.2,25.6-8c7.1-6.1,9.4-16.3,9.4-27.7c0-14.2-5.9-23.2-10.7-27.9
				c-10.3-9.8-23-11.1-31.7-11.1c-2.4,0-4.9,0.2-7.2,0.8c-0.5,0.1-0.9,0.5-1.1,0.9c-0.3,0.4-0.3,0.9-0.2,1.4
				c-0.1,3.8-0.1,13.5-0.1,22.3L488.7,71.4z M568.1,106c0,2.5,0.3,3,2.1,3.8c5.2,2.1,10.7,3.1,16.3,2.9c6.2,0.2,12.4-1.4,17.7-4.6
				c3.3-2.1,5.9-4.9,7.8-8.3c1.8-3.4,2.8-7.2,2.7-11.1c0-10.6-4.8-18.3-18.2-28.4l-3.1-2.3c-9.3-7-11.8-10.9-11.8-16.1
				c0-6.7,5-11.5,13.3-11.5c7.2,0,10.5,3.3,12.2,5.5c1.7,2.1,2.7,4.7,2.9,7.4c0,1.3,0.2,2,1.1,2s1.2-0.9,1.2-3.3
				c0-6.2,0.2-9.6,0.4-11.6v0c0.1-0.8,0.1-1.4,0.1-1.8c0-0.8-0.3-1-1.6-1.3c-1.2-0.3-2.7-0.7-4.6-1c-3.4-0.6-6.8-0.9-10.3-0.9
				c-15.5,0-25.7,8.8-25.7,21.1c0,9,4.2,16.8,16.5,26.4l5.1,4c9.3,7.2,10.9,12.4,10.9,17.8c0,5.9-4.9,12.7-14.9,12.7
				c-6.9,0-13.5-3-15.9-11.3c-0.6-1.8-0.9-3.8-1-5.7c0-0.9-0.2-1.9-1.1-1.9c-0.9,0-1.2,1.1-1.3,2.9l0,0.1
				C568.5,93.5,568.1,100,568.1,106z M661.3,68.9c0-19.1,12.6-43.7,46-43.7c27.8-0.1,45,16.2,45,41.7s-17.8,45.7-46.1,45.7
				C674.3,112.6,661.3,88.7,661.3,68.9z M736.9,71.1c0-25-14.4-40.5-32.7-40.5c-12.8,0-27.4,7.1-27.4,34.8
				c0,23.2,12.8,41.6,34.2,41.6C718.7,107.1,736.9,103.3,736.9,71.1z M774.9,35.5c0.2,3.6,0.2,6.7,0.2,23.6l-0.1,19.6v0
				c0,10.7,0,19.1-0.5,23.7c-0.4,3.2-1,5.7-3.2,6.1c-1.3,0.3-2.7,0.5-4,0.4c-1.2,0-1.7,0.3-1.7,0.9c0,0.9,0.8,1.1,2.3,1.1
				c2.3,0,5.5-0.1,8.3-0.2c2.4-0.1,4.5-0.1,5.9-0.1c1.1,0,2.9,0.1,5.1,0.1c3.3,0.1,7.6,0.2,11.9,0.2c1.7,0,2.5-0.5,2.5-1.1
				s-0.4-0.9-1.9-0.9c-1.9,0-3.7-0.2-5.6-0.4c-3.4-0.4-4-2.8-4.3-6.1c-0.6-4.7-0.6-13.1-0.6-23.8v-9c0-0.8,0.2-1,0.8-1
				c2,0,13.8,0,16.6,0.3c1.2,0.1,2.4,0.5,3.4,1.2c1,0.7,1.8,1.7,2.2,2.8c0.4,1.1,0.6,2.3,0.7,3.5c0,0.8,0.2,1.6,0.9,1.6
				c1.1,0,1.1-1.3,1.1-2.1s0.2-5.9,0.4-8.1c0.2-2,0.5-3.8,0.6-5c0.1-0.9,0.2-1.6,0.2-1.9c0-0.7,0-1-0.7-1c-0.6,0-0.8,0.3-1.2,0.8
				c-0.1,0.1-0.1,0.2-0.2,0.3c-1.5,2.1-3.4,2.1-9.8,2.1c-2.1,0-5.2,0-8.1,0.1c-2.5,0-4.8,0.1-6.2,0.1c-0.7,0-0.8-0.3-0.8-1V34.4
				c0-1.2,0.3-1.6,1-1.6c1.6,0,4.7,0.1,8,0.2c3.5,0.1,7.1,0.1,9.2,0.2c4.2,0.1,6.6,1.8,7.3,3.3c0.5,1.4,0.7,2.8,0.7,4.2
				c0.1,1.2,0.3,1.8,1.1,1.8c0.8,0,1-0.7,1.1-1.6c0.1-0.9,0.3-3.9,0.4-6.2c0.1-1.3,0.1-2.4,0.1-2.8c0.2-1.6,0.5-2.8,0.6-3.6
				c0.1-0.6,0.3-1,0.3-1.4c0-0.2,0-0.5-0.2-0.7c-0.1-0.2-0.4-0.3-0.6-0.3c-0.3,0-0.7,0.2-1,0.3c-0.2,0.1-0.5,0.2-0.7,0.3
				c-1.5,0.3-3,0.5-4.5,0.4c-2.6,0.1-25.2,0.1-29.4,0.1c-3,0-5.8-0.1-8.5-0.2c-2.6-0.1-5.1-0.2-7.5-0.2c-1.7,0-2.6,0.4-2.6,1.1
				s0.8,0.9,1.9,0.9c1.5,0,2.9,0.1,4.3,0.3C773.8,29.9,774.7,31.9,774.9,35.5z"/>
		</g>
	</g>
	<g>
		<g>
			<path class="st1" d="M410.8,110.6c-0.4,0-0.8,0-1.2,0c-1.8-0.1-3.5-0.4-5.1-0.8c-1.8-0.5-3.4-1.1-4.7-2c-0.1-0.1-0.2-0.1-0.3-0.2
				l-0.3-0.2l-0.2,0c-0.4,0-0.9,0-1.3,0c-0.7,0-2.1-0.1-3.4-0.3c-0.5,0-1.1-0.1-1.6-0.2c-0.2,0-0.3,0-0.4-0.1
				c-1.1-0.2-2.2-0.5-3.3-1c-1-0.4-2-1-3-1.7c-0.9-0.6-1.8-1.4-2.7-2.4c-0.8-0.9-1.6-1.9-2.3-2.9c-0.5-0.7-0.9-1.4-1.3-2.2l-0.2-0.3
				l-0.3,0c-1.5-0.3-2.9-0.7-4.1-1.3c-1.6-0.8-3-1.9-4.2-3.3c-0.6-0.7-1.2-1.4-1.7-2.3c-0.5-0.8-0.9-1.7-1.3-2.6
				c-0.6-1.3-1-2.7-1.4-4.1l0,0l0-0.1l0-0.2c0,0-0.3-0.3-0.3-0.3c-0.2-0.3-0.4-0.5-0.6-0.7l0,0l0,0c0,0,0,0,0,0
				c-0.2-0.2-0.4-0.5-0.6-0.8l0,0l0,0c0,0,0,0,0,0c-0.2-0.3-0.4-0.6-0.5-0.9c0,0,0-0.1,0-0.1c-0.2-0.3-0.3-0.6-0.5-1
				c-1.2-2.6-2.1-5.8-2.4-9.6c0-0.4-0.1-0.8-0.1-1.3c0,0,0-0.4,0-0.5c0-0.3,0-0.6,0-0.8c0-0.2,0-0.3,0-0.5c0-0.3,0-0.6,0-1
				c0-0.1,0-0.2,0-0.3c0-0.4,0-0.9,0-1.3l0-0.1c0,0,0,0,0-0.1c0,0,0-0.1,0-0.1c0-0.4,0-0.8,0.1-1.1l0-0.1c0-0.1,0-0.2,0-0.3
				c0-0.4,0.1-0.9,0.1-1.4c0.8-7.6,4-15,8.6-20.2c0.2-0.3,0.5-0.6,0.8-0.9c0.1-0.1,0.1-0.1,0.2-0.2l0.1-0.1c0.2-0.2,0.4-0.4,0.6-0.6
				l0.1-0.1c0.1-0.1,0.2-0.1,0.2-0.2c0.2-0.2,0.4-0.3,0.6-0.5c0.1-0.1,0.2-0.2,0.4-0.3c0.2-0.2,0.4-0.3,0.5-0.4
				c0.1-0.1,0.3-0.2,0.4-0.3c0.2-0.1,0.4-0.3,0.5-0.4l0.1-0.1c0.1-0.1,0.2-0.1,0.3-0.2c0.2-0.1,0.4-0.2,0.6-0.4l0.1-0.1
				c0.1-0.1,0.2-0.1,0.3-0.2c0.2-0.1,0.4-0.3,0.6-0.4c0.1,0,0.1-0.1,0.2-0.1c0.1,0,0.1-0.1,0.2-0.1c0,0,0.1,0,0.1-0.1
				c0,0,0.1,0,0.1-0.1c0,0,0.1-0.1,0.1-0.1c0.3-0.1,0.5-0.3,0.8-0.4c0.1,0,0.2-0.1,0.2-0.1l0.3-0.1c0.2-0.1,0.4-0.2,0.6-0.3
				c0.1,0,0.5-0.2,0.5-0.2c0.2-0.1,0.5-0.2,0.7-0.3c0.1-0.1,0.3-0.1,0.5-0.2c0.3-0.1,0.5-0.2,0.7-0.3l0.1,0c0.1,0,0.3-0.1,0.4-0.1
				c0.2-0.1,0.5-0.1,0.7-0.2c0.1,0,0.5-0.1,0.5-0.1c0.2,0,0.4-0.1,0.5-0.1l0.2,0c0.1,0,0.4-0.1,0.4-0.1c0.3-0.1,0.6-0.1,0.8-0.1
				c0.1,0,0.1,0,0.2,0c0.1,0,0.1,0,0.2,0c0.4-0.1,0.8-0.1,1.2-0.1c0.7-0.1,1.3-0.1,1.9-0.1c0.9,0,1.7,0.1,2.5,0.3l0.2,0l0.2-0.1
				c0.2-0.1,0.4-0.1,0.5-0.2c1.6-0.6,3.3-1.2,4.9-1.1l0,0c0.4,0,0.7,0,1.1,0.1c1.2,0.2,2.4,0.6,3.4,1.1c0.1,0,0.2,0.1,0.4,0.1
				l0.4,0.2l0.2-0.2c1.1-0.7,2.3-1.3,3.4-1.7l0.3-0.1l0.1-0.3c0.5-1.2,1-2.3,1.5-3.3c0.7-1.5,1.5-2.8,2.3-4.1
				c3.4-5.2,7.8-9,12.6-10.7l1.3,2.8c-1.9,1.1-3.3,3.1-4.1,4.5c-1.2,2.2-1.8,4.7-2.3,6.8c-0.3,1.2-0.5,2.5-0.8,4l-0.1,0.7l0.5,0.2
				c1.1,0.4,2.1,1,3.2,1.6l0.2,0.2l0.4-0.2c0.1-0.1,0.2-0.1,0.4-0.1c0,0,0.2-0.1,0.3-0.1c0.3-0.1,0.6-0.2,0.9-0.4
				c0.1,0,0.1,0,0.2-0.1c0.3-0.1,0.5-0.2,0.8-0.3c0,0,0.1,0,0.1,0c0,0,0,0,0.1,0l0.1,0c0.1,0,0.1,0,0.2,0l0,0c0.1,0,0.2-0.1,0.4-0.1
				c0.1,0,0.3-0.1,0.4-0.1c0.2,0,0.3-0.1,0.5-0.1l0.1,0c0.1,0,0.2,0,0.3-0.1c0.2,0,0.4-0.1,0.6-0.1l0.3,0c0.3,0,0.6-0.1,0.9-0.1
				c0.3,0,0.6,0,1-0.1c0.1,0,0.2,0,0.3,0c2,0,4,0.6,6.1,1.7l0.1,0.1l0.1,0c0.1,0,0.2,0,0.3,0c6.2,0.8,12.1,4.1,16.5,9.3
				c4.5,5.4,7.4,12.8,8,20.4c0.2,2.9,0.1,5.8-0.2,8.8c-0.5,3.8-1.4,7-2.7,9.5c-0.9,1.7-2,3.2-3.2,4.2l-0.1,0.1l-0.1,0.2
				c-0.4,1.2-0.8,2.2-1.3,3.2c0,0.1-0.1,0.2-0.1,0.2c-0.1,0.1-0.1,0.2-0.2,0.3l-0.3,0.6l-0.3,0.6l-0.4,0.6c-0.3,0.5-0.7,1.1-1.2,1.6
				c-0.1,0.2-0.3,0.3-0.4,0.5c-1.1,1.3-2.4,2.3-3.8,3.1c-0.7,0.4-1.4,0.7-2.2,1c-0.1,0.1-0.3,0.1-0.4,0.2l-0.2,0.1l-0.1,0.1
				c-0.1,0.1-0.2,0.2-0.3,0.3c-0.2,0.2-0.4,0.5-0.6,0.8c-0.2,0.2-0.4,0.5-0.5,0.7c-1.4,2-3,3.6-4.8,4.9c-0.9,0.6-1.8,1.2-2.8,1.6
				c-0.2,0.1-0.5,0.2-0.7,0.3c-0.2,0.1-0.4,0.1-0.5,0.2l-0.3,0.1c-0.1,0-0.2,0.1-0.3,0.1l-0.4,0.1c-0.1,0-0.2,0-0.3,0.1
				c-0.2,0-0.3,0.1-0.5,0.1c-1,0.2-2,0.3-3.2,0.4l-0.4,0c0,0,0,0,0,0c0,0,0,0,0,0l-0.1,0c0,0-0.1,0-0.1,0l-0.2,0
				c0,0-0.4,0.2-0.4,0.3l-0.1,0.1c-0.1,0-0.2,0.1-0.2,0.1c-0.3,0.2-0.6,0.4-1,0.6c0,0-0.1,0-0.1,0.1l-0.1,0
				c-0.3,0.2-0.6,0.3-0.8,0.4l-0.3,0.2c-0.4,0.2-0.7,0.3-1,0.5l0,0c0,0-0.1,0-0.1,0c-0.3,0.1-0.6,0.3-1,0.4l-0.3,0.1
				c-0.4,0.2-0.7,0.3-1,0.4l-0.1,0c-0.4,0.1-0.8,0.3-1.2,0.4c-1.3,0.3-2.5,0.6-3.8,0.8c-0.8,0.1-1.6,0.2-2.6,0.2
				C411.7,110.6,411.2,110.6,410.8,110.6z"/>
			<g>
				<path d="M460.2,61.4c-0.6-7.9-3.6-15.5-8.2-20.9c-4.6-5.4-10.6-8.8-16.9-9.5c-0.1,0-0.2,0-0.3,0c-2.1-1.1-4.3-1.8-6.7-1.8
					c-0.4,0-0.7,0-1.1,0.1c-0.3,0-0.6,0.1-0.9,0.1c-0.1,0-0.2,0-0.2,0c-0.2,0-0.4,0.1-0.6,0.1c-0.1,0-0.2,0-0.3,0.1
					c-0.2,0-0.3,0.1-0.5,0.1c-0.1,0-0.3,0.1-0.4,0.1c-0.1,0-0.3,0.1-0.4,0.1c-0.1,0-0.2,0-0.2,0.1c-0.1,0-0.1,0-0.2,0.1
					c-0.3,0.1-0.5,0.2-0.8,0.3c-0.1,0-0.1,0-0.2,0.1c-0.3,0.1-0.6,0.2-1,0.4c-0.1,0-0.2,0.1-0.3,0.1c-0.2,0.1-0.3,0.1-0.5,0.2
					c-1-0.6-2.1-1.2-3.3-1.7c0.2-1.3,0.5-2.7,0.8-4c0.5-2.3,1.2-4.6,2.2-6.6c1.1-2,2.6-3.8,4.4-4.6l-0.7-1.4l0-0.1l-1.2-2.6
					c-5.3,1.8-10,5.9-13.4,11.1c-0.9,1.3-1.7,2.7-2.4,4.2c-0.5,1.1-1,2.2-1.5,3.4c-1.2,0.4-2.4,1-3.5,1.7c-0.2-0.1-0.3-0.1-0.5-0.2
					c-1.1-0.5-2.3-0.9-3.5-1.1c-0.4-0.1-0.8-0.1-1.2-0.1c-1.7,0-3.5,0.5-5.1,1.2c-0.2,0.1-0.4,0.1-0.5,0.2c-1.5-0.3-3-0.3-4.6-0.2
					c-0.4,0-0.8,0.1-1.2,0.2c-0.1,0-0.3,0-0.4,0.1c-0.3,0-0.6,0.1-0.9,0.2c-0.2,0-0.3,0.1-0.5,0.1c-0.3,0.1-0.5,0.1-0.8,0.2
					c-0.2,0-0.3,0.1-0.5,0.1c-0.2,0.1-0.5,0.1-0.7,0.2c-0.2,0.1-0.3,0.1-0.5,0.2c-0.2,0.1-0.5,0.2-0.7,0.3c-0.2,0.1-0.3,0.1-0.5,0.2
					c-0.2,0.1-0.5,0.2-0.7,0.3c-0.2,0.1-0.3,0.1-0.5,0.2c-0.2,0.1-0.5,0.2-0.7,0.4c-0.1,0.1-0.3,0.1-0.4,0.2
					c-0.3,0.1-0.5,0.3-0.8,0.4c-0.1,0.1-0.2,0.1-0.3,0.2c0,0,0,0-0.1,0c-0.1,0.1-0.3,0.2-0.4,0.2c-0.2,0.1-0.4,0.3-0.6,0.4
					c-0.1,0.1-0.3,0.2-0.4,0.3c-0.2,0.1-0.4,0.3-0.6,0.4c-0.1,0.1-0.3,0.2-0.4,0.3c-0.2,0.1-0.4,0.3-0.6,0.4
					c-0.1,0.1-0.3,0.2-0.4,0.3c-0.2,0.2-0.4,0.3-0.6,0.5c-0.1,0.1-0.2,0.2-0.4,0.3c-0.2,0.2-0.4,0.3-0.6,0.5
					c-0.1,0.1-0.2,0.2-0.3,0.3c-0.2,0.2-0.4,0.4-0.6,0.6c-0.1,0.1-0.2,0.2-0.3,0.3c-0.3,0.3-0.6,0.6-0.9,0.9
					c-4.7,5.3-8,12.8-8.8,20.7c-0.1,0.5-0.1,0.9-0.1,1.4c0,0.1,0,0.3,0,0.4c0,0.4,0,0.8-0.1,1.2c0,0.1,0,0.1,0,0.2l0,0.1
					c0,0.4,0,0.9,0,1.3c0,0.1,0,0.2,0,0.3c0,0.3,0,0.6,0,1c0,0.2,0,0.3,0,0.5c0,0.3,0,0.6,0,0.9c0,0.2,0,0.3,0,0.5
					c0,0.4,0.1,0.9,0.1,1.3c0.3,3.5,1.1,6.9,2.5,9.9c0.2,0.4,0.3,0.7,0.5,1c0,0,0,0,0,0c0.2,0.3,0.4,0.6,0.6,1c0,0,0,0,0,0.1
					c0.2,0.3,0.4,0.6,0.6,0.9c0,0,0,0,0.1,0.1c0.2,0.3,0.4,0.5,0.7,0.8c0,0,0,0,0,0c0,0,0.1,0.1,0.1,0.1c0,0,0,0,0,0c0,0,0,0,0,0
					c0.4,1.5,0.9,2.9,1.5,4.3c0.4,0.9,0.9,1.8,1.4,2.7c0.5,0.9,1.1,1.7,1.8,2.4c1.3,1.5,2.8,2.6,4.4,3.4c1.4,0.7,2.8,1.1,4.3,1.4
					c0.4,0.8,0.9,1.5,1.4,2.2c0.7,1.1,1.5,2.1,2.4,3c0.9,0.9,1.8,1.8,2.8,2.5c1,0.7,2.1,1.3,3.2,1.8c1.1,0.4,2.2,0.7,3.4,1
					c0.1,0,0.3,0,0.4,0.1c0.6,0.1,1.1,0.2,1.7,0.2c1.3,0.1,2.7,0.3,3.4,0.3c0.4,0,0.9,0,1.3,0c0.1,0.1,0.3,0.2,0.4,0.3
					c1.5,1,3.2,1.6,4.9,2.1c1.7,0.5,3.4,0.7,5.2,0.8c0.9,0.1,1.7,0.1,2.6,0c0.9,0,1.7-0.1,2.6-0.2c1.3-0.2,2.6-0.4,3.9-0.8
					c0.4-0.1,0.8-0.2,1.3-0.4c0,0,0,0,0,0c0.4-0.1,0.7-0.3,1.1-0.4c0.1,0,0.2-0.1,0.3-0.1c0.3-0.1,0.7-0.3,1-0.4c0,0,0.1,0,0.1-0.1
					c0.4-0.2,0.7-0.3,1-0.5c0.1-0.1,0.2-0.1,0.3-0.2c0.3-0.1,0.6-0.3,0.8-0.4c0.1,0,0.2-0.1,0.2-0.1c0.3-0.2,0.7-0.4,1-0.6
					c0.1-0.1,0.2-0.1,0.3-0.2c0.1-0.1,0.2-0.1,0.3-0.2c0.1,0,0.2,0,0.2,0c0,0,0.1,0,0.1,0c0.1,0,0.3,0,0.4,0
					c1.1-0.1,2.2-0.2,3.2-0.4c0.3-0.1,0.5-0.1,0.8-0.2l0.4-0.1c0.1,0,0.3-0.1,0.4-0.1c0.3-0.1,0.5-0.2,0.8-0.3
					c0.3-0.1,0.5-0.2,0.8-0.3c1-0.5,2-1,3-1.7c1.9-1.4,3.5-3.1,4.9-5.1c0.2-0.2,0.3-0.5,0.5-0.7c0.3-0.4,0.6-0.7,0.9-1
					c0.1-0.1,0.3-0.1,0.4-0.2c0.8-0.3,1.5-0.6,2.2-1.1c1.5-0.8,2.8-1.9,4-3.2c0.1-0.2,0.3-0.3,0.4-0.5c0.4-0.5,0.8-1.1,1.2-1.7
					l0.4-0.6l0.3-0.6l0.3-0.6c0.1-0.2,0.2-0.4,0.3-0.6c0.5-1.1,1-2.2,1.3-3.3c1.3-1.2,2.5-2.7,3.3-4.5c1.5-2.9,2.3-6.4,2.8-9.8
					C460.3,67.5,460.4,64.4,460.2,61.4z M411.7,52c0-0.5,0.1-1,0.3-1.5c0.2-0.5,0.4-0.9,0.6-1.3c-0.5,1.8,0,3.7,1,4.7
					c0.5,0.5,1,0.8,1.6,0.9c0.6,0.1,1.2,0,1.8-0.2c1.2-0.5,2.4-1.4,3.6-2.5c1.2-1.1,2.3-2.3,3.5-3.5c0.6-0.6,1.2-1.2,1.9-1.9
					c0.7-0.6,1.4-1.1,2.1-1.7c1.5-1,3.1-1.8,4.8-2.1c0.9-0.1,1.8-0.1,2.7,0.1c0.9,0.2,1.7,0.6,2.5,1.1c1.5,1.1,2.6,3,2.6,4.9
					c-0.7-1.7-1.9-2.8-3.3-3.3c-0.7-0.2-1.4-0.4-2-0.4c-0.7,0-1.3,0.1-2,0.4c-0.6,0.2-1.1,0.5-1.7,0.8c-0.1,0-0.1,0.1-0.2,0.1
					c0.1,0.1,0.2,0.1,0.3,0.2c0.6,0.4,1.1,0.9,1.5,1.4c0.7,0.9,1.2,2,1.5,3.2c0.3,1.2,0.4,2.4,0.2,3.6c-0.1-0.4-0.2-0.7-0.3-1
					c0.2,0.7,0.3,1.5,0.3,2.2c0,0.2,0,0.4,0,0.5c0.3,1.2,0.2,2.5,0,3.7c-0.3,1.2-0.8,2.4-1.4,3.4c-0.6,1-1.5,2-2.4,2.7
					c-0.9,0.7-2,1.1-3.1,1.3c-2.2,0.4-4.4-0.1-6.3-1.5c-0.9-0.6-1.7-1.5-2.3-2.5c-0.7-1.1-1.1-2.3-1.3-3.6c-0.1-0.3-0.1-0.6-0.2-0.9
					c0-0.4-0.1-1.3-0.1-2.2c-0.2,0.1-0.4,0.1-0.6,0.1c-0.9,0.2-1.9,0.1-2.8-0.3c-0.9-0.4-1.7-1.2-2.2-2.1c-0.2-0.4-0.4-0.8-0.5-1.3
					C411.8,53.2,411.7,52.6,411.7,52z M416.5,76.9l-3.1,1.8l-1.8-7.3l0.5,0.6l2.4,2.7L416.5,76.9z M382.7,46.3
					c0.8-0.5,1.6-0.9,2.5-1.1c0.9-0.2,1.8-0.1,2.7,0c1.8,0.3,3.4,1.2,4.8,2.2c0.7,0.5,1.4,1.1,2,1.7c0.7,0.6,1.3,1.3,1.8,1.9
					c1.1,1.3,2.3,2.5,3.4,3.6c1.1,1.1,2.3,2.1,3.5,2.6c0.6,0.2,1.2,0.3,1.8,0.2c0.6-0.1,1.2-0.4,1.7-0.9c1-1,1.6-2.8,1.1-4.7
					c0.2,0.4,0.4,0.8,0.6,1.3c0.1,0.5,0.2,1,0.2,1.5c0,0.6-0.1,1.2-0.3,1.8c-0.1,0.4-0.3,0.9-0.5,1.3c-0.5,0.9-1.4,1.7-2.3,2
					c-0.9,0.4-1.9,0.4-2.8,0.2c-0.2,0-0.4-0.1-0.6-0.2c0,0.9-0.1,1.8-0.1,2.2c0,0.3-0.1,0.6-0.2,0.9c0,0,0,0,0,0
					c-0.2,1.3-0.7,2.5-1.4,3.5c-0.6,1-1.4,1.8-2.4,2.4c-1.9,1.3-4.1,1.8-6.3,1.3c-1.1-0.2-2.1-0.7-3.1-1.4c-0.9-0.7-1.7-1.7-2.3-2.7
					c-0.6-1.1-1.1-2.2-1.3-3.5c-0.2-1.2-0.3-2.6,0.1-3.7c0-0.2,0-0.4,0-0.5c0.1-0.7,0.2-1.5,0.4-2.2c-0.1,0.3-0.3,0.7-0.4,1
					c-0.2-1.2-0.1-2.4,0.3-3.6c0.3-1.2,0.9-2.2,1.6-3.1c0.5-0.6,1-1,1.6-1.4c0.1-0.1,0.2-0.1,0.3-0.2c-0.1,0-0.1-0.1-0.2-0.1
					c-0.6-0.3-1.1-0.6-1.7-0.8c-0.7-0.2-1.3-0.4-2-0.4c-0.7,0-1.4,0.1-2,0.3c-1.4,0.4-2.6,1.5-3.4,3.2
					C380,49.2,381.2,47.3,382.7,46.3z M409.8,65.5l-1.7,11.4l-4.3-2.1l1.5-2.3l3.3-5.2L409.8,65.5z M452.7,68.5l-1.7-1.3
					c-0.1,0.6-0.3,1.3-0.5,1.9c-0.3,0.9-0.6,1.9-0.9,2.8c-0.1,0.4-0.3,0.7-0.4,1.1c0,0.1,0,0.1-0.1,0.2l1.4,1.9l0.7,0.9l-0.8,1.1
					l-1.9-2.7c-0.4,0.8-0.7,1.5-1.1,2.3c-0.6,1.1-1.2,2.2-1.9,3.2c-0.1,0.1-0.1,0.2-0.1,0.2c-0.1,0.1-0.2,0.3-0.3,0.4
					c0,0-0.1,0.1-0.1,0.1l0.9,1.8l0.5,1l-0.6,1.3c0,0-0.7-1.3-1.6-3c0,0,0,0,0,0c-0.4,0.5-0.9,1-1.3,1.4c-0.7,0.7-1.4,1.4-2.2,2
					c-0.2,0.2-0.4,0.3-0.6,0.4l0.1,0.4l0.5,1.4l-1,1l-0.8-1.9c-0.8,0.5-1.6,0.9-2.4,1.3c-0.6,0.2-1.3,0.4-1.9,0.6
					c-0.1,0-0.2,0-0.3,0c-0.2,0-0.3,0-0.5,0.1l0.4,1.5l0.5,1.7l-1.7,0.7c-0.1-0.1-0.4-1.8-0.8-3.8c-0.7,0.1-1.3,0.4-2,0.8
					c-0.7,0.4-1.4,1-2.1,1.6c-0.1,0.1-0.3,0.2-0.4,0.4l0.5,2l0.4,1.4l-1.4,1.6l-0.8-4c-0.1,0.1-0.1,0.1-0.2,0.2
					c-0.5,0.4-1,0.8-1.7,1.2c-0.6,0.4-1.4,0.7-2.3,0.9c-0.2,0-0.4,0.1-0.7,0.1l-0.2,0l-0.1,0l-0.1,0l-0.1,0l0.1,1.5l0.1,1.9
					l-2.3-0.5l0-3.3c0,0,0,0,0,0c-1-0.3-1.9-0.6-2.8-1c-0.9-0.4-1.8-0.8-2.7-1.2l-0.8,3.7l-1.7,0l0.5-1.9l0.6-2.4
					c-0.1-0.1-0.3-0.1-0.4-0.2c-0.6-0.2-1.1-0.4-1.7-0.6c-1-0.3-2-0.6-3-0.8c0,0,0,0,0,0c0,0-0.1,0-0.1,0l0.2,3.5l0.1,2l-1.9-1.4
					l-0.1-4.2c-0.3,0-0.7,0-1,0c-1,0.1-2,0.2-3.1,0.4c-0.3,0.1-0.6,0.1-0.9,0.2c0,0-0.1,0-0.1,0l0.1,3l0.1,1.9l-1.7-0.7
					c0-0.2,0.1-0.9,0.1-1.9c0-0.6,0-1.3,0-2.1c0,0,0,0,0,0c-0.3,0-0.7,0.1-1,0.1c-0.6,0.1-1.2,0.1-1.8,0.2c-0.7,0-1.3,0-2-0.1
					c-0.1,0-0.1,0-0.2,0c-0.5,2.7-0.9,4.8-0.9,4.8l-1-2.1c0-0.1,0-0.7,0.1-1.7c0-0.4,0.1-0.9,0.1-1.4c0,0-0.1,0-0.1,0c0,0,0,0,0,0
					c-0.6-0.2-1.2-0.4-1.8-0.6c-0.7-0.3-1.4-0.7-2.1-1.1l-1.1,4.7l-0.4-0.5l0.3-1.5l0.6-3c-0.1-0.1-0.2-0.1-0.3-0.2
					c-0.1-0.1-0.2-0.1-0.3-0.2c-1-0.7-2-1.3-3-2c-0.3-0.2-0.7-0.5-1-0.7c-0.8,2.3-1.5,4.3-1.6,4.4c-0.2,0.4-0.8-1.7-0.8-1.7L381,87
					l1-2.6c-0.2-0.1-0.4-0.3-0.5-0.4c-0.1-0.1-0.2-0.2-0.3-0.2c-1-0.7-1.9-1.5-2.9-2.2c-0.1-0.1-0.3-0.2-0.4-0.3
					c-0.6,1.2-1.1,2.3-1.1,2.4c-0.1,0.4-0.8-0.9-0.8-0.9l0.5-1.1l0.5-1.2c-0.2-0.2-0.4-0.3-0.6-0.5c-0.3-0.3-0.6-0.5-0.9-0.8
					c-0.3-0.2-0.5-0.5-0.7-0.8l-1.8,3.3l-1-1.8c0,0,0.2-0.3,0.6-0.8c0.4-0.5,0.8-1.1,1.3-1.9c-0.2-0.3-0.4-0.7-0.6-1
					c-0.1-0.1-0.2-0.3-0.2-0.5c-0.3-0.6-0.6-1.3-0.9-2l-0.9,1.7l-0.7-1.1l0.6-1l0.6-0.9c-0.1-0.4-0.3-0.8-0.4-1.2
					c-0.3-1.1-0.6-2.2-0.9-3.3c-0.1-0.4-0.2-0.8-0.3-1.2l-1.8,0.6l0-0.8l1.6-0.8c0-0.2-0.1-0.5-0.1-0.7c-0.1-0.3-0.1-0.7-0.2-1
					c-0.2-1.3-0.4-2.7-0.5-4c0.1,0.5,0.3,1,0.4,1.4c0.2,0.8,0.5,1.6,0.8,2.4c0.2,0.5,0.3,1,0.5,1.5l1.5-0.8l0.3,1.5l-1.4,0.5
					c0.1,0.4,0.3,0.7,0.4,1.1c0.4,1,0.8,2.1,1.3,3l1.6-2.6l0,1.7l-1,2c0.5,0.9,1,1.9,1.5,2.7c0.2,0.3,0.4,0.5,0.6,0.8
					c0.7-1.1,1.3-2,1.5-2.4l1.1,0l-1.8,3.3c0.3,0.3,0.5,0.5,0.8,0.7c0.4,0.3,0.8,0.6,1.3,0.9l0.8-1.8l0.9,1.4c0,0-0.2,0.4-0.5,1.1
					c0.2,0.1,0.3,0.2,0.5,0.3c1,0.6,1.9,1.2,2.9,1.8c0.2,0.1,0.4,0.2,0.6,0.4l0.4-1l0.8-3.5l1.6,0.3c0,0-0.8,2.2-1.7,4.8
					c0.5,0.3,0.9,0.5,1.4,0.8c1,0.6,1.9,1.1,2.8,1.6l0.8-3.9l0.9,0.1l-1,4.2c0.8,0.4,1.5,0.8,2.3,1c0.4,0.2,0.8,0.3,1.2,0.4
					c0.4-3.4,0.8-6.5,0.8-6.5s2.1-0.7,2.2-0.1c0,0.3-0.5,3.4-1.1,6.8c0.4,0,0.7,0,1.1,0c0.5-0.1,1-0.1,1.5-0.2
					c0.5-0.1,1-0.2,1.6-0.3c0-2.5,0-4.4,0-4.4l0.9-0.7l0.2,4.9c0.2,0,0.4-0.1,0.5-0.1c1.1-0.2,2.3-0.5,3.6-0.6c0.4,0,0.8,0,1.2-0.1
					l-0.1-3.8l1.4,0l0.2,3.9c0.4,0,0.8,0.1,1.1,0.2c1.2,0.2,2.4,0.5,3.5,0.9c0.7,0.2,1.4,0.5,2.1,0.8l0.8-3.2l1.4,0l-0.8,3.7
					c1,0.5,2,0.9,3,1.3c0.5,0.2,0.9,0.4,1.3,0.6l0.1-6.8l1.2,0l0.4,7.3l0.1,0l0.3,0l0.1,0l0,0l0,0l0,0c0.1,0,0.1,0,0.2,0
					c0.2,0,0.6-0.1,0.9-0.3c0.8-0.4,1.6-1.1,2.6-1.9c0,0,0.1-0.1,0.1-0.1l-1-5l0.7,0l1.2,4.3c0.7-0.5,1.4-1,2.2-1.4
					c0.9-0.5,1.9-0.8,2.9-1c-0.3-1.7-0.4-3.1-0.4-3.1l0.7,0l0.8,3l0,0c0.2,0,0.3,0,0.5,0l0.4,0c0.2,0,0.4,0,0.6,0
					c0.4,0,0.9-0.1,1.4-0.3c0.6-0.2,1.3-0.5,1.9-0.8l-2-4.9l1.3-0.8l2,5.1c0.8-0.5,1.6-1.1,2.3-1.7c0.4-0.4,0.9-0.7,1.3-1.1
					c0.1-0.1,0.2-0.2,0.4-0.4c-0.9-1.6-1.6-3-1.7-3.2l1.1-1.1l1.6,3.3c0.7-0.8,1.4-1.7,2-2.7c0.6-0.8,1.1-1.7,1.7-2.6l-1.9-2.8
					l0.5-0.8l1.9,2.6c0.5-1,1-1.9,1.5-2.9c0.3-0.6,0.5-1.3,0.8-2l-2-1.6l0.4-1l2,1.6c0.1-0.2,0.2-0.5,0.2-0.7
					c0.4-1.3,0.6-2.6,0.7-3.9c0,0.3,0,0.5,0,0.8c0,0.9,0,1.8-0.1,2.8c0,0.3-0.1,0.7-0.1,1c0,0.2-0.1,0.5-0.1,0.7l1.8,1.5L452.7,68.5
					z"/>
			</g>
		</g>
	</g>
</g>
</svg>
