<?xml version="1.0" encoding="utf-8"?>
<!-- Generator: Adobe Illustrator 26.5.0, SVG Export Plug-In . SVG Version: 6.00 Build 0)  -->
<svg version="1.1" id="Layer_1" xmlns="http://www.w3.org/2000/svg" xmlns:xlink="http://www.w3.org/1999/xlink" x="0px" y="0px"
	 viewBox="0 0 1082.3 412.4" style="enable-background:new 0 0 1082.3 412.4;" xml:space="preserve">
<style type="text/css">
	.st0{fill-rule:evenodd;clip-rule:evenodd;fill:#FFFFFF;}
	.st1{fill:#EF4D23;}
	.st2{fill:#15090A;}
	.st3{fill:#210C16;}
	.st4{fill:#190A0E;}
	.st5{fill:#27132A;}
	.st6{fill:#220E28;}
	.st7{fill:#080505;}
	.st8{fill:#E5E6E6;}
	.st9{fill:#FC4C00;}
	.st10{fill:#3D3D3D;}
</style>
<g>
	<g>
		<g>
			
				<image style="overflow:visible;opacity:0.4;" width="4331" height="1620" xlink:href="C256B362.png"  transform="matrix(0.24 0 0 0.24 12.4369 22.1041)">
			</image>
			<g>
				<path class="st0" d="M336.7,107c0,2.9-0.1,3.1-1.4,3.9c-7,3.7-17.6,4.8-26,4.8c-26.4,0-49.7-12.5-49.7-42.2
					c0-17.2,9-29.3,18.8-35.3c10.2-6.2,19.8-7,28.8-7c6.4,0.1,12.8,0.7,19.1,1.7c2.8,0.6,5.7,1,8.5,1.2c1.3,0.1,1.5,0.5,1.5,1.3
					c-0.6,5.9-0.9,11.8-0.8,17.6c0,1.7-0.3,2.3-1.2,2.3c-0.9,0-1-0.5-1.1-1.4c-0.2-3.3-1.5-6.4-3.7-9c-3.2-3.4-11.9-8.4-24.1-8.4
					c-5.9,0-13.8,0.4-21.3,6.7c-6,5.1-9.9,13.2-9.9,26.4c0,23.2,14.8,40.5,37.5,40.5c3.1,0.2,6.2-0.2,9.2-1.2c0.7-0.4,1.3-1,1.7-1.7
					c0.4-0.7,0.5-1.5,0.4-2.3v-10c0-5.4,0-9.5-0.1-12.7c-0.1-3.7-1.1-5.4-4.6-6.1c-1.4-0.2-2.8-0.3-4.2-0.3c-1,0-1.6-0.2-1.6-0.9
					c0-0.7,0.8-1.1,2.3-1.1c3.2,0,6.8,0.1,9.8,0.2c2.3,0.1,4.4,0.1,5.8,0.1c1.6,0,3.8-0.1,6-0.2c2.4-0.1,4.8-0.2,6.6-0.2
					c1.4,0,2.2,0.2,2.2,1.1s-0.7,0.9-1.4,0.9c-1,0-1.9,0.1-2.9,0.3c-2.9,0.5-4,2.4-4.1,6.1c-0.1,3.2-0.1,7.6-0.1,12.9L336.7,107z
					 M74.8,335.7c0.4-1.4,0.8-2,1.8-2c15.4-0.7,30.8-1.4,46.2-1.9c0.4,0,0.8,0.2,1.1,0.5c0.3,0.3,0.5,0.6,0.5,1
					c5.4,16.3,8.1,24.4,13.6,40.4c0.2,0.5,0.3,1,0.2,1.5c0,0.5-0.2,1-0.4,1.5c-0.2,0.5-0.5,0.9-0.9,1.2c-0.4,0.3-0.8,0.6-1.3,0.7
					c-0.8,0.2-1.5,0.6-2,1.2c-0.5,0.6-0.8,1.4-0.9,2.2c0,1.6,1.3,2.2,4.5,1.9c9.6-0.7,19.4-1.4,29.2-2h0l0,0h0h0l0,0h0h0l0,0h0l0,0
					c8.9-0.6,17.8-1.1,26.6-1.8c3.8-0.3,5.3-1.4,5.3-2.8c0-1.5-1.4-2.2-3.8-2.2c-2.2,0.1-4.3-0.1-6.4-0.5
					c-7.1-0.7-11.5-6.2-18.4-25.5c-12.6-34.4-24.5-69.3-36.4-104c-5.5-16.1-11-32.3-16.6-48.3c-3.4-9.7-5-13.6-7.3-13.8
					c-2.2-0.2-4.5,3.4-8.3,14.6c-18.7,54.7-36.7,109.7-54,164.9c-4.2,13.8-8.3,23-15.4,25.8c-2.1,0.8-4.2,1.4-6.4,1.8
					c-2.2,0.4-3.8,1-3.8,3.3c0,1.7,1.2,2.7,4,2.4c6.8-0.8,15-2,20.4-2.9l0,0h0c2.6-0.4,4.5-0.7,5.3-0.8c5.7-0.6,10.3-0.9,14.7-1.1
					c3.9-0.2,7.7-0.4,12-0.9c2.6-0.3,4.3-1,4.3-3.2c0-1.3-0.9-2.4-3.6-2.4c-1.5,0-5-0.2-7.1-0.4c-4-0.4-6.1-2.5-6.1-7.7
					c0.4-6.1,1.5-12.1,3.2-17.9C71.1,349.3,72.3,344.7,74.8,335.7z M118.1,309.5c0.2,0.5,0.2,1.3-1,1.3l-34.6,0.8
					c-0.6,0-1-0.5-0.8-1.3c5.7-19.2,11.4-38.4,17.2-57.5c0.4-1.4,0.8-1.9,1.4,0C106.1,271.7,112.1,290.6,118.1,309.5z M211.3,365.4
					c0,4.8,1,7.9,4.4,9.4c7.9,3.8,18.6,5.4,33.8,4.4c12.6-0.8,24.8-5,35.3-12c12.1-8.3,21.5-27.8,21.5-42.1
					c0.1-24.9-19-43.4-37.3-58.6c-1.9-1.5-3.4-2.7-4.9-3.8l0,0c-1.6-1.3-3.3-2.6-5.5-4.3c-13.8-11-16.2-20.5-16.2-28.5
					c0-10.9,6.1-21.4,22.7-20.5c14.6,0.8,23.9,9.1,27.7,16.5c2,4.2,3.3,8.7,3.6,13.4c0.4,3.6,1.2,4.4,2.2,4.4c1.6,0,2.2-1.5,2.2-5.6
					c0-14.6,0.3-21.1,0.6-26.3c0.1-2,0.2-3.8,0.2-5.8c0-1.7-0.6-2.5-2.6-3.3c-3.2-1.3-6.6-2.3-9.9-3.2c-7.6-2-15.4-3.3-23.3-3.7
					c-27.3-1.9-52.4,18.6-51.6,46.8c0.6,23.2,12.6,44.6,31.6,58.6c4.6,3.7,7.1,5.6,11.3,9l1.2,1c17.2,13.2,18.8,21,18.8,30.9
					c0,9.9-5.9,21.6-25.1,22.6c-17.5,0.9-31.7-12.1-34.4-29.1c-0.5-2.5-0.8-4.9-1-7.4c-0.2-1.9-0.6-4.1-1.8-4c-1.2,0-2,1.5-2.4,5.9
					C211.9,336.6,211.3,345.8,211.3,365.4z M479.2,347c0,12.6-0.4,13.9-4,15.4c-15.9,6.3-33.3,8-49.7,9
					c-51.2,2.9-96.2-29.1-96.4-84.5c0-26.9,12.2-57.3,36.5-71.8c17.6-10.5,38.1-13.4,58.1-12.7c11,0.5,22,1.7,32.8,3.7
					c1.7,0.3,3.5,0.6,5.2,0.9c5,0.9,10,1.8,14.3,1.9c1.8,0,2.3,1,2,2.8l0,0.1l0,0.2l0,0.3c-0.5,2.8-2.1,12.6-2.1,38.6
					c0,3.4-0.8,4.5-2.2,4.5c-1.4,0-2.2-1.7-2.4-3.4c-0.2-3.7-1.1-7.3-2.4-10.7c-7-20.1-31.3-25.1-50-25.7
					c-14.9-0.4-27.4,3.9-36.3,14.8c-10.3,12.7-12.8,31.1-12.8,47.2c0.2,35.8,17.2,81,60,79.8c2.8,0,8.3-0.4,11.3-2.8
					c0.8-0.7,1.5-1.6,1.9-2.6c0.4-1,0.6-2.1,0.5-3.2v-13.1c0-8.8-0.1-17.3-0.2-25.1c-0.1-12.1-2.6-16.7-9.5-17.8
					c-2.9-0.5-5.8-0.9-8.7-1.1c-1.5-0.1-3.2-0.9-3.2-2.2c0-1.3,1-2.1,4.3-2.1c8,0,16.9,0.2,23.9,0.4h0h0h0h0l0,0
					c4.5,0.1,8.2,0.2,10.3,0.2c3.3,0,7.7-0.1,12.6-0.3h0h0h0h0h0h0h0h0h0h0h0c6-0.2,12.7-0.4,18.8-0.4c3,0,4.7,0.4,4.7,2.1
					c0,1.7-1.3,2-3.2,2.1c-0.4,0-1.5,0.1-2.6,0.3l0,0c-0.9,0.1-1.9,0.3-2.8,0.3c-4.8,1.1-7.2,3.5-7.7,10.9
					c-0.5,6.7-0.6,17.9-0.6,28.3L479.2,347z M551.5,324.7c0.4-1.1,0.8-1.5,1.8-1.5c15.5,0,31,0.1,46.5,0.3c0.4,0,0.7,0.1,1,0.4
					c0.3,0.2,0.5,0.6,0.6,0.9c5.2,13.1,7.9,19.9,12.9,32.6l0.6,1.6c0.2,0.4,0.2,0.9,0.2,1.3c0,0.4-0.2,0.9-0.4,1.2
					c-0.2,0.4-0.6,0.7-1,0.9c-0.4,0.2-0.8,0.3-1.3,0.4c-1.8,0.4-2.8,1.2-2.8,2.5s1.2,1.9,4.4,2c10.7,0.3,21.5,0.7,32.3,1.2l0,0
					c7.9,0.3,15.8,0.7,23.6,0.9c3.8,0.1,5.3-0.7,5.3-2c0-1.3-1.4-2.1-3.8-2.3c-2.2-0.1-4.4-0.5-6.5-1.1c-7.1-1.3-11.5-6.6-18.4-23.6
					c-5-12.1-10-24.3-15-36.5l0,0l0,0l0,0l0,0l0,0l0,0l0,0l0,0l0,0c-12.4-30.3-24.9-60.6-38-90.3c-3.4-7.6-5.1-10.6-7.3-10.6
					c-2.2,0-4.5,3.3-8.3,12.4c-18,42.9-36.1,85.7-54.1,128.4c-4.2,10.2-8.3,16.7-15.4,18.3c-2.1,0.5-4.3,0.8-6.4,0.9
					c-2.3,0.1-3.8,0.4-3.8,2.1c0,1.3,1.2,2.1,4,2.1c6.6,0,14.7-0.3,20.1-0.5h0h0l0,0c2.8-0.1,4.8-0.2,5.6-0.2
					c5.6,0,10.1,0.2,14.5,0.4c4,0.2,7.9,0.3,12.3,0.3c2.6,0,4.3-0.4,4.3-2.1c0-1.1-0.8-1.9-3.6-2.1c-1.5-0.1-5-0.6-7.1-0.9
					c-4.1-0.6-6.1-2.4-6.1-6.4c0.4-4.7,1.5-9.2,3.2-13.6c1-2.9,1.9-5.2,2.7-7.4l0-0.1C549,331.6,550.1,328.7,551.5,324.7z
					 M594.9,305.3c0.2,0.4,0.2,1.1-1,1.1l-34.7-0.1c-0.1,0-0.3,0-0.4-0.1c-0.1-0.1-0.2-0.1-0.3-0.2c-0.1-0.1-0.1-0.2-0.1-0.4
					c0-0.1,0-0.3,0.1-0.4c5.8-15.2,11.5-30.3,17.2-45.5c0.4-1.1,0.8-1.5,1.4,0C583,274.9,589,290.1,594.9,305.3z M707.7,267.4
					c0-15.3,0-30.7-0.6-45.9c-0.4-9-2.9-11.9-7.7-12.8c-2.7-0.4-5.4-0.6-8.1-0.6c-2.4-0.2-3.6-1-3.6-2.3c0-1.3,1.4-2,4.4-2.1
					c5.2-0.2,14-0.3,21-0.4c4.9-0.1,8.8-0.1,10-0.2c1.7-0.1,6.2-0.4,11.5-0.8c7.1-0.5,15.8-1.1,21.1-1.4c19-1,32.5,0.5,41.3,5.7
					c9.5,5.6,18.4,17.2,18.4,35.1c0,19.7-11.1,36.7-27.1,47.5c2.8,4.6,5.6,9.3,8.3,14c10,16.8,20,33.7,31.1,49.3
					c10.4,14.5,15.7,19,21.3,20.5c1.7,0.5,3.4,0.8,5.1,1.1c2,0.3,3.4,1.2,3.4,2.7c0,2.2-2,2.3-4,2.1l-3.8-0.3l0,0
					c-5-0.4-8.5-0.6-14.4-1c-20.9-1.4-29.8-4.6-36.9-10.1c-6.2-4.8-13.1-15.2-20.9-29.9c-3.9-7.3-6.9-13.2-9.5-18.1l0,0
					c-3.6-6.9-6-11.7-8.2-15.2c-0.3-0.4-0.6-0.7-1-1c-0.4-0.2-0.9-0.4-1.4-0.4l-13.4-0.1c-1,0-1.6,0.4-1.6,1.8V316
					c0,17.8,0.2,28.6,1,38c0.5,5.8,1.8,10.9,7.9,12.8c3,0.9,6,1.6,9.1,1.8c3.2,0.4,3.6,1.3,3.6,2.7c0,1.4-1.4,2-4.3,1.8
					c-9.8-0.5-24.1-1.5-31.8-2.1l0,0l0,0l0,0h0l0,0l0,0h0c-2.9-0.2-4.9-0.3-5.3-0.4c-0.9,0-4.4-0.1-8.7-0.1h0h0h0h0h0
					c-6.9-0.1-16-0.2-20.3-0.4c-3-0.1-4-0.8-4-2.3c0-1.5,1.5-2,3.6-2.1c2.3-0.1,4.6-0.3,6.9-0.6c4.1-1,5.7-4.9,6.3-12.4
					c1-12.6,1-25.3,1-38v0v0v0v0v0v0v0c0-2.8,0-5.6,0-8.3L707.7,267.4z M742.5,282.2c-0.1,0.7,0.1,1.4,0.4,2
					c0.3,0.6,0.8,1.1,1.4,1.4c3.8,2.2,9.9,2.9,15.6,3c5.7,0,9.5-0.9,12.8-3.7c4.3-3.6,7.3-14.3,7.9-29.1c0.7-16.7-9-40.6-28.8-40.1
					c-2.7,0-5.5,0.4-8.1,1.2c-0.8,0.5-1.2,0.7-1.2,2.5L742.5,282.2z M888.3,251.7c0,4.4-0.1,8.8-0.1,13.2v43.9c0,2.4,0,4.8,0,7.2v0
					c-0.1,14.8-0.2,29.6-1,44.2c-0.5,9.7-2.7,14.2-6.7,14.8c-2.1,0.4-4.2,0.5-6.3,0.5c-2.1-0.1-3.9,0.4-3.9,2.2c0,1.2,0.6,2.5,4,2.8
					c4,0.3,6.5,0.4,9.6,0.5c1.3,0,2.7,0.1,4.4,0.1c5.7,0.2,10.6,0.6,15.4,1c3.9,0.3,12.2,1.8,20,3.5c7.1,1.6,14.4,2.6,21.6,3
					c26.1,1.5,52.1-3.2,69.1-26.4c16.7-22.7,22.2-51.4,22.2-77.3c0.1-24.1-4.1-50.4-19.4-71.8c-18.3-25.3-51.5-28-80-24.8
					c-5.1,0.5-9.5,1-13.3,1.4l0,0h0v0l0,0l0,0l0,0c-8.9,1-14.8,1.6-19.4,2c-5.3,0.4-14.1,0.9-21.4,1.2l0,0h0l0,0
					c-4.9,0.2-9.1,0.5-11.2,0.6c-3.4,0.3-4.6,1.1-4.6,2.6c0,1.2,0.9,2.3,3.9,2.4c2,0.1,3.6,0.1,4.9,0.1l0,0c1,0,1.9,0,2.6,0.1
					c7.7,0.5,8.8,7.3,9.1,14.4C888.5,225.9,888.4,238.8,888.3,251.7z M924.1,300.8c0-2.5,0-5.1,0-7.6v-33c0-5.4,0-10.7,0.1-16.1v0
					c0.1-10.8,0.1-21.5,0.1-32.2c0-2.3,0-3.5,1.8-4.8c1.8-1.3,6.5-2.6,10.9-2.9c21.7-1.7,34,10.2,46.5,26
					c10.8,19.8,14.8,41.6,15.2,62.7c0.4,20.8-0.2,46.2-13.1,64.3c-10.2,14.2-22.6,17.2-36.8,16c-8.9-0.7-17.2-5-20.9-11
					c-2.2-3-3.1-8.3-3.4-18.9C924,329.3,924,315,924.1,300.8z M396.3,36.4c17.7,0,31.6,15,31.6,39.1c0,31.1-17.4,34.8-25,34.7
					c-20.7,0-33.1-17.7-33.1-40.2C369.8,43.3,383.9,36.4,396.3,36.4z M465,64c0-16.4,0-19.4-0.2-22.9c-0.2-3.4-1.1-5.4-4.6-6.1
					c-1.4-0.2-2.8-0.4-4.2-0.3c-1.2,0-1.8-0.2-1.8-1c0-0.8,0.8-1,2.4-1c3.3,0,7,0.1,10.1,0.2c2.2,0.1,4.2,0.1,5.4,0.1
					c1.4,0,3.4-0.1,5.7-0.1c3.2-0.1,7.1-0.2,10.9-0.2c13.5,0,31.5,0,43.2,12.3c7,7.4,10.7,17.2,10.5,27.4c0.2,11.2-4.1,22-11.8,30.1
					c-5,5.1-16.2,12.7-36.1,12.7c-3.9,0-8.3-0.3-12.4-0.7l-1.1-0.1c-3.6-0.3-7-0.6-9.4-0.6c-1.2,0-3.6,0-6.1,0.1
					c-2.6,0.1-5.3,0.2-7.4,0.2c-1.4,0-2.2-0.3-2.2-1.1c0-0.8,0.4-0.9,1.7-0.9c1.3,0,2.6-0.1,3.9-0.4c2.1-0.4,2.7-2.8,3.1-5.9
					c0.5-4.5,0.5-13,0.5-23v0V64z M478.5,75.8c0,11.4,0.1,19.7,0.2,21.8c0.1,2.7,0.3,7,1.2,8.2c1.4,2.1,5.6,4.3,14.1,4.3
					c11,0,18.3-2.2,24.8-7.8c6.9-5.9,9-15.7,9-26.8c0-13.7-5.7-22.5-10.3-26.9c-9.9-9.5-22.2-10.8-30.6-10.8c-2.4,0-4.7,0.2-7,0.8
					c-0.5,0.1-0.8,0.4-1.1,0.9c-0.2,0.4-0.3,0.9-0.2,1.4c-0.1,3.7-0.1,13-0.1,21.6L478.5,75.8z M555.2,109.3c0,2.4,0.3,2.9,2.1,3.7
					c5,2.1,10.3,3,15.7,2.8c6,0.2,12-1.3,17.1-4.4c3.2-2,5.7-4.8,7.5-8.1c1.8-3.3,2.7-7,2.6-10.7c0-10.2-4.6-17.7-17.6-27.5l-3-2.3
					c-9-6.8-11.4-10.6-11.4-15.5c0-6.5,4.8-11.1,12.8-11.1c6.9,0,10.2,3.2,11.8,5.3c1.6,2,2.6,4.5,2.8,7.1c0,1.3,0.2,1.9,1.1,1.9
					s1.2-0.8,1.2-3.2c0-6,0.2-9.3,0.3-11.2v0c0.1-0.8,0.1-1.3,0.1-1.7c0-0.8-0.3-1-1.5-1.3c-1.2-0.3-2.6-0.6-4.4-1
					c-3.3-0.6-6.6-0.9-9.9-0.9c-15,0-24.9,8.5-24.9,20.4c0,8.7,4.1,16.3,16,25.5l5,3.9c9,7,10.6,12,10.6,17.2
					c0,5.7-4.7,12.3-14.4,12.3c-6.7,0-13-2.9-15.4-10.9c-0.6-1.8-0.9-3.6-1-5.5c0-0.9-0.2-1.8-1.1-1.8c-0.9,0-1.2,1.1-1.3,2.8l0,0.1
					C555.6,97.2,555.2,103.5,555.2,109.3z M645.4,73.5c0-18.4,12.2-42.2,44.5-42.2c26.9-0.1,43.5,15.6,43.5,40.3
					s-17.3,44.2-44.6,44.2C657.9,115.7,645.4,92.5,645.4,73.5z M718.4,75.5c0-24.2-13.9-39.1-31.6-39.1c-12.4,0-26.5,6.9-26.5,33.7
					c0,22.5,12.4,40.2,33.1,40.2C700.9,110.3,718.4,106.7,718.4,75.5z M755.2,41.1c0.2,3.4,0.2,6.5,0.2,22.9l0,19v0
					c0,10.3,0,18.4-0.5,23c-0.4,3.1-1,5.5-3.1,5.9c-1.3,0.3-2.6,0.4-3.9,0.4c-1.2,0-1.6,0.3-1.6,0.9c0,0.9,0.8,1.1,2.3,1.1
					c2.2,0,5.3-0.1,8-0.2c2.3-0.1,4.4-0.1,5.7-0.1c1.1,0,2.8,0,4.9,0.1c3.2,0.1,7.4,0.2,11.5,0.2c1.6,0,2.4-0.5,2.4-1.1
					s-0.4-0.9-1.8-0.9c-1.8,0-3.6-0.2-5.4-0.4c-3.2-0.4-3.9-2.7-4.2-5.9c-0.5-4.5-0.5-12.6-0.5-23v-8.7c0-0.8,0.2-1,0.8-1
					c1.9,0,13.3,0,16,0.3c1.2,0.1,2.3,0.5,3.3,1.2c0.9,0.7,1.7,1.6,2.1,2.7c0.4,1.1,0.6,2.2,0.7,3.3c0,0.8,0.2,1.5,0.9,1.5
					c1.1,0,1.1-1.3,1.1-2.1s0.2-5.7,0.4-7.9c0.2-1.9,0.4-3.6,0.6-4.9c0.1-0.9,0.2-1.5,0.2-1.8c0-0.6,0-1-0.6-1
					c-0.5,0-0.8,0.3-1.2,0.8c-0.1,0.1-0.1,0.2-0.2,0.3c-1.5,2-3.2,2-9.5,2c-2.1,0-5,0-7.8,0.1c-2.4,0-4.6,0.1-6,0.1
					c-0.6,0-0.8-0.3-0.8-1V40c0-1.2,0.3-1.5,1-1.5c1.6,0,4.6,0.1,7.7,0.1c3.4,0.1,6.9,0.1,8.9,0.2c4.1,0.1,6.4,1.7,7.1,3.2
					c0.5,1.3,0.7,2.7,0.6,4.1c0.1,1.2,0.3,1.7,1.1,1.7c0.8,0,1-0.6,1.1-1.5c0.1-0.8,0.3-3.8,0.4-6c0.1-1.3,0.1-2.3,0.1-2.7
					c0.2-1.6,0.4-2.7,0.6-3.5c0.1-0.6,0.2-1,0.2-1.3c0-0.2,0-0.5-0.2-0.6c-0.1-0.2-0.3-0.3-0.6-0.3c-0.3,0-0.6,0.2-1,0.3
					c-0.2,0.1-0.5,0.2-0.7,0.3c-1.4,0.3-2.9,0.4-4.4,0.4c-2.5,0.1-24.4,0.1-28.5,0.1c-2.9,0-5.6-0.1-8.2-0.2
					c-2.5-0.1-4.9-0.2-7.3-0.2c-1.6,0-2.5,0.4-2.5,1.1s0.8,0.9,1.8,0.9c1.4,0,2.8,0.1,4.2,0.3C754.2,35.7,755,37.7,755.2,41.1z"/>
			</g>
		</g>
		<g>
			
				<image style="overflow:visible;opacity:0.45;" width="504" height="509" xlink:href="C256B366.png"  transform="matrix(0.24 0 0 0.24 347.2369 9.3841)">
			</image>
			<g>
				<g>
					<g>
						<path class="st1" d="M403.1,113.8c-0.4,0-0.8,0-1.1,0c-1.8-0.1-3.4-0.4-4.9-0.8c-1.7-0.5-3.3-1.1-4.6-1.9
							c-0.1-0.1-0.2-0.1-0.3-0.2l-0.3-0.2l-0.2,0c-0.4,0-0.8,0-1.2,0c-0.6,0-2-0.1-3.3-0.3c-0.5,0-1.1-0.1-1.6-0.2
							c-0.1,0-0.3,0-0.4-0.1c-1.1-0.2-2.1-0.5-3.2-0.9c-1-0.4-2-0.9-2.9-1.6c-0.9-0.6-1.7-1.4-2.6-2.3c-0.8-0.8-1.6-1.8-2.3-2.8
							c-0.5-0.7-0.9-1.4-1.3-2.1l-0.2-0.3l-0.3,0c-1.4-0.2-2.8-0.7-4-1.3c-1.6-0.8-2.9-1.8-4.1-3.2c-0.6-0.7-1.1-1.4-1.6-2.2
							c-0.5-0.8-0.9-1.6-1.3-2.5c-0.6-1.3-1-2.6-1.4-4l0,0l0-0.1l0-0.2c0,0-0.3-0.3-0.3-0.3c-0.2-0.3-0.4-0.5-0.6-0.7l0,0l0,0
							c0,0,0,0,0,0c-0.2-0.2-0.4-0.5-0.6-0.8l0,0l0,0c0,0,0,0,0,0c-0.2-0.3-0.3-0.5-0.5-0.8c0,0,0-0.1,0-0.1
							c-0.2-0.3-0.3-0.6-0.5-0.9c-1.2-2.5-2-5.6-2.3-9.3c0-0.4-0.1-0.8-0.1-1.2c0,0,0-0.4,0-0.4c0-0.3,0-0.5,0-0.8
							c0-0.2,0-0.3,0-0.5c0-0.3,0-0.6,0-0.9c0-0.1,0-0.2,0-0.3c0-0.4,0-0.8,0-1.2l0-0.1c0,0,0,0,0,0c0,0,0-0.1,0-0.1
							c0-0.4,0-0.7,0.1-1.1l0-0.1c0-0.1,0-0.2,0-0.3c0-0.4,0.1-0.9,0.1-1.3c0.8-7.4,3.8-14.5,8.3-19.5c0.2-0.3,0.5-0.6,0.8-0.9
							c0.1-0.1,0.1-0.1,0.2-0.2l0.1-0.1c0.2-0.2,0.4-0.4,0.6-0.6l0.1-0.1c0.1-0.1,0.1-0.1,0.2-0.2c0.2-0.2,0.4-0.3,0.5-0.5
							c0.1-0.1,0.2-0.2,0.4-0.3c0.2-0.2,0.4-0.3,0.5-0.4c0.1-0.1,0.3-0.2,0.4-0.3c0.2-0.1,0.4-0.3,0.5-0.4l0.1-0.1
							c0.1-0.1,0.2-0.1,0.3-0.2c0.2-0.1,0.3-0.2,0.5-0.4l0.1-0.1c0.1-0.1,0.2-0.1,0.3-0.2c0.2-0.1,0.4-0.2,0.6-0.4
							c0.1,0,0.1-0.1,0.2-0.1c0,0,0.1-0.1,0.2-0.1c0,0,0.1,0,0.1-0.1c0,0,0.1,0,0.1-0.1c0,0,0.1-0.1,0.1-0.1
							c0.2-0.1,0.5-0.3,0.8-0.4c0.1,0,0.2-0.1,0.2-0.1l0.3-0.1c0.2-0.1,0.4-0.2,0.6-0.3c0.1,0,0.4-0.2,0.4-0.2
							c0.2-0.1,0.5-0.2,0.7-0.3c0.1-0.1,0.3-0.1,0.4-0.2c0.2-0.1,0.5-0.2,0.7-0.3l0.1,0c0.1,0,0.3-0.1,0.4-0.1
							c0.2-0.1,0.4-0.1,0.7-0.2c0.1,0,0.5-0.1,0.5-0.1c0.2,0,0.4-0.1,0.5-0.1l0.2,0c0.1,0,0.4-0.1,0.4-0.1c0.3-0.1,0.6-0.1,0.8-0.1
							c0.1,0,0.1,0,0.2,0c0.1,0,0.1,0,0.2,0c0.4-0.1,0.8-0.1,1.2-0.1c0.6-0.1,1.3-0.1,1.8-0.1c0.9,0,1.7,0.1,2.4,0.3l0.2,0l0.1-0.1
							c0.2-0.1,0.3-0.1,0.5-0.2c1.5-0.6,3.2-1.1,4.7-1.1l0,0c0.3,0,0.7,0,1.1,0.1c1.1,0.2,2.3,0.6,3.3,1c0.1,0,0.2,0.1,0.3,0.1
							l0.4,0.2l0.2-0.1c1.1-0.7,2.2-1.2,3.3-1.6l0.3-0.1l0.1-0.3c0.5-1.2,0.9-2.2,1.4-3.2c0.7-1.4,1.4-2.7,2.2-4
							c3.3-5,7.6-8.7,12.2-10.3l1.3,2.7c-1.9,1.1-3.2,3-3.9,4.4c-1.1,2.2-1.8,4.5-2.3,6.6c-0.3,1.2-0.5,2.5-0.8,3.9l-0.1,0.6
							l0.5,0.2c1,0.4,2.1,1,3.1,1.6l0.2,0.1l0.4-0.2c0.1,0,0.2-0.1,0.3-0.1c0,0,0.2-0.1,0.3-0.1c0.3-0.1,0.6-0.2,0.9-0.3
							c0.1,0,0.1,0,0.2-0.1c0.3-0.1,0.5-0.2,0.8-0.2c0,0,0.1,0,0.1,0c0,0,0,0,0.1,0l0.1,0c0,0,0.1,0,0.1,0l0,0
							c0.1,0,0.2-0.1,0.3-0.1c0.1,0,0.3-0.1,0.4-0.1c0.2,0,0.3-0.1,0.5-0.1l0,0c0.1,0,0.2,0,0.3-0.1c0.2,0,0.4-0.1,0.6-0.1l0.3,0
							c0.3,0,0.6-0.1,0.8-0.1c0.3,0,0.6,0,1-0.1c0.1,0,0.2,0,0.3,0c2,0,3.8,0.5,5.9,1.6l0.1,0.1l0.1,0c0.1,0,0.2,0,0.3,0
							c6,0.7,11.7,3.9,15.9,9c4.3,5.2,7.2,12.4,7.8,19.8c0.2,2.8,0.1,5.6-0.2,8.5c-0.5,3.6-1.3,6.7-2.6,9.2c-0.8,1.6-1.9,3-3.1,4.1
							l-0.1,0.1l-0.1,0.2c-0.4,1.1-0.8,2.1-1.3,3.1c0,0.1-0.1,0.2-0.1,0.2c-0.1,0.1-0.1,0.2-0.2,0.3l-0.3,0.6l-0.3,0.6l-0.3,0.5
							c-0.3,0.5-0.7,1-1.1,1.5c-0.1,0.2-0.3,0.3-0.4,0.4c-1.1,1.2-2.3,2.2-3.7,3c-0.7,0.4-1.4,0.7-2.1,1c-0.1,0.1-0.3,0.1-0.4,0.1
							l-0.2,0.1l-0.1,0.1c-0.1,0.1-0.2,0.2-0.3,0.3c-0.2,0.2-0.4,0.5-0.6,0.7c-0.2,0.2-0.4,0.5-0.5,0.7c-1.4,1.9-2.9,3.5-4.6,4.8
							c-0.8,0.6-1.8,1.1-2.8,1.6c-0.2,0.1-0.5,0.2-0.7,0.3c-0.2,0.1-0.3,0.1-0.5,0.2l-0.3,0.1c-0.1,0-0.2,0.1-0.3,0.1l-0.4,0.1
							c-0.1,0-0.2,0-0.3,0.1c-0.2,0-0.3,0.1-0.5,0.1c-0.9,0.2-1.9,0.3-3.1,0.4l-0.4,0c0,0,0,0,0,0c0,0,0,0,0,0l-0.1,0
							c0,0-0.1,0-0.1,0l-0.2,0c0,0-0.4,0.2-0.4,0.3l-0.1,0.1c-0.1,0-0.1,0.1-0.2,0.1c-0.3,0.2-0.6,0.4-0.9,0.5c0,0-0.1,0-0.1,0.1
							l-0.1,0c-0.3,0.1-0.5,0.3-0.8,0.4l-0.3,0.2c-0.4,0.2-0.7,0.3-1,0.5l0,0c0,0-0.1,0-0.1,0c-0.3,0.1-0.6,0.3-0.9,0.4l-0.3,0.1
							c-0.4,0.1-0.7,0.3-1,0.3l-0.1,0c-0.4,0.1-0.8,0.2-1.2,0.4c-1.2,0.3-2.4,0.6-3.7,0.7c-0.7,0.1-1.6,0.2-2.5,0.2
							C404,113.8,403.5,113.8,403.1,113.8z"/>
						<g>
							<path d="M450.9,66.2c-0.6-7.7-3.5-15-7.9-20.2c-4.4-5.3-10.3-8.5-16.3-9.2c-0.1,0-0.2,0-0.3,0c-2.1-1.1-4.1-1.7-6.5-1.7
								c-0.3,0-0.7,0-1.1,0.1c-0.3,0-0.6,0.1-0.8,0.1c-0.1,0-0.2,0-0.2,0c-0.2,0-0.4,0.1-0.6,0.1c-0.1,0-0.2,0-0.3,0.1
								c-0.2,0-0.3,0.1-0.5,0.1c-0.1,0-0.3,0.1-0.4,0.1c-0.1,0-0.3,0.1-0.4,0.1c-0.1,0-0.1,0-0.2,0.1c-0.1,0-0.1,0-0.2,0.1
								c-0.3,0.1-0.5,0.2-0.8,0.3c-0.1,0-0.1,0-0.2,0.1c-0.3,0.1-0.6,0.2-0.9,0.4c-0.1,0-0.2,0.1-0.3,0.1c-0.2,0.1-0.3,0.1-0.5,0.2
								c-1-0.6-2.1-1.2-3.2-1.6c0.2-1.3,0.5-2.6,0.8-3.8c0.5-2.2,1.1-4.4,2.2-6.4c1-1.9,2.5-3.6,4.3-4.4l-0.6-1.4l0-0.1l-1.2-2.5
								c-5.1,1.7-9.7,5.7-12.9,10.8c-0.8,1.3-1.6,2.6-2.3,4c-0.5,1.1-1,2.2-1.4,3.3c-1.2,0.4-2.3,1-3.4,1.6
								c-0.2-0.1-0.3-0.1-0.5-0.2c-1.1-0.5-2.2-0.9-3.4-1.1c-0.4-0.1-0.8-0.1-1.2-0.1c-1.7,0-3.3,0.5-5,1.1
								c-0.2,0.1-0.4,0.1-0.5,0.2c-1.4-0.3-2.9-0.3-4.4-0.2c-0.4,0-0.8,0.1-1.2,0.1c-0.1,0-0.2,0-0.4,0.1c-0.3,0-0.6,0.1-0.8,0.1
								c-0.1,0-0.3,0.1-0.4,0.1c-0.3,0.1-0.5,0.1-0.8,0.2c-0.2,0-0.3,0.1-0.5,0.1c-0.2,0.1-0.5,0.1-0.7,0.2
								c-0.2,0.1-0.3,0.1-0.5,0.2c-0.2,0.1-0.5,0.2-0.7,0.3c-0.2,0.1-0.3,0.1-0.5,0.2c-0.2,0.1-0.5,0.2-0.7,0.3
								c-0.2,0.1-0.3,0.1-0.5,0.2c-0.2,0.1-0.5,0.2-0.7,0.3c-0.1,0.1-0.3,0.1-0.4,0.2c-0.3,0.1-0.5,0.3-0.8,0.4
								c-0.1,0.1-0.2,0.1-0.3,0.2c0,0,0,0-0.1,0c-0.1,0.1-0.2,0.2-0.4,0.2c-0.2,0.1-0.4,0.2-0.6,0.4c-0.1,0.1-0.3,0.2-0.4,0.3
								c-0.2,0.1-0.4,0.3-0.6,0.4c-0.1,0.1-0.3,0.2-0.4,0.3c-0.2,0.1-0.4,0.3-0.5,0.4c-0.1,0.1-0.3,0.2-0.4,0.3
								c-0.2,0.1-0.4,0.3-0.5,0.4c-0.1,0.1-0.2,0.2-0.4,0.3c-0.2,0.2-0.4,0.3-0.6,0.5c-0.1,0.1-0.2,0.2-0.3,0.3
								c-0.2,0.2-0.4,0.4-0.6,0.6c-0.1,0.1-0.2,0.2-0.3,0.3c-0.3,0.3-0.6,0.6-0.8,0.9c-4.6,5.1-7.7,12.3-8.5,20
								c0,0.5-0.1,0.9-0.1,1.4c0,0.1,0,0.3,0,0.4c0,0.4,0,0.8-0.1,1.2c0,0.1,0,0.1,0,0.2l0,0.1c0,0.4,0,0.8,0,1.3c0,0.1,0,0.2,0,0.3
								c0,0.3,0,0.6,0,0.9c0,0.2,0,0.3,0,0.5c0,0.3,0,0.6,0,0.8c0,0.1,0,0.3,0,0.4c0,0.4,0.1,0.8,0.1,1.2c0.3,3.4,1,6.7,2.4,9.6
								c0.2,0.3,0.3,0.7,0.5,1c0,0,0,0,0,0c0.2,0.3,0.4,0.6,0.6,0.9c0,0,0,0,0,0.1c0.2,0.3,0.4,0.6,0.6,0.8c0,0,0,0,0.1,0.1
								c0.2,0.3,0.4,0.5,0.6,0.8c0,0,0,0,0,0c0,0,0.1,0.1,0.1,0.1c0,0,0,0,0,0c0,0,0,0,0,0c0.4,1.5,0.9,2.8,1.4,4.2
								c0.4,0.9,0.8,1.8,1.3,2.6c0.5,0.8,1.1,1.6,1.7,2.3c1.2,1.4,2.7,2.5,4.3,3.3c1.3,0.7,2.7,1.1,4.1,1.3c0.4,0.7,0.9,1.5,1.3,2.2
								c0.7,1,1.5,2,2.3,2.9c0.8,0.9,1.7,1.7,2.7,2.4c1,0.7,2,1.3,3.1,1.7c1.1,0.4,2.2,0.7,3.3,0.9c0.1,0,0.3,0,0.4,0.1
								c0.5,0.1,1.1,0.2,1.6,0.2c1.2,0.1,2.6,0.3,3.3,0.3c0.4,0,0.8,0,1.3,0c0.1,0.1,0.3,0.2,0.4,0.3c1.5,0.9,3.1,1.6,4.7,2
								c1.6,0.4,3.3,0.7,5,0.8c0.8,0.1,1.7,0.1,2.5,0c0.8,0,1.7-0.1,2.5-0.2c1.3-0.2,2.5-0.4,3.7-0.7c0.4-0.1,0.8-0.2,1.2-0.4
								c0,0,0,0,0,0c0.4-0.1,0.7-0.2,1.1-0.4c0.1,0,0.2-0.1,0.3-0.1c0.3-0.1,0.6-0.3,1-0.4c0,0,0.1,0,0.1,0c0.3-0.1,0.7-0.3,1-0.5
								c0.1-0.1,0.2-0.1,0.3-0.2c0.3-0.1,0.5-0.3,0.8-0.4c0.1,0,0.2-0.1,0.2-0.1c0.3-0.2,0.6-0.4,0.9-0.5c0.1-0.1,0.2-0.1,0.3-0.2
								c0.1-0.1,0.2-0.1,0.3-0.2c0.1,0,0.2,0,0.2,0c0,0,0.1,0,0.1,0c0.1,0,0.2,0,0.4,0c1.1-0.1,2.1-0.2,3.1-0.4
								c0.3,0,0.5-0.1,0.8-0.2l0.4-0.1c0.1,0,0.3-0.1,0.4-0.1c0.3-0.1,0.5-0.2,0.8-0.2c0.3-0.1,0.5-0.2,0.8-0.3c1-0.4,2-1,2.9-1.6
								c1.8-1.3,3.4-3,4.8-4.9c0.2-0.2,0.3-0.4,0.5-0.7c0.3-0.3,0.6-0.7,0.9-1c0.1,0,0.3-0.1,0.4-0.2c0.7-0.3,1.5-0.6,2.2-1
								c1.4-0.8,2.7-1.9,3.8-3.1c0.1-0.2,0.3-0.3,0.4-0.5c0.4-0.5,0.8-1,1.2-1.6l0.4-0.6l0.3-0.6l0.3-0.6c0.1-0.2,0.2-0.4,0.3-0.6
								c0.5-1,0.9-2.1,1.3-3.2c1.3-1.2,2.4-2.6,3.2-4.3c1.5-2.8,2.3-6.2,2.7-9.5C451,72,451.1,69.1,450.9,66.2z M404,57.1
								c0-0.5,0.1-1,0.2-1.5c0.2-0.5,0.4-0.9,0.6-1.2c-0.5,1.8,0,3.6,1,4.6c0.5,0.5,1,0.8,1.6,0.9c0.6,0.1,1.2,0,1.7-0.2
								c1.2-0.5,2.4-1.4,3.5-2.4c1.1-1,2.2-2.2,3.4-3.4c0.6-0.6,1.2-1.2,1.8-1.8c0.7-0.6,1.3-1.1,2-1.6c1.4-1,3-1.8,4.7-2
								c0.8-0.1,1.7-0.1,2.6,0.1c0.8,0.2,1.7,0.6,2.4,1.1c1.4,1,2.5,2.9,2.6,4.8c-0.7-1.7-1.9-2.7-3.2-3.2c-0.6-0.2-1.3-0.4-2-0.4
								c-0.6,0-1.3,0.1-1.9,0.3c-0.6,0.2-1.1,0.4-1.6,0.8c-0.1,0-0.1,0.1-0.2,0.1c0.1,0.1,0.2,0.1,0.3,0.2c0.5,0.4,1,0.8,1.5,1.4
								c0.7,0.9,1.2,1.9,1.5,3.1c0.3,1.1,0.4,2.3,0.2,3.4c-0.1-0.3-0.2-0.7-0.3-1c0.2,0.7,0.3,1.4,0.3,2.1c0,0.2,0,0.3,0,0.5
								c0.3,1.1,0.2,2.4,0,3.6c-0.3,1.2-0.7,2.3-1.4,3.3c-0.6,1-1.4,1.9-2.3,2.6c-0.9,0.7-1.9,1.1-3,1.3c-2.1,0.4-4.3-0.1-6.1-1.5
								c-0.9-0.6-1.6-1.4-2.2-2.4c-0.6-1-1.1-2.2-1.2-3.4c-0.1-0.3-0.1-0.6-0.1-0.9c0-0.4-0.1-1.2-0.1-2.1c-0.2,0-0.4,0.1-0.6,0.1
								c-0.9,0.1-1.9,0.1-2.7-0.3c-0.9-0.4-1.7-1.1-2.1-2c-0.2-0.4-0.4-0.8-0.5-1.2C404.1,58.3,404,57.7,404,57.1z M408.6,81.1
								l-3,1.7l-1.8-7.1l0.5,0.6l2.3,2.6L408.6,81.1z M376,51.6c0.7-0.5,1.6-0.9,2.4-1c0.9-0.2,1.7-0.1,2.6,0
								c1.7,0.3,3.2,1.2,4.6,2.2c0.7,0.5,1.3,1.1,2,1.7c0.6,0.6,1.2,1.2,1.8,1.8c1.1,1.2,2.2,2.4,3.3,3.5c1.1,1.1,2.3,2,3.4,2.5
								c0.6,0.2,1.2,0.3,1.7,0.2c0.6-0.1,1.1-0.4,1.6-0.9c1-1,1.5-2.7,1.1-4.6c0.2,0.4,0.4,0.8,0.6,1.2c0.1,0.5,0.2,1,0.2,1.5
								c0,0.6-0.1,1.2-0.3,1.7c-0.1,0.4-0.3,0.8-0.5,1.2c-0.5,0.9-1.3,1.6-2.2,2c-0.9,0.4-1.9,0.4-2.8,0.2c-0.2,0-0.4-0.1-0.5-0.2
								c0,0.8-0.1,1.7-0.1,2.1c0,0.3-0.1,0.6-0.2,0.9c0,0,0,0,0,0c-0.2,1.2-0.7,2.4-1.3,3.4c-0.6,0.9-1.4,1.8-2.3,2.3
								c-1.8,1.3-4,1.7-6.1,1.3c-1-0.2-2.1-0.7-3-1.4c-0.9-0.7-1.7-1.6-2.2-2.6c-0.6-1-1-2.2-1.3-3.4c-0.2-1.2-0.2-2.5,0.1-3.6
								c0-0.2,0-0.3,0-0.5c0.1-0.7,0.2-1.4,0.4-2.1c-0.1,0.3-0.2,0.7-0.4,1c-0.2-1.1-0.1-2.3,0.3-3.4c0.3-1.1,0.9-2.2,1.6-3
								c0.4-0.5,1-1,1.5-1.4c0.1-0.1,0.2-0.1,0.3-0.2c-0.1,0-0.1-0.1-0.2-0.1c-0.5-0.3-1.1-0.6-1.6-0.8c-0.6-0.2-1.3-0.4-1.9-0.4
								c-0.7,0-1.3,0.1-2,0.3c-1.3,0.4-2.5,1.5-3.3,3.1C373.4,54.4,374.5,52.5,376,51.6z M402.2,70.1l-1.7,11.1l-4.2-2.1l1.4-2.2
								l3.2-5L402.2,70.1z M443.6,73.1l-1.6-1.3c-0.1,0.6-0.3,1.2-0.4,1.8c-0.3,0.9-0.5,1.8-0.9,2.7c-0.1,0.4-0.3,0.7-0.4,1.1
								c0,0.1,0,0.1-0.1,0.2l1.4,1.9l0.7,0.9l-0.8,1.1l-1.8-2.7c-0.3,0.7-0.7,1.5-1.1,2.2c-0.6,1.1-1.2,2.1-1.8,3.1
								c0,0.1-0.1,0.1-0.1,0.2c-0.1,0.1-0.2,0.3-0.3,0.4c0,0-0.1,0.1-0.1,0.1l0.9,1.8l0.4,0.9l-0.6,1.2c0,0-0.7-1.3-1.5-2.9
								c0,0,0,0,0,0c-0.4,0.5-0.8,0.9-1.3,1.4c-0.7,0.7-1.4,1.3-2.1,2c-0.2,0.1-0.4,0.3-0.5,0.4l0.1,0.4l0.5,1.3l-1,1l-0.8-1.9
								c-0.7,0.5-1.5,0.9-2.4,1.2c-0.6,0.2-1.2,0.4-1.9,0.5c-0.1,0-0.2,0-0.3,0c-0.2,0-0.3,0-0.5,0.1l0.4,1.5l0.4,1.6l-1.6,0.7
								c-0.1-0.1-0.4-1.7-0.7-3.7c-0.6,0.1-1.3,0.4-1.9,0.8c-0.7,0.4-1.3,0.9-2,1.5c-0.1,0.1-0.3,0.2-0.4,0.3l0.5,2l0.4,1.4
								l-1.4,1.5l-0.7-3.9c-0.1,0.1-0.1,0.1-0.2,0.1c-0.5,0.4-1,0.8-1.6,1.2c-0.6,0.4-1.3,0.7-2.2,0.8c-0.2,0-0.4,0.1-0.6,0.1
								l-0.2,0l-0.1,0l0,0l-0.1,0l0.1,1.5l0.1,1.9l-2.2-0.5l0-3.2c0,0,0,0,0,0c-1-0.3-1.8-0.6-2.7-0.9c-0.9-0.4-1.8-0.8-2.6-1.1
								l-0.8,3.6l-1.6,0l0.5-1.8l0.6-2.3c-0.1-0.1-0.3-0.1-0.4-0.2c-0.5-0.2-1.1-0.4-1.6-0.6c-1-0.3-1.9-0.6-2.9-0.8c0,0,0,0,0,0
								c0,0-0.1,0-0.1,0l0.2,3.4l0.1,1.9l-1.9-1.3l-0.1-4.1c-0.3,0-0.6,0-1,0c-1,0.1-2,0.2-3,0.4c-0.3,0.1-0.6,0.1-0.9,0.2
								c0,0-0.1,0-0.1,0L393,97l0.1,1.9l-1.7-0.6c0-0.2,0.1-0.9,0.1-1.8c0-0.6,0-1.3,0-2c0,0,0,0,0,0c-0.3,0-0.6,0.1-1,0.1
								c-0.6,0.1-1.2,0.1-1.8,0.2c-0.6,0-1.3,0-1.9-0.1c-0.1,0-0.1,0-0.2,0c-0.5,2.6-0.8,4.7-0.8,4.7l-0.9-2c0-0.1,0-0.7,0.1-1.6
								c0-0.4,0.1-0.9,0.1-1.4c0,0-0.1,0-0.1,0c0,0,0,0,0,0c-0.6-0.2-1.2-0.4-1.7-0.6c-0.7-0.3-1.4-0.7-2-1l-1.1,4.6l-0.4-0.5
								l0.3-1.5l0.6-2.9c-0.1-0.1-0.2-0.1-0.3-0.2c-0.1-0.1-0.2-0.1-0.3-0.2c-1-0.6-1.9-1.3-2.9-2c-0.3-0.2-0.7-0.5-1-0.7
								c-0.8,2.3-1.4,4.1-1.5,4.3c-0.1,0.4-0.7-1.6-0.7-1.6l0.3-0.9l0.9-2.5c-0.2-0.1-0.4-0.3-0.5-0.4c-0.1-0.1-0.2-0.1-0.3-0.2
								c-0.9-0.7-1.9-1.4-2.8-2.2c-0.1-0.1-0.3-0.2-0.4-0.3c-0.6,1.2-1,2.2-1.1,2.4c-0.1,0.4-0.7-0.9-0.7-0.9l0.5-1.1l0.5-1.1
								c-0.2-0.2-0.4-0.3-0.6-0.5c-0.3-0.3-0.6-0.5-0.9-0.8c-0.3-0.2-0.5-0.5-0.7-0.7l-1.8,3.1l-0.9-1.7c0,0,0.2-0.3,0.6-0.8
								c0.3-0.5,0.8-1.1,1.3-1.8c-0.2-0.3-0.4-0.7-0.6-1c-0.1-0.1-0.2-0.3-0.2-0.4c-0.3-0.6-0.6-1.3-0.8-1.9l-0.9,1.7l-0.7-1l0.6-1
								l0.5-0.9c-0.1-0.4-0.3-0.8-0.4-1.2c-0.3-1.1-0.6-2.1-0.9-3.2c-0.1-0.4-0.2-0.8-0.3-1.2l-1.7,0.6l0-0.8l1.5-0.8
								c0-0.2-0.1-0.5-0.1-0.7c-0.1-0.3-0.1-0.6-0.2-1c-0.2-1.3-0.4-2.6-0.5-3.9c0.1,0.5,0.3,0.9,0.4,1.4c0.2,0.8,0.5,1.5,0.7,2.3
								c0.2,0.5,0.3,1,0.5,1.4l1.4-0.8l0.3,1.4l-1.3,0.4c0.1,0.3,0.3,0.7,0.4,1c0.4,1,0.8,2,1.2,2.9l1.5-2.6l0,1.6l-1,1.9
								c0.5,0.9,0.9,1.8,1.5,2.6c0.2,0.3,0.4,0.5,0.5,0.8c0.7-1,1.3-1.9,1.4-2.3l1.1,0l-1.8,3.1c0.2,0.2,0.5,0.5,0.7,0.6
								c0.4,0.3,0.8,0.6,1.2,0.9l0.7-1.7l0.9,1.4c0,0-0.2,0.4-0.5,1.1c0.2,0.1,0.3,0.2,0.5,0.3c0.9,0.6,1.9,1.2,2.8,1.8
								c0.2,0.1,0.4,0.2,0.6,0.3l0.4-0.9l0.7-3.4l1.5,0.3c0,0-0.8,2.1-1.6,4.7c0.4,0.3,0.9,0.5,1.3,0.8c0.9,0.5,1.8,1.1,2.7,1.6
								l0.8-3.8l0.9,0.1l-1,4.1c0.8,0.4,1.5,0.7,2.2,1c0.4,0.1,0.8,0.3,1.2,0.4c0.4-3.2,0.8-6.3,0.8-6.3s2.1-0.7,2.1-0.1
								c0,0.3-0.5,3.3-1.1,6.6c0.4,0,0.7,0,1.1,0c0.5-0.1,1-0.1,1.5-0.2c0.5-0.1,1-0.2,1.5-0.3c0-2.4,0-4.3,0-4.3l0.9-0.7l0.2,4.8
								c0.2,0,0.3-0.1,0.5-0.1c1.1-0.2,2.2-0.5,3.4-0.6c0.4,0,0.7,0,1.1-0.1l-0.1-3.7l1.4,0l0.2,3.7c0.4,0,0.7,0.1,1.1,0.2
								c1.2,0.2,2.3,0.5,3.4,0.9c0.7,0.2,1.4,0.5,2.1,0.8l0.8-3.1l1.3,0l-0.8,3.6c1,0.4,2,0.9,2.9,1.3c0.4,0.2,0.9,0.4,1.3,0.5
								l0.1-6.6l1.1,0l0.4,7.1l0.1,0l0.3,0l0.1,0l0,0l0,0l0,0c0,0,0.1,0,0.2,0c0.2,0,0.5-0.1,0.9-0.3c0.7-0.4,1.6-1.1,2.5-1.8
								c0,0,0.1-0.1,0.1-0.1l-0.9-4.8l0.7,0l1.1,4.2c0.7-0.5,1.4-1,2.2-1.3c0.9-0.4,1.8-0.8,2.8-1c-0.2-1.7-0.4-3-0.4-3l0.7,0
								l0.8,2.9l0,0c0.2,0,0.3,0,0.5,0l0.4,0c0.2,0,0.4,0,0.6,0c0.4,0,0.9-0.1,1.3-0.2c0.6-0.2,1.2-0.4,1.9-0.8l-2-4.8l1.2-0.8
								l1.9,4.9c0.8-0.5,1.5-1,2.2-1.7c0.4-0.4,0.8-0.7,1.2-1.1c0.1-0.1,0.2-0.2,0.4-0.3c-0.8-1.6-1.5-2.9-1.7-3.1l1.1-1.1l1.5,3.2
								c0.7-0.8,1.3-1.7,2-2.6c0.6-0.8,1.1-1.6,1.6-2.5l-1.8-2.7l0.5-0.8l1.9,2.5c0.5-0.9,1-1.9,1.4-2.9c0.3-0.6,0.5-1.3,0.7-1.9
								l-2-1.5l0.4-1l1.9,1.6c0.1-0.2,0.1-0.5,0.2-0.7c0.4-1.2,0.6-2.5,0.7-3.8c0,0.3,0,0.5,0,0.8c0,0.9,0,1.8-0.1,2.7
								c0,0.3-0.1,0.7-0.1,1c0,0.2-0.1,0.4-0.1,0.7l1.8,1.5L443.6,73.1z"/>
						</g>
					</g>
				</g>
			</g>
		</g>
	</g>
	<g>
		
			<image style="overflow:visible;opacity:0.45;" width="640" height="548" xlink:href="C256B361.png"  transform="matrix(0.24 0 0 0.24 924.1968 102.7441)">
		</image>
		<g>
			<g>
				<path class="st2" d="M934.5,177.2c15,18.3,49.2,33.9,79.8,38c10,1.3,22.2,3,32.2,1c5.4-1,8.5-2.3,7-5.5
					c-1.7-3-14.5-10.4-19.3-12.7c-7.3-3.5-14.6-7.2-22.2-10.3c-24-9.7-75.3-23.5-79.1-20.7C933,166.9,928.5,169.2,934.5,177.2z"/>
				<path class="st3" d="M934.9,175.9c15,18.3,49.2,33.9,79.8,38c10,1.3,22.2,3,32.2,1c5.4-1,8.5-2.3,7-5.5
					c-1.7-3-14.5-10.4-19.3-12.7c-7.3-3.5-14.6-7.2-22.2-10.3c-24-9.7-75.3-23.5-79.1-20.7C933.4,165.7,928.9,167.9,934.9,175.9z"/>
				<path class="st4" d="M1053.9,209.4c-1.5-2.5-10.5-8.1-16.2-11.2c2,1.1,2.8,6.4,2.9,8.4c0,0-11.4,0.9-12.6,1.6
					c0.5,0.9,1.9,3.4,3.2,3.3c-5.1,0.5-10.8-1.7-15.8-2.8c-5.3-1.2-10.5-2.7-15.7-4.1c-11.3-3-22.8-6-33.2-11.4
					c-2.2-1.1-4.3-2.4-6.4-3.6c-1.4-0.7-3.1-1.7-3.8-3.2c-0.2-0.5-0.4-1.2,0-1.7c0.4-0.6,1-0.8,1.6-0.9c0.8-0.2,1.6-0.2,2.4-0.4
					c0.6-0.1,1.1-0.4,1.1-1.1c0-1.2-1.1-2.2-1.9-3c-1.3-1.2-2.6-2.2-4-3.2c-1.4-1-2.8-2-4.2-3c-0.9-0.7-1.9-1.4-2.4-2.4
					c0-0.1,0-0.1,0-0.1c1.8-0.8,3.6-1.3,5.4-1.9c-11.1-2.6-19.5-3.9-21-2.9c0,0-4.5,2.2,1.6,10.2c15,18.3,49.2,33.9,79.8,38
					c10,1.3,22.2,3,32.2,1C1052.3,213.8,1055.4,212.6,1053.9,209.4z"/>
				<path class="st5" d="M1026,198.2l-2.4-9.2l2.5-6.8l-3.8-14.5c-1.1-6.2-0.3-9.2,1.7-15.2c0.3-0.9,0.6-1.7,1-2.5
					c1.2-1.9-1.2-4.5,0.6-6.1c1.5-1.3,3.2-2.5,4.1-4.2c0.1-0.2,0.3-0.1,0.3-0.5c0-0.1-0.2-0.4-0.2-0.5c-0.8-1.8-3.2-5.7-1.1-7.7
					c1.1-1.1,3.2-1.4,4.7-1.6c0.9-0.1,2.2,0.1,2.9-0.5c2-1.7-0.7-6.9,0.6-9.2c0.2-0.3,0.5-0.7,0.9-0.8c0.4-0.2,0.9,0,1.3,0.1
					c0.3,0.1,0.5,0.2,0.8,0.3c0.2,0,0.4,0,0.7,0c0.5,0.1,2.6,1.9,3.1,1.8c2.1-0.4,1.2-4.3,3.9-3.4c1.4,0.5,2-1.3,3.1-0.3
					c0.9,0.8,1.8,1.1,2.4,2.1c0.4,0.6,0.7,1.3,1.1,1.9c0.6,1.1,2,2.7,2.1,4c0.2,1.5,0.9,2.6,0.8,4.6c0,0.5-3.5,3.6-2.1,3.2
					c0.8-0.2,3-0.3,3.4-0.8c0.4-0.4,1-2.8,1.1-3.5c0-0.7,0.2-1.2,0.4-1.9c0.3-1,0.7-2.1,1-3.1c0.3-1.1-1.8-3.3-2.4-4.1
					c-1.7-2.4-3.2-4.7-5.4-6.6c-2.6-2.3-4.3-4.5-7.9-2.9c-2.3,1-4.5,3.2-7.1,3.2c-2.6,0-7.2-0.8-9.7-0.1c-2.8,0.8-3.5,3.1-5.3,5
					c-0.9,1-1.7,0.8-2.6,1.9c-0.4,0.5-0.7,0.8-1,1.3c-0.1,0.2-0.3,0.3-0.4,0.5s-0.1,0.6-0.3,0.8c-0.5,0.7-1.9,1-2.5,1.5
					c-2.8,1.7-3.4,3.7-6.6,4.3c-2.5,0.5-5.4,0.4-7.1,2.6c-2.5,3.4-1,8.5-4,11.5c-2.7,2.7-6.4,3.2-9.9,4.5c-4,1.5-7.9,3.1-11,6
					L961.7,176c0,0,6.4,9.7,30.1,17.4C991.9,193.3,1014.5,201.4,1026,198.2z"/>
				<path class="st5" d="M1026,198.2l-2.4-9.2l2.5-6.8l-3.8-14.5c-1.1-6.2-0.3-9.2,1.7-15.2c0.3-0.9,0.6-1.7,1-2.5
					c1.2-1.9-1.2-4.5,0.6-6.1c1.5-1.3,3.2-2.5,4.1-4.2c0.1-0.2,0.3-0.1,0.3-0.5c0-0.1-0.2-0.4-0.2-0.5c-0.8-1.8-3.2-5.7-1.1-7.7
					c1.1-1.1,3.2-1.4,4.7-1.6c0.9-0.1,2.2,0.1,2.9-0.5c2-1.7-0.7-6.9,0.6-9.2c0.2-0.3,0.5-0.7,0.9-0.8c0.4-0.2,0.9,0,1.3,0.1
					c0.3,0.1,0.5,0.2,0.8,0.3c0.2,0,0.4,0,0.7,0c0.5,0.1,2.6,1.9,3.1,1.8c2.1-0.4,1.2-4.3,3.9-3.4c1.4,0.5,2-1.3,3.1-0.3
					c0.9,0.8,1.8,1.1,2.4,2.1c0.4,0.6,0.7,1.3,1.1,1.9c0.6,1.1,2,2.7,2.1,4c0.2,1.5,0.9,2.6,0.8,4.6c0,0.5-3.5,3.6-2.1,3.2
					c0.8-0.2,3-0.3,3.4-0.8c0.4-0.4,1-2.8,1.1-3.5c0-0.7,0.2-1.2,0.4-1.9c0.3-1,0.7-2.1,1-3.1c0.3-1.1-1.8-3.3-2.4-4.1
					c-1.7-2.4-3.2-4.7-5.4-6.6c-2.6-2.3-4.3-4.5-7.9-2.9c-2.3,1-4.5,3.2-7.1,3.2c-2.6,0-7.2-0.8-9.7-0.1c-2.8,0.8-3.5,3.1-5.3,5
					c-0.9,1-1.7,0.8-2.6,1.9c-0.4,0.5-0.7,0.8-1,1.3c-0.1,0.2-0.3,0.3-0.4,0.5s-0.1,0.6-0.3,0.8c-0.5,0.7-1.9,1-2.5,1.5
					c-2.8,1.7-3.4,3.7-6.6,4.3c-2.5,0.5-5.4,0.4-7.1,2.6c-2.5,3.4-1,8.5-4,11.5c-2.7,2.7-6.4,3.2-9.9,4.5c-4,1.5-7.9,3.1-11,6
					L961.7,176c0,0,6.4,9.7,30.1,17.4C991.9,193.3,1014.5,201.4,1026,198.2z"/>
				<path class="st6" d="M1059.3,128.9c0-0.7,0.2-1.2,0.4-1.9l1-3.1c0.3-1.1-1.8-3.3-2.4-4.1c-1.7-2.4-3.2-4.7-5.4-6.6
					c-2.6-2.3-4.3-4.5-7.9-2.9c-2.3,1-4.5,3.2-7.1,3.2c-1.5,0-3.6-0.2-5.6-0.4c-0.5,0.6-1,1.1-1.5,1.7c-3.9,4.1-8.7,7.3-13.3,10.4
					c-2.2,1.5-4.5,3-6.8,4.6c-1.2,0.8-2.3,1.7-2.8,3.1c-0.5,1.3-0.8,2.7-1.1,4.1c-0.3,1.4-0.5,2.7-1.1,4c-0.5,1.1-1.1,2-1.9,2.9
					c-1.6,1.9-3.6,3.3-5.6,4.8c-2,1.5-4.2,2.9-5.9,4.9c-1,1.1-1.6,2.5-2.2,3.8c-0.6,1.3-1.3,2.7-1.9,4c-4.2,8.4-8.3,16.8-12.8,25.1
					c4.2,2.3,9.6,4.7,16.4,6.8c0,0,22.6,8.2,34.2,5l-2.4-9.2l2.5-6.8l-3.8-14.5c-1.1-6.2-0.3-9.2,1.7-15.2c0.3-0.9,0.6-1.7,1-2.5
					c1.2-1.9-1.2-4.5,0.6-6.1c1.5-1.3,3.2-2.5,4.1-4.2c0.1-0.2,0.3-0.1,0.3-0.5c0-0.1-0.2-0.4-0.2-0.5c-0.8-1.8-3.2-5.7-1.1-7.7
					c1.1-1.1,3.2-1.4,4.7-1.6c0.9-0.1,2.2,0.1,2.9-0.5c2-1.7-0.7-6.9,0.6-9.2c0.2-0.3,0.5-0.7,0.9-0.8c0.4-0.2,0.9,0,1.3,0.1
					c0.3,0.1,0.5,0.2,0.8,0.3c0.2,0,0.4,0,0.7,0c0.5,0.1,2.6,1.9,3.1,1.8c2.1-0.4,1.2-4.3,3.9-3.4c1.4,0.5,2-1.3,3.1-0.3
					c0.9,0.8,1.8,1.1,2.4,2.1c0.4,0.6,0.7,1.3,1.1,1.9c0.6,1.1,2,2.7,2.1,4c0.2,1.5,0.9,2.6,0.8,4.6c0,0.5-3.5,3.6-2.1,3.2
					c0.8-0.2,3-0.3,3.4-0.8C1058.6,131.9,1059.2,129.5,1059.3,128.9z"/>
				<path class="st3" d="M1059.3,128.9c0-0.7,0.2-1.2,0.4-1.9l1-3.1c0.3-1.1-1.8-3.3-2.4-4.1c-1.7-2.4-3.1-4.6-5.4-6.6
					c-0.9-0.2-1.8-0.5-2.7-0.6c-1.5-0.2-3.1-0.1-4.5,0.5c-1.1,0.4-2.2,1-3.4,1.5c-1.1,0.5-2.3,0.8-3.5,0.9c-1.1,0-2.2,0-3.3,0
					s-2.4,0-3.4,0.6c-0.6,0.3-1.8,0.7-1.8,1.5c0,0.8-0.1,1.4-0.4,2.1c-0.2,0.5-0.4,0.9-0.5,1.4c-0.1,0.2,0,0.5-0.2,0.7
					c-0.3,0.6-1,1-1.6,1.4c-0.9,0.6-1.8,1-2.8,1.4c-2.3,0.7-4.7,0.8-6.9,1.8c-1.2,0.5-2.3,1.4-3,2.6c-0.6,1.1-0.7,2.4-0.8,3.6
					c0,2.6,0.1,5.1-1.3,7.4c-1.3,2.2-3.4,3.7-5.3,5.4c-1.1,0.9-2,1.9-3.1,2.7c-1,0.8-2,1.8-2.9,2.7c-1,1-1.8,2.2-2.4,3.5
					c-0.6,1.4-0.8,2.8-0.8,4.3c0,1.5,0.1,3,0.1,4.4c0,1.3-0.1,2.8-0.6,3.9c-0.1,0.2-0.2,0.5-0.3,0.7c0,2.5-0.4,4.8-1.8,7
					c-1.2,1.9-3.4,2.8-4.7,4.6c-0.7,0.9-0.9,2.1-1,3.2c-0.1,1.2-0.1,2.4,0,3.6c0,1.1,0.2,2.3,0,3.5c-0.1,1-0.3,1.9-0.5,2.9
					c0.7,0.2,1.4,0.5,2.2,0.7c0,0,22.6,8.2,34.2,5l-2.4-9.2l2.5-6.8l-3.8-14.5c-1.1-6.2-0.3-9.2,1.7-15.2c0.3-0.9,0.6-1.7,1-2.5
					c1.2-1.9-1.2-4.5,0.6-6.1c1.5-1.3,3.2-2.5,4.1-4.2c0.1-0.2,0.3-0.1,0.3-0.5c0-0.1-0.2-0.4-0.2-0.5c-0.8-1.8-3.2-5.7-1.1-7.7
					c1.1-1.1,3.2-1.4,4.7-1.6c0.9-0.1,2.2,0.1,2.9-0.5c2-1.7-0.7-6.9,0.6-9.2c0.2-0.3,0.5-0.7,0.9-0.8c0.4-0.2,0.9,0,1.3,0.1
					c0.3,0.1,0.5,0.2,0.8,0.3c0.2,0,0.4,0,0.7,0c0.5,0.1,2.6,1.9,3.1,1.8c2.1-0.4,1.2-4.3,3.9-3.4c1.4,0.5,2-1.3,3.1-0.3
					c0.9,0.8,1.8,1.1,2.4,2.1c0.4,0.6,0.7,1.3,1.1,1.9c0.6,1.1,2,2.7,2.1,4c0.2,1.5,0.9,2.6,0.8,4.6c0,0.5-3.5,3.6-2.1,3.2
					c0.8-0.2,3-0.3,3.4-0.8C1058.6,131.9,1059.2,129.5,1059.3,128.9z"/>
				<path class="st4" d="M1060.7,123.7c0-0.5-0.3-1.1-0.8-1.7C1060.2,122.6,1060.4,123.1,1060.7,123.7z"/>
				<path class="st4" d="M1059.7,127.1l1-3c-0.2-0.5-0.4-0.9-0.6-1.4c-0.2-0.5-0.4-0.9-0.7-1.4c-0.5-0.6-0.9-1.1-1.1-1.3
					c-0.7-1-1.4-1.9-2.1-2.8l0,0c-1.4-1-3-1.3-4.6-1.4c-1.8-0.1-3.7,0-5.5,0.5c-1.2,0.3-3,0.9-3,2.4c0,0.1-0.1,0.1-0.1,0.1
					c-1.6-0.5-3.3-1.1-5-1.1c-1,0-2,0.3-2.7,1c-0.8,0.7-1.2,1.7-1.3,2.7c0,0.7,0,1.4-0.2,2.1c-0.3,0.9-0.9,1.6-1.6,2.2
					c-1.6,1.2-3.5,1.9-5.5,2.5c-1.6,0.5-3.6,1-4.9,2.3c-0.6,0.7-1,1.5-1.1,2.4c-0.1,1.1,0.1,2,0.6,3c0.8,1.7,2.3,3.5,1.4,5.4
					c-0.5,1.1-1.3,2-2.2,2.7c-1,0.8-2.1,1.7-3.1,2.5c-1.9,1.5-4,2.9-5.8,4.5c-1.7,1.5-3.2,3.3-3.8,5.6c-0.8,2.8-0.4,5.8-0.3,8.6
					c0.2,3.1,0.5,6.1,0.8,9.2c0.1,1.4,0.2,2.9,0.5,4.3c0.3,1.4,0.6,2.7,1,4.1c0.3,1.3,0.6,2.5,0.7,3.8c0.1,1.1,0.2,2.2-0.1,3.3
					c-0.6,1.9-2.1,3.4-3.8,4.4c-1.5,1-3.2,1.7-4.9,2.2c7.6,2,17.8,3.9,24.4,2l-2.4-9.2l2.5-6.8l-3.8-14.5c-1.1-6.2-0.3-9.2,1.7-15.2
					c0.3-0.9,0.6-1.7,1-2.5c1.2-1.9-1.2-4.5,0.6-6.1c1.5-1.3,3.2-2.5,4.1-4.2c0.1-0.2,0.3-0.1,0.3-0.5c0-0.1-0.2-0.4-0.2-0.5
					c-0.8-1.8-3.2-5.7-1.1-7.7c1.1-1.1,3.2-1.4,4.7-1.6c0.9-0.1,2.2,0.1,2.9-0.5c2-1.7-0.7-6.9,0.6-9.2c0.2-0.3,0.5-0.7,0.9-0.8
					c0.4-0.2,0.9,0,1.3,0.1c0.3,0.1,0.5,0.2,0.8,0.3c0.2,0,0.4,0,0.7,0c0.5,0.1,2.6,1.9,3.1,1.8c2.1-0.4,1.2-4.3,3.9-3.4
					c1.4,0.5,2-1.3,3.1-0.3c0.9,0.8,1.8,1.1,2.4,2.1c0.4,0.6,0.7,1.3,1.1,1.9c0.6,1.1,2,2.7,2.1,4c0.2,1.5,0.9,2.6,0.8,4.6
					c0,0.5-3.5,3.6-2.1,3.2c0.8-0.2,3-0.3,3.4-0.8c0.4-0.4,1-2.8,1.1-3.5C1059.3,128.2,1059.5,127.7,1059.7,127.1z"/>
				<path class="st7" d="M1025,185.2l-1.4,3.8l2.4,9.2c-11.6,3.2-34.2-5-34.2-5c-23.7-7.7-30.1-17.4-30.1-17.4l7.7-11.1
					C969.4,164.8,983,178,1025,185.2z"/>
				<g>
					<g>
						<path class="st8" d="M972.9,181.4c-1.9-1.1-0.9-2.2-0.9-2.2l3.5-5.8c1.2-1.7,2.8-0.7,2.8-0.7l4.2,2.2c-0.1,0-0.1-0.1-0.1-0.1
							l-5.5-3c0,0-1.6-1-2.8,0.7l-3.5,5.8c0,0-1,1,0.9,2.2c0,0,1.7,1.1,3.5,2.1C973.7,182,972.9,181.4,972.9,181.4z"/>
						<path class="st8" d="M987.5,173.8l-1.3-0.7c2.5,2.2,0.1,4.9,0.1,4.9l-4.9,8.6c-1.7,2.5-4.3,1.3-4.3,1.3
							c-1.2-0.5-2.6-1.3-3.9-2c1.7,1,3.6,2,5.3,2.8c0,0,2.6,1.1,4.3-1.3l4.9-8.6C987.7,178.7,990.2,175.9,987.5,173.8z"/>
					</g>
					<path class="st9" d="M986.1,172.9l-9.2-5c0,0-2.7-1.8-4.7,1.2l-5.8,9.8c0,0-1.6,1.7,1.4,3.6c0,0,5.3,3.4,9.3,5.3
						c0,0,2.6,1.1,4.3-1.3l4.9-8.6C986.3,177.9,988.7,175.2,986.1,172.9z M982.3,177.9l-2.9,5.1c-1.1,1.5-2.5,0.8-2.5,0.8
						c-2.4-1.1-5.5-3.1-5.5-3.1c-1.9-1.1-0.9-2.2-0.9-2.2l3.5-5.8c1.2-1.7,2.8-0.7,2.8-0.7l5.5,3
						C983.8,176.2,982.3,177.9,982.3,177.9z"/>
				</g>
				<g>
					<path class="st10" d="M996.3,146c0.8,0.1,1.6,0.3,2.3,0.6c0.8,0.4,1.4,1,1.9,1.7c1.2,1.4,2.2,3,3.7,4.1
						c0.1-1.8-1.2-3.4-2.2-4.8c-1-1.4-2.2-2.9-2.3-4.6c-0.1-0.9-0.1-1.8,0-2.7c-0.3,0.8-0.8,1.6-1.4,2.3c-2,1.9-4.4,2.8-6.9,3.5
						C993,146.1,994.6,145.8,996.3,146z"/>
					<path class="st10" d="M1048.2,117.7c0.9-0.2,1.5-1.2,2.4-0.4c0.1,0.1,0.1,0.1,0.2,0.2c-0.1-0.8-0.1-1.7-0.5-2.5
						c-0.5-0.8-1.1-1.2-2-1.4c-0.7-0.1-1.3-0.2-1.9-0.3c0.6,0.4,1.2,0.9,1.7,1.3c0.3,0.3,0.7,0.6,0.8,1s0,0.9-0.2,1.2
						C1048.5,117.2,1048.4,117.5,1048.2,117.7z"/>
					<path class="st10" d="M1019.4,164.6c-0.7,0.5-1.5,0.9-2.4,1.1c-3.9,1.1-7.7-0.6-11.6-0.6c1.3,0.8,2.8,1.1,4.3,1.4
						c1.8,0.3,3.6,0.6,5.3,1c1.6,0.4,3.4,0.8,4.8,1.9c1.5,1.2,2,3.3,2.6,5.1c0.4,1.1,0.8,2.2,1.3,3.2c0.5,1.1,0.9,2.1,1.4,3.2
						c0.3,0.6,0.5,1.2,0.8,1.9l0.2-0.5l-3.8-14.5c-0.3-1.5-0.4-2.8-0.5-4c-0.2,0-0.5,0-0.7,0C1020.5,163.9,1020,164.2,1019.4,164.6z
						"/>
					<path class="st10" d="M1028.1,131.5c-0.3-0.3-0.5-0.6-0.7-0.8c-0.2-0.2-0.6,0-0.8,0c-1.6,0.4-3.2,0.9-4.8,1.3
						c-1.6,0.4-3.2,0.8-4.8,1.2c1.8,0.8,3.8,0.3,5.7,0.2c0.8-0.1,1.6-0.1,2.4,0.1c0.7,0.2,1.3,0.7,1.8,1.2c1.1,1.3,1.8,3,2.2,4.7
						c0.1,0.4,0.1,0.8,0.2,1.2c0.2-0.3,0.4-0.6,0.6-0.9c0.1-0.2,0.3-0.1,0.3-0.5c0-0.1-0.2-0.4-0.2-0.5c-0.8-1.6-2.8-5-1.6-7.1
						C1028.2,131.6,1028.2,131.6,1028.1,131.5z"/>
					<path class="st10" d="M1037.2,119.4c-0.4-0.2-0.8-0.4-1.2-0.5c-1.1-0.2-2.1,0-3.1,0.3c-1.7,0.6-3.2,1.2-5,0.7
						c0.3,0.7,0.8,1.2,1.6,1.3c0.6,0.1,1.3,0,1.9-0.1c1.1-0.2,2.4-0.4,3.5,0.1c0.7,0.3,1,1,1.2,1.8c0.2,0.6,0.4,1.2,0.9,1.7
						c-0.3-1.8-0.7-3.7,0-4.9C1037.1,119.7,1037.1,119.6,1037.2,119.4z"/>
				</g>
			</g>
		</g>
	</g>
</g>
</svg>
