<?xml version="1.0" encoding="utf-8"?>
<!-- Generator: Adobe Illustrator 26.5.0, SVG Export Plug-In . SVG Version: 6.00 Build 0)  -->
<svg version="1.1" id="Layer_1" xmlns="http://www.w3.org/2000/svg" xmlns:xlink="http://www.w3.org/1999/xlink" x="0px" y="0px"
	 viewBox="0 0 250.1 250.1" style="enable-background:new 0 0 250.1 250.1;" xml:space="preserve">
<style type="text/css">
	.st0{fill:#FA4A00;}
</style>
<path class="st0" d="M244.7,95.4c0,0-54.3-8.2-61.7,4.9c-12.9,22.6-47.2,41-68.4,48.2c3.9-4.4,7.5-10.6,6.5-18.3c0,0-2.8,5-15.9,1.3
	C92,127.8,92.3,122,92.3,122c-4.9,6-5.2,13.2-4.1,19c-14.2-17.4-33.7-51-32.7-77C56,49,5.5,27.4,5.5,27.4s8.9,7.4,9,16.5
	c0.1,10.3-8.1,15.3-8.1,15.3s21.2,3.2,26.4,18.3c5.2,15.4-9.3,35-9.3,35s18.9-3.4,33.6,18.3c14.9,22-0.2,43.5-0.2,43.5
	S70.6,184,75,201.6c3.1,12.2,2,20.1,4.2,21.1c2.1,0.9,7.2-11.1,16.7-18.5c10.9-8.5,27.8-11,27.8-11s-1.5-26.2,22.7-37.1
	c24-10.7,38.2,2.1,38.2,2.1s-2-24.3,10.5-34.6c12.3-10.2,32-1.7,32-1.7s-4.3-8.5,1.2-17.2C233.1,97,244.7,95.4,244.7,95.4z"/>
</svg>
