<?xml version="1.0" encoding="utf-8"?>
<!-- Generator: Adobe Illustrator 26.5.0, SVG Export Plug-In . SVG Version: 6.00 Build 0)  -->
<svg version="1.1" id="Layer_1" xmlns="http://www.w3.org/2000/svg" xmlns:xlink="http://www.w3.org/1999/xlink" x="0px" y="0px"
	 viewBox="0 0 250.1 250.1" style="enable-background:new 0 0 250.1 250.1;" xml:space="preserve">
<path d="M245.7,95.1c0,0-54.8-8.2-62.3,4.9c-13,22.8-47.6,41.3-69,48.7c4-4.4,7.6-10.7,6.5-18.5c0,0-2.8,5.1-16,1.3
	C91.7,127.8,92,122,92,122c-5,6.1-5.2,13.3-4.2,19.2c-14.3-17.5-34-51.5-33-77.7c0.6-15.2-50.4-37-50.4-37s9,7.5,9.1,16.7
	c0.1,10.4-8.1,15.4-8.1,15.4S26.8,61.8,32,77c5.3,15.5-9.4,35.3-9.4,35.3s19-3.4,33.9,18.5c15,22.2-0.2,43.9-0.2,43.9
	s13.8,9.8,18.3,27.7c3.1,12.3,2,20.3,4.2,21.3c2.2,1,7.3-11.2,16.9-18.7c11-8.6,28-11.1,28-11.1s-1.5-26.5,22.9-37.4
	c24.2-10.8,38.6,2.1,38.6,2.1s-2-24.5,10.6-34.9c12.5-10.2,32.3-1.7,32.3-1.7s-4.4-8.6,1.2-17.4C234.1,96.7,245.7,95.1,245.7,95.1z"
	/>
</svg>
