<?xml version="1.0" encoding="utf-8"?>
<!-- Generator: Adobe Illustrator 26.5.0, SVG Export Plug-In . SVG Version: 6.00 Build 0)  -->
<svg version="1.1" id="Layer_1" xmlns="http://www.w3.org/2000/svg" xmlns:xlink="http://www.w3.org/1999/xlink" x="0px" y="0px"
	 viewBox="0 0 250.1 250.1" style="enable-background:new 0 0 250.1 250.1;" xml:space="preserve">
<style type="text/css">
	.st0{fill:#FA4A00;}
</style>
<g>
	<path class="st0" d="M201.2,69.6c-3.6,0-6.8,0.5-9.6,1.6c-7-7.5-15.1-11.9-23.9-12c-6.7-0.1-13.2,2.4-19,6.8
		c-6.8-7.6-14.6-12-22.9-12.1c-9.1-0.1-17.6,4.8-24.9,13.5c-5.3-3.8-11.1-5.9-17.1-6c-7.7-0.1-14.9,3.1-21.4,8.8
		c-3.2-2.2-7-3.5-11.6-3.5c-25.4-0.3-46.5,34.9-47,78.6c-0.5,43.7,19.7,79.4,45.1,79.7c3.3,0,6.3-0.5,8.9-1.6
		c7,7.5,15.1,11.9,23.9,12c5.6,0.1,11.1-1.7,16.2-4.8c7.4,9.7,16.2,15.4,25.7,15.5c10.3,0.1,19.8-6.2,27.8-17.1
		c4.5,2.7,9.4,4.1,14.4,4.2c7.9,0.1,15.3-3.3,21.9-9.2c3.3,2.5,7.1,4,11.7,4c25.4,0.3,46.5-34.9,47-78.6
		C246.9,105.6,226.7,69.9,201.2,69.6z"/>
	<path class="st0" d="M116.2,61.8c0.1-0.2-0.1,0.3,0.1-0.1c0.2-0.2,0.5-0.8,0.8-1.6c0.7-1.6,1.5-4.3,1.6-7.8c0-0.9,0-1.8-0.1-2.8
		c0-0.5-0.1-1-0.2-1.5c-0.1-0.6-0.2-1.3-0.2-2c-0.4-3.2-0.6-6.6-0.4-10c0.1-3.5,0.6-7.1,1.6-10.8c1-3.7,2.4-7.4,4.7-10.8
		c2.3-3.4,5.6-6.6,9.6-8.4c4-1.8,8.5-2.1,12-1.4c4.3,0.8,7.4,2.8,10,5.2c2.5,2.4,4.1,5.2,5,8.1c0.9,2.8,1,5.7,0.4,8
		c-0.5,2.4-1.6,4.3-2.7,5.5c-1,1.3-2.1,2.1-2.7,2.6c-0.7,0.5-1.1,0.7-1.1,0.7l-2.3-3.1c0,0,0.2-0.2,0.7-0.7c0.4-0.5,1-1.2,1.6-2.2
		c0.5-1,0.9-2.2,1-3.7c0-1.4-0.4-3.1-1.2-4.7c-0.9-1.6-2.2-3.1-4-4.2c-0.9-0.6-1.8-1-2.7-1.3c-0.5-0.1-1-0.3-1.5-0.3
		c-0.5-0.1-1-0.1-1.3-0.1c-4.7,0.1-7.5,2.4-9.3,6.6c-1.7,4.2-1.9,9.5-1.2,14.4c0.3,2.5,0.9,4.8,1.6,7l0.3,1l0,0.1c0,0,0,0.2,0-0.1
		l0,0.1l0.1,0.3l0.1,0.6c0.2,0.8,0.4,1.6,0.6,2.3c0.3,1.6,0.6,3.1,0.7,4.6c0.7,6,0,11.2-0.9,14.9c-0.5,1.9-1,3.3-1.4,4.4
		c-0.4,1-1.1,2.2-0.9,1.9L116.2,61.8z"/>
	<g>
		<g>
			<g>
				<path d="M114.1,121.8c-24.4-1.8-43-7-64.5-19.1C49.5,102.7,76.2,162.6,114.1,121.8z"/>
				<path d="M136.7,122c24.5-1.2,43.2-6,65-17.6C201.6,104.4,173.6,163.7,136.7,122z"/>
			</g>
			<polygon points="139.2,160.7 125.3,131.9 110.6,160.4 			"/>
		</g>
		<path d="M202.5,148.7c-6.7,13.8-13.2,27.3-19.5,40.4c-3.6-1.3-7.4-2.8-11.2-4.6c-3.9,5.8-7.8,11.3-11.5,16.7
			c-3.2-2.6-6.4-5.3-9.7-8.3c-4.4,5.1-8.8,10-13,14.6c-4.3-3.5-8.6-7.3-13.1-11.5c-4.6,4.1-9,7.8-13.4,11.2
			c-4.1-4.7-8.3-9.6-12.6-14.9c-3.4,2.9-6.7,5.6-9.9,8.1c-3.6-5.5-7.3-11.1-11.1-17c-3.9,1.7-7.6,3.2-11.3,4.4
			c-6-13.2-12.2-26.8-18.5-40.8c5.7,8.6,11.4,16.8,17,24.5c3.8-1.2,7.6-2.6,11.6-4.4c3.9,5.9,7.7,11.5,11.4,17
			c3.3-2.5,6.7-5.2,10.2-8.1c4.4,5.2,8.7,10.2,13,14.8c4.5-3.4,9.1-7.1,13.7-11.2c4.6,4.2,9.1,8,13.5,11.5
			c4.4-4.6,8.8-9.4,13.4-14.5c3.4,3,6.8,5.8,10,8.3c3.9-5.4,7.8-10.9,11.8-16.7c3.9,1.8,7.7,3.4,11.5,4.7
			C190.6,165.2,196.5,157.2,202.5,148.7z"/>
	</g>
</g>
</svg>
