<?xml version="1.0" encoding="utf-8"?>
<!-- Generator: Adobe Illustrator 26.5.0, SVG Export Plug-In . SVG Version: 6.00 Build 0)  -->
<svg version="1.1" id="Layer_1" xmlns="http://www.w3.org/2000/svg" xmlns:xlink="http://www.w3.org/1999/xlink" x="0px" y="0px"
	 viewBox="0 0 250.1 250.1" style="enable-background:new 0 0 250.1 250.1;" xml:space="preserve">
<style type="text/css">
	.st0{fill:#111822;}
	.st1{fill:#0F151E;}
	.st2{fill:#B55827;}
	.st3{fill:#A34C24;}
	.st4{fill:#964121;}
	.st5{fill:#7C3318;}
	.st6{fill:#B68147;}
	.st7{fill:#8F3E1F;}
	.st8{fill:#CC5F28;}
	.st9{fill:url(#SVGID_1_);}
	.st10{fill:url(#SVGID_00000119814614090201856710000016319469884762553482_);}
	.st11{fill:url(#SVGID_00000094600399624434285290000016928010216224692910_);}
	.st12{fill:#BE5327;}
	.st13{fill:url(#SVGID_00000105411297148280363550000007403712382363257229_);}
	.st14{opacity:0.3;}
	.st15{fill:#202C3E;}
	.st16{fill:#172131;}
	.st17{fill:#90382A;}
	.st18{fill:#621C15;}
	.st19{opacity:0.2;}
	.st20{fill:#A7772B;}
	.st21{fill:#A46327;}
	.st22{fill:#1D2938;}
</style>
<g>
	<g>
		<path class="st0" d="M218.8,180.4l-17.9-6.1l7.9,8.2c-2.4,0.4-4.9,0.8-7.3,1.2l-10.8-11l4.2,11.9c-5.4,0.7-10.8,1.2-16.2,1.6
			l-2.3-15.1l-1.1,15.3c-21.1,1.3-42.5,1.1-63.2,1.6c-13,0.3-26.2,1-39-1.7c-6.3-1.4-12.3-3.5-18.4-5.7c-3-1.1-5.9-2.1-8.9-3.3
			l2.3-6.4l-4.6,5.5c-1.9-0.7-3.7-1.5-5.6-2.3l3.9-9.9l-6.7,8.7c-2.1-1-4.2-2.1-6.2-3.2c-1.8-1-3.4-2.1-5-3.3l8.1-13.2l-13.2,9
			c-4.3-3.8-8.3-8-12.9-11.9c2.7-2.1,5.6-3.8,8.6-5.3c5.2-2.6,10.9-4.5,16.7-5.8c3.8-3.5,8.5-6.2,13-8.7c2.7-1.5,5.5-2.8,8.4-3.8
			c1.1-0.5,2.3-0.9,3.5-1.2c0.3-0.1,0.7-0.1,0.9,0c1.5-0.3,3.1-0.6,4.6-0.7c0.7,0,1.2,0.2,1.6,0.5c4.8-1.7,9.6-3.2,14.5-4.4
			c1.3-0.3,2.5-0.6,3.8-0.9c0.2-0.1,0.3-0.2,0.5-0.3c0.4-0.2,0.9-0.2,1.3-0.1c10.3-2,20.8-2.5,31.3-2.1c6.2,0.2,12.4,0.5,18.5,1
			c6.5,0.5,13,1.4,19.2,3.2c5.7,1.7,11.3,4,16.8,6.4c5.6,2.5,11.2,5.2,16.2,8.7c4.7,3.2,8.9,6.9,12.8,10.9c7.5,4,14.6,8.7,21.1,14.1
			c0.6,0.5,1.1,1.1,1.3,1.8c5.5,2.5,11,4.8,16.7,6.7c2.3,0.8,4.5,1.5,6.8,2.2C235.9,175.8,227.5,178.4,218.8,180.4z"/>
		<path class="st1" d="M237.3,170.1c-2.4,0.4-4.8,0.4-7.2,0.4c-17.5-0.5-34.6-5-51.7-8.9c-43.3-9.9-87.6-15.6-132-17
			c-6.4-0.2-10.6,7.5-17.1,7.7c-4.2,0.1-16.6-4.2-20.8-3.9c5.2-2.6,16.8-7.9,22.6-9.2c3.8-3.5,8.5-6.2,13-8.7
			c2.7-1.5,5.5-2.8,8.4-3.8c1.1-0.5,2.3-0.9,3.5-1.2c0.3-0.1,0.7-0.1,0.9,0c1.5-0.3,3.1-0.6,4.6-0.7c0.7,0,1.2,0.2,1.6,0.5
			c4.8-1.7,9.6-3.2,14.5-4.4c1.3-0.3,2.5-0.6,3.8-0.9c0.2-0.1,0.3-0.2,0.5-0.3c0.4-0.2,0.9-0.2,1.3-0.1c10.3-2,20.8-2.5,31.3-2.1
			c6.2,0.2,12.4,0.5,18.5,1c6.5,0.5,13,1.4,19.2,3.2c5.7,1.7,11.3,4,16.8,6.4c5.6,2.5,11.2,5.2,16.2,8.7c4.7,3.2,8.9,6.9,12.8,10.9
			c7.5,4,14.6,8.7,21.1,14.1c0.6,0.5,1.1,1.1,1.3,1.8C226.1,165.9,231.7,168.2,237.3,170.1z"/>
	</g>
	<g>
		<g>
			<g>
				<g>
					<path class="st2" d="M145,124.6l-55.5-2.1c-4,3.4-7.4,7.3-7.7,12.7c-0.2,4.9,2.2,9.9,6.5,13c4.1,3,9.5,4.1,14.8,4.5
						c7.7,0.6,15.6-0.3,22.7-2.9c6.9-2.6,13.6-7,17.3-12.8c0.5-0.8,1-1.7,1.4-2.6C146,130.8,146.1,127.5,145,124.6z"/>
				</g>
				<g>
					<g>
						<path class="st3" d="M144.3,124.5c1.2,3,1.1,6.3-0.4,9.5c-0.4,0.8-0.8,1.7-1.3,2.5c-3.3,5.2-9.5,9.8-17,12.6
							c-6.7,2.5-14.4,3.5-22.5,2.9c-6.3-0.5-11-1.9-14.5-4.4c-4.1-3-6.5-7.7-6.2-12.4c0.3-5.4,3.8-9.3,8-12.7l-1.8-0.1
							c-3.9,3.4-7.1,7.3-7.4,12.7c-0.2,5.1,2.3,10.3,6.8,13.5c3.6,2.6,8.6,4.1,15.1,4.6c0.8,0.1,1.6,0.1,2.3,0.1
							c7.4,0.3,14.5-0.8,20.7-3.1c4.6-1.7,12.9-5.7,17.6-13.1v0c0.5-0.9,1-1.8,1.4-2.6c1.5-3.4,1.7-6.8,0.6-10L144.3,124.5z"/>
					</g>
				</g>
				<g>
					<path class="st2" d="M82.2,122.2c-4,0.9-8.1,1.8-12.1,2.7l51,2c-0.5-1.1-1-2.2-1.7-3.2L82.2,122.2z"/>
				</g>
				<g>
					<path class="st4" d="M82.2,122.2c-4,0.9-8,1.8-11.9,2.6c0,0,0,0,0,0.1l43,1.6c-0.6-1.1-1.1-2.2-1.8-3.2L82.2,122.2z"/>
				</g>
				<g>
					<path class="st5" d="M112.7,123.3l-30.5-1.2c-1.9,0.4-3.7,0.8-5.6,1.2c-1.2,1.5-2.2,3.2-3,5l43.1,1.6c-1.1-2.2-2.3-4.3-3.7-6.3
						C112.9,123.6,112.8,123.5,112.7,123.3z"/>
				</g>
				<g>
					<path class="st2" d="M160.4,125.7c-0.5-0.2-0.9-0.4-1.4-0.6l-39.6-1.5c-0.2,0.7-0.3,1.4-0.4,2.2c-0.1,0.7-0.2,1.5,0,2.1
						c0.6,2,3,2.3,4.9,2.3c5.3,0,10.5,0.6,15.7,1.6c4.8,0.9,9.5,2.3,14.4,2.4c3.1,0.1,6.3-0.4,9.1-1.8c1.5-0.7,3-1.7,4.2-3
						C164.9,128,162.7,126.7,160.4,125.7z"/>
				</g>
				<g>
					<path class="st4" d="M160.4,125.7c-0.5-0.2-0.9-0.4-1.4-0.6l-39.6-1.5c-0.2,0.7-0.3,1.4-0.4,2.2c-0.1,0.7-0.2,1.5,0,2.1
						c0.6,2,3,2.3,4.9,2.3c5.3,0,10.5,0.6,15.7,1.6c4.8,0.9,9.5,2.3,14.4,2.4c3.1,0.1,6.3-0.4,9.1-1.8c0.1-0.7,0.2-1.4,0.2-2.1
						c0.1-1,0.1-2.1,0-3.1C162.3,126.6,161.3,126.1,160.4,125.7z"/>
				</g>
				<g>
					<g>
						<path class="st3" d="M120.1,123.6l-1.5-0.1c3.4,5.5,4.7,12.6,5.8,18.6c0.6,3.1-1,5.4-2.8,8.1c-0.3,0.4-0.6,0.9-0.8,1.3
							c-1.6,2.5-3.1,4.8-5.2,6.5c-2.4,1.9-5.3,2.8-7.7,3.3c-7.8,1.9-15.6,1.8-22.3-0.3c-7.5-2.4-13.7-7.2-17.5-13.5
							c-1.6-2.6-2.6-5.2-2.9-7.7c-0.5-3.5,0.1-7.5,1.8-11.5c0.4-1,0.9-2.1,1.4-3.1c-0.5,0.1-1,0.2-1.6,0.3c-0.4,0.8-0.7,1.6-1,2.3
							c-1.8,4.3-2.5,8.5-1.9,12.2c0.4,2.7,1.4,5.4,3.1,8.2c4,6.6,10.5,11.7,18.2,14.1c3.2,1,6.6,1.6,10.1,1.7
							c4.2,0.2,8.5-0.3,12.9-1.4c2.5-0.6,5.6-1.6,8.2-3.6c2.2-1.8,3.9-4.3,5.5-6.8c0.3-0.4,0.5-0.9,0.8-1.3c1.9-2.8,3.6-5.5,2.9-9.1
							C124.6,136.1,123.4,129.2,120.1,123.6z"/>
					</g>
				</g>
				<g>
					<g>
						<path class="st3" d="M166.5,128.9c-2.9,3-7.3,4.6-12.6,4.5c-3.6-0.1-7.2-0.8-10.7-1.6c-1.2-0.2-2.4-0.5-3.5-0.7
							c-4.4-0.8-8.8-1.4-13.2-1.5c-0.9,0-1.7-0.1-2.6-0.1c-2.5,0-3.9-0.6-4.3-1.8c-0.2-0.5-0.1-1.2,0-1.8c0.1-0.7,0.3-1.5,0.5-2.2
							l-1.3,0c-0.2,0.7-0.3,1.4-0.4,2.1c-0.1,0.8-0.2,1.6,0,2.4c0.8,2.7,4.3,2.7,5.5,2.7c5.2,0,10.5,0.6,15.6,1.6
							c1.2,0.2,2.4,0.5,3.5,0.7c3.4,0.7,6.9,1.5,10.4,1.6c0.2,0,0.3,0,0.5,0c5.7,0.1,10.6-1.7,13.7-5c0,0,0.1-0.1,0.1-0.1
							C167.3,129.4,166.9,129.1,166.5,128.9z"/>
					</g>
				</g>
				<g>
					<path class="st2" d="M82.2,122.2c-5.9,1.3-11.8,2.6-17.7,3.9c-5.1,1.1-10.2,2-15.3,2.9c-1.9,0.4-3.9,0.7-5.8,1.2
						c-5,6.3-8.8,14-10.6,22.1c-0.3,1.6-0.6,3.1-0.8,4.7c-0.4,2.9-0.5,5.8-0.5,8.7c0.1,5.2,0.9,10.5,2.9,15.1
						c2.1,4.7,5.5,8.6,9.9,10.5c0.4,0.1,0.7,0.3,1.1,0.4c3.2,1.1,7.4,1.4,10.7,0.7c3.6-0.8,7.1-2.4,10.5-4.1c8.6-4.2,17-9.1,24-15.9
						c5.7-5.5,10.3-12.2,14.5-19c4.2-6.9,7.4-14.1,10.7-21.4c-3.8-3-7.6-6-11.5-9L82.2,122.2z"/>
				</g>
				<g>
					<path class="st3" d="M45.5,191.6c-0.4-0.1-0.8-0.3-1.1-0.4c-4.4-1.8-7.8-5.8-9.9-10.5c-2-4.6-2.8-9.9-2.9-15.1
						c-0.1-2.9,0.1-5.8,0.5-8.7c-0.2,1.2,0.2,2.7,0.3,3.9c0.1,1.4,0.3,2.7,0.6,4.1c0.3,1.3,0.6,2.6,1.1,3.8c0.4,1.1,1,2.5,1.8,3.4
						c0.2-1.6,0.1-3.3,0.3-4.9c0.2-1.7,0.5-3.4,0.8-5.1c0.6-3,1.5-6,2.7-8.8c0.6-1.4,1.4-2.8,2.2-4.1c1.2-2.1,2.5-4,4.3-5.5
						c-0.2,0.2-0.3,0.8-0.4,1c-0.2,0.4-0.3,0.8-0.4,1.2c-0.3,0.8-0.5,1.6-0.6,2.4c-0.3,1.6-0.5,3.3-0.5,5c0,3.4,0.4,6.8,0.4,10.3
						c0,0.7,0,1.5-0.1,2.2C44,174.4,43.8,183.3,45.5,191.6z"/>
				</g>
				<g>
					<g>
						<path class="st3" d="M105.4,123l-2.2-0.1c3.9,3,7.9,6.1,11.8,9.2l-0.2,0.5c-3.2,7-6.2,13.7-10.2,20.3
							c-5,8.3-9.5,14.1-14.3,18.8c-7.5,7.3-16.7,12.2-23.8,15.8c-3.1,1.5-6.7,3.2-10.4,4c-0.4,0.1-0.8,0.2-1.2,0.2
							c-0.1,0-0.3,0-0.4,0.1c-0.8,0.1-1.6,0.1-2.5,0.1c-0.3,0-0.6,0-0.9,0c-2.3-0.1-4.6-0.6-6.4-1.4c-0.8-0.3-1.6-0.8-2.4-1.2
							c-0.6-0.4-1.2-0.8-1.7-1.3c-0.6-0.5-1.1-1-1.6-1.5l-0.1-0.2c-1.5-1.7-2.8-3.7-3.8-5.9c-1.8-4.1-2.8-9.1-2.9-14.9
							c-0.1-4.5,0.3-9,1.3-13.2c1.8-8.2,5.6-16,10.9-22.4c-0.7,0.1-1.3,0.3-2,0.5c-4.9,6.4-8.5,13.9-10.2,21.8
							c-1,4.3-1.4,8.9-1.3,13.5c0.1,6,1.1,11.2,3,15.4c1,2.4,2.4,4.5,4,6.3l0.1,0.1c0.5,0.6,1.1,1.1,1.7,1.6c0.6,0.5,1.2,1,1.8,1.4
							c0.8,0.5,1.7,1,2.6,1.3c1.9,0.8,4.4,1.3,6.8,1.5c0.2,0,0.4,0,0.6,0c0.1,0,0.3,0,0.4,0c0.9,0,1.8,0,2.7-0.1
							c0.2,0,0.3,0,0.5-0.1c0.4-0.1,0.8-0.1,1.3-0.2c3.8-0.9,7.5-2.6,10.7-4.2c7.3-3.6,16.6-8.7,24.2-16.1c5-4.8,9.5-10.7,14.6-19.1
							c4-6.7,7.1-13.4,10.3-20.5l0.7-1.4l-0.4-0.3C112.6,128.6,109,125.8,105.4,123z"/>
					</g>
				</g>
				<g>
					<path class="st2" d="M197.4,144.2c-7.2-3.4-14.4-6.8-21.5-10.3c-2.7-1.3-5.4-2.7-8-4.2c-2.5-1.4-4.9-2.9-7.5-4
						c-0.5-0.2-0.9-0.4-1.4-0.6l-26.5-1c-4,2.6-8.1,5.3-12.1,8.1c2.7,7.5,5.3,14.9,9,22.1c3.6,7.1,7.7,14.1,13,20
						c6.5,7.3,14.5,12.8,22.7,17.7c3.3,1.9,6.6,3.8,10.2,4.9c3.6,1.1,8.4,0.9,11.9-0.2c4.5-1.5,8.3-5.2,10.7-9.7
						c2.4-4.5,3.6-9.7,4.1-14.9c0.4-4.5,0.4-9-0.3-13.4C200.9,153.7,199.4,148.8,197.4,144.2z"/>
				</g>
				<g>
					<path class="st3" d="M185.4,138.5c-3.2-1.5-6.4-3.1-9.6-4.6c-2.7-1.3-5.4-2.7-8-4.2c-2.5-1.4-4.9-2.9-7.5-4
						c-0.5-0.2-0.9-0.4-1.4-0.6l-7.4-0.3c6,4.8,11.5,10.2,16.5,16.4c4.6,5.8,8.5,12.1,11.9,18.9c3.5,6.9,6.2,14.3,8.1,22
						c1.4-1.2,2.7-2.8,3.6-4.5c1.7-3,2.5-6.6,2.9-10.2c0.3-3.1,0.3-6.2-0.1-9.3C193.5,150.9,190.2,143.9,185.4,138.5z"/>
				</g>
				<g>
					<path class="st3" d="M82.2,122.2c-5.9,1.3-11.8,2.6-17.7,3.9c-3.1,0.7-6.1,1.2-9.2,1.8c-5.4,6.6-9.1,15.2-10,23.3
						c-0.7,6.1,0.1,12.9,4.4,16.9c2.8,2.6,6.7,3.6,10.5,3.3c3.8-0.3,7.5-1.7,10.9-3.6c5.4-3,10.2-7.3,13.9-12.4
						c4.1-5.6,6.9-12.1,8-18.8c0.8-4.8,0.5-10.2-1.8-14.1L82.2,122.2z"/>
				</g>
				<g>
					<path class="st3" d="M198.2,144.6c-0.6-0.3-1.2-0.5-1.7-0.8c2.2,4.8,3.7,9.9,4.5,15c0.6,4.3,0.7,8.7,0.3,13.3
						c-0.5,5.8-1.9,10.7-4,14.6c-2.5,4.7-6.2,8-10.3,9.4c-3.5,1.1-8.2,1.2-11.5,0.2c-3.6-1.1-7.1-3.1-10-4.8
						c-6.9-4.1-15.6-9.7-22.6-17.6c-4.5-5.1-8.5-11.2-12.9-19.9c-3.5-6.9-6-13.8-8.6-21l-0.2-0.5c4.1-2.8,8.3-5.6,12.4-8.3l-2.2-0.1
						c-3.8,2.5-7.6,5-11.4,7.6l-0.4,0.3l0.5,1.5c2.6,7.3,5.1,14.2,8.7,21.2c4.4,8.8,8.5,15,13.1,20.2c7,8,15.9,13.7,22.9,17.9
						c3,1.8,6.6,3.8,10.3,5c1.4,0.4,3.1,0.7,4.7,0.7c2.6,0.1,5.2-0.2,7.5-1c4.4-1.4,8.4-5,11-10c2.2-4.1,3.6-9.2,4.1-15.1
						c0.4-4.6,0.3-9.2-0.3-13.6C201.5,153.8,200.2,149.1,198.2,144.6z"/>
				</g>
				<g>
					<path class="st2" d="M117.9,128.4c-2.2-1.9-5.2-2.1-7.7-3.3c-1.3-0.6-2.6-1.3-3.8-2l-24.3-0.9c-5.9,1.3-11.8,2.6-17.7,3.9
						c-1.4,0.3-2.8,0.6-4.2,0.9c-8.8,7.6-16.3,18.1-19.8,29.9c-0.4,1.4-0.8,2.9-1.1,4.4c-0.4,2.1-0.8,4.3-1,6.5
						c-1.2,10.4-0.2,21.3,4.5,29.7c5.2,9.4,14.8,13.1,24.8,12.8c0.3,0,0.6,0,0.9,0c3-0.2,6.1-0.7,9.1-1.5c14-4,29.7-17.1,35.7-32.4
						c3.3-8.4,4.1-17.4,4.8-25.7c0.3-3.9,0.6-7.7,1-11.4c0.4-2.9,1.3-6.4,0-9.1C118.9,129.4,118.5,128.9,117.9,128.4z"/>
				</g>
				<g>
					<path class="st3" d="M60.4,184.8c1.1,8.7,3.6,17.3,7.1,25.4c-10,0.3-19.6-3.4-24.8-12.8c-4.7-8.3-5.6-19.3-4.5-29.7
						c0.2-2.2,0.6-4.4,1-6.5c0.3-1.5,0.7-2.9,1.1-4.4c-1.8,12.2,0.4,25.1,6.2,35.8c0.7-12.1,6.2-29.7,14.4-38
						C58.7,162.2,59.4,176.8,60.4,184.8z"/>
				</g>
				<g>
					<path class="st2" d="M181.4,136.6c-1.9-0.9-3.7-1.8-5.6-2.7c-2.7-1.3-5.4-2.7-8-4.2c-2.5-1.4-4.9-2.9-7.5-4
						c-0.5-0.2-0.9-0.4-1.4-0.6l-33.8-1.3c-0.8,0.4-1.6,0.7-2.4,1.1c-2.7,1.1-5.8,1.2-8.2,3c-0.6,0.4-1,0.9-1.3,1.5
						c-1.6,2.7-0.8,6.3-0.6,9.3c0.2,3.8,0.2,7.7,0.3,11.7c0.1,8.5,0.4,17.8,3.3,26.5c5.3,15.9,20.7,30.1,35.1,34.8
						c2.5,0.8,5.1,1.4,7.7,1.7c11.2,1.5,22.7-1.6,29.2-11.7c4.4-6.8,6.3-15.4,6.6-24.1c0.1-4.2-0.1-8.5-0.7-12.6
						C192.6,154.4,187.8,144.7,181.4,136.6z"/>
				</g>
				<g>
					<path class="st3" d="M194.8,177.5c-0.3,8.7-2.2,17.3-6.6,24.1c-6.5,10.1-18,13.2-29.2,11.7c3.7-2.5,7.7-4.6,11.7-6.1
						c9.2-3.5,16.2-11.5,20.5-20.6C192.7,183.6,193.8,180.6,194.8,177.5z"/>
				</g>
				<g>
					<path class="st3" d="M119.8,129.8c-0.2-0.6-0.6-1.2-1.1-1.7c-1-0.9-2.1-1.5-3.2-1.9c-1.1-0.4-2.3-0.8-3.3-1.1
						c-0.5-0.2-1.1-0.4-1.6-0.6c-0.5-0.2-1-0.5-1.5-0.8c-0.3-0.2-0.7-0.4-1-0.5l-2.7-0.1c1,0.6,2,1.2,3.1,1.8
						c0.5,0.3,1.1,0.5,1.6,0.8c0.6,0.3,1.1,0.5,1.7,0.7c1.1,0.4,2.3,0.7,3.3,1.1c1,0.4,2,0.9,2.8,1.7c0.4,0.4,0.7,0.8,0.9,1.3
						c0.2,0.5,0.4,1,0.4,1.6c0.2,1.1,0.1,2.3-0.1,3.4c-0.1,1.2-0.4,2.4-0.5,3.6c-0.3,2.4-0.5,4.9-0.6,7.3c-0.3,4.9-0.6,9.9-1.3,14.9
						c-0.6,5-1.6,10.1-3.4,14.9c2-4.7,3.2-9.8,4-14.8c0.8-5,1.2-10,1.6-14.9c0.2-2.4,0.5-4.9,0.8-7.3c0.3-2.3,1-4.8,0.6-7.4
						C120.2,131.1,120.1,130.4,119.8,129.8z"/>
					<path class="st3" d="M60,127c-0.5,0.4-0.9,0.9-1.4,1.3c0.5-0.5,1.1-0.9,1.6-1.3C60.1,126.9,60.1,127,60,127z"/>
				</g>
				<g>
					<path class="st3" d="M113.2,176.1c-0.6,1.5-1.2,2.9-1.9,4.3c-0.7,1.4-1.5,2.8-2.3,4.1c-0.8,1.3-1.7,2.6-2.7,3.9
						c-1,1.3-2,2.5-3,3.7c-4.2,4.8-9.2,8.9-14.6,12.1c-1.4,0.8-2.8,1.6-4.2,2.3c-1.4,0.7-2.9,1.3-4.4,1.8c-3,1.1-6.1,1.8-9.2,2.2
						c-3,0.4-6,0.4-9,0c-0.1,0-0.2,0-0.4,0c-0.1,0-0.2,0-0.3,0c-0.4-0.1-0.8-0.1-1.1-0.2c-2.6-0.5-5.1-1.3-7.4-2.4
						c-2.8-1.4-5.3-3.3-7.4-5.7c-1-1.2-2-2.5-2.8-3.8c-0.8-1.4-1.5-2.8-2.1-4.3c-0.9-2.2-1.6-4.6-2.1-6.9c-0.1-0.4-0.2-0.9-0.2-1.3
						c-0.1-0.3-0.1-0.7-0.2-1c-0.5-3.1-0.7-6.3-0.6-9.5c0-3.2,0.3-6.3,0.8-9.5l0.4-2.3l0.5-2.3c0.3-1.5,0.7-3.1,1.2-4.5
						c0.5-1.5,1-3,1.6-4.4c0.6-1.4,1.2-2.8,1.9-4.2c0.7-1.4,1.4-2.7,2.2-4c0.8-1.3,1.6-2.6,2.5-3.8c-0.8,1.3-1.6,2.6-2.4,3.9
						c-0.8,1.3-1.4,2.7-2.1,4.1c-0.7,1.4-1.2,2.8-1.8,4.2c-0.5,1.4-1,2.9-1.4,4.4c-0.4,1.5-0.8,3-1.1,4.5l-0.4,2.3l-0.3,2.3
						c-0.4,3.1-0.6,6.2-0.6,9.3c0,1.3,0.1,2.5,0.1,3.8c0.1,1.8,0.3,3.7,0.6,5.5c0.2,1.4,0.5,2.8,0.9,4.2c0.4,1.6,1,3.2,1.6,4.7
						c0.6,1.4,1.3,2.8,2,4.1c0.8,1.3,1.7,2.5,2.7,3.6c2,2.2,4.4,4,7,5.3c1.9,0.9,3.9,1.6,5.9,2.1c0.3,0.1,0.7,0.2,1,0.2
						c0,0,0,0,0.1,0c0.5,0.1,1,0.2,1.5,0.2c3,0.4,6,0.4,9,0.1c3-0.3,6-1,8.9-2c2.9-1,5.7-2.3,8.4-3.9c1.4-0.8,2.7-1.6,4-2.5
						c1.3-0.9,2.5-1.8,3.8-2.8c1.2-1,2.4-2,3.6-3c1.2-1.1,2.3-2.2,3.3-3.3C107.1,187.1,110.8,181.9,113.2,176.1z"/>
				</g>
				<g>
					<path class="st3" d="M192.3,156.7c0.8,2.7,1.4,5.5,1.7,8.3c0.4,2.8,0.6,5.7,0.6,8.5c0,2.9-0.1,5.7-0.4,8.6
						c-0.3,2.9-0.8,5.7-1.6,8.4c-0.8,2.8-1.8,5.4-3.1,7.9c-0.2,0.3-0.3,0.6-0.5,0.9l-0.4,0.7l-0.1,0.2l-0.5,0.9l-0.6,0.9
						c-0.8,1.1-1.7,2.2-2.7,3.2c-2,1.9-4.2,3.6-6.7,4.8c-1.2,0.6-2.5,1.1-3.8,1.5c-1.3,0.4-2.6,0.7-4,0.9c-0.8,0.1-1.6,0.2-2.4,0.3
						c-0.6,0.1-1.1,0.1-1.7,0.1c-1.4,0.1-2.8,0-4.1-0.1c-1.4-0.1-2.8-0.3-4.1-0.5c-1.4-0.2-2.7-0.5-4.1-0.9
						c-5.4-1.4-10.5-4-15.1-7.3c-2.3-1.6-4.5-3.4-6.6-5.4c-2.1-1.9-4.1-4-5.9-6.2c-1.8-2.2-3.5-4.5-4.9-7c-1.5-2.4-2.7-5-3.7-7.6
						c-1-2.6-1.7-5.4-2.3-8.1c-0.5-2.8-0.9-5.5-1.1-8.3c-0.5-5.5-0.5-11.1-0.6-16.6c0-1.4-0.1-2.7-0.1-4.1c0-0.7-0.1-1.4-0.1-2
						c0-0.7-0.1-1.4-0.2-2c-0.1-1.3-0.3-2.7-0.2-3.9c0-0.6,0.1-1.3,0.3-1.9c0.2-0.6,0.4-1.2,0.7-1.7c0.3-0.5,0.7-0.9,1.2-1.2
						c0.5-0.4,1-0.6,1.6-0.9c1.2-0.5,2.4-0.8,3.7-1.1c0.6-0.2,1.3-0.3,1.9-0.6c0.6-0.2,1.2-0.5,1.8-0.7c0.7-0.3,1.3-0.6,2-0.9
						l-2.2-0.1c-0.1,0-0.1,0-0.2,0.1c-0.6,0.3-1.2,0.5-1.8,0.7c-0.6,0.2-1.2,0.4-1.8,0.5c-1.3,0.3-2.5,0.6-3.8,1.1
						c-0.6,0.3-1.3,0.6-1.8,1c-0.6,0.4-1.1,0.9-1.5,1.5c-0.4,0.6-0.7,1.3-0.9,2c-0.2,0.7-0.3,1.4-0.3,2.1c-0.1,1.4,0.1,2.8,0.2,4.1
						c0.1,0.7,0.1,1.3,0.2,2c0,0.7,0.1,1.3,0.1,2c0,1.4,0.1,2.7,0.1,4.1c0.1,5.5,0.1,11.1,0.5,16.7c0.2,2.8,0.6,5.7,1.1,8.5
						c0.6,2.8,1.3,5.6,2.3,8.4c1,2.7,2.3,5.4,3.8,7.9c1.5,2.5,3.2,4.9,5.1,7.1c1.9,2.3,3.9,4.4,6,6.3c2.2,2,4.4,3.8,6.8,5.4
						c1.2,0.8,2.4,1.6,3.7,2.3c1.3,0.7,2.5,1.4,3.8,2c2.6,1.3,5.3,2.3,8.1,3c2.9,0.8,5.8,1.2,8.7,1.4c2.7,0.1,5.5,0,8.1-0.5
						c1.4-0.3,2.8-0.6,4.1-1c1.3-0.4,2.6-1,3.9-1.6c2.5-1.3,4.8-3,6.9-5c0.2-0.2,0.5-0.5,0.7-0.8c0.7-0.8,1.4-1.7,2-2.6l0.6-0.9
						l0.5-0.9l0.5-0.9c0.2-0.3,0.3-0.6,0.5-1c1.3-2.6,2.3-5.3,3.1-8.1c0.7-2.8,1.2-5.7,1.5-8.6c0.3-2.9,0.4-5.8,0.3-8.6
						C194.8,167.9,194,162.1,192.3,156.7z"/>
				</g>
				<g>
					<path class="st2" d="M159.3,125.2c-0.1-0.1-0.2-0.1-0.4-0.2l-36.8-1.4c-1.4,0.6-3.1,1.2-4,2.6c-0.3-0.2-0.7-0.3-0.9-0.5
						c-1.3-0.8-2.6-1.7-4-2.4l-26.6-1c-0.6,0.2-1.1,0.4-1.7,0.6c-6.7,2.5-12.5,9.3-16.9,16.5c-8.2,13.4-15.8,31.5-13.9,49.4
						c0.1,0.9,0.2,1.7,0.3,2.5c2.2,15,9.9,28.3,21,33.6c0.7,0.3,1.4,0.6,2.1,0.9c5.1,1.9,10.6,2.6,16.1,2.2c4.4-0.3,8.7-1.3,13-2.9
						c3.4-1.3,6.8-3,10-4.9c0.8-0.5,1.4-0.9,1.9-1.5c2.6,1.8,5.3,3.3,8.1,4.7c3.6,1.7,7.3,2.9,11.1,3.6c6,1.1,12,0.9,17.7-0.7
						c0.7-0.2,1.5-0.5,2.2-0.7c3.9-1.5,7.5-4.1,10.7-7.4c6.5-6.7,11.1-16.5,12.9-27.2c3.1-17.7-3.2-36.4-10.4-50.4
						C167.9,134.6,164,128.9,159.3,125.2z"/>
				</g>
				<g>
					<g>
						<path class="st3" d="M85,122.4c-0.3,0.1-0.6,0.3-1,0.4l-0.5,0.2c-0.2,0.1-0.3,0.2-0.5,0.2c-0.3,0.2-0.6,0.3-0.9,0.5l-0.9,0.5
							c-0.3,0.2-0.6,0.4-0.9,0.6c-0.6,0.4-1.1,0.8-1.7,1.2c-0.5,0.5-1.1,0.9-1.6,1.4c-1,0.9-2,2-2.9,3c-1.8,2.1-3.5,4.4-5,6.8
							c-1.5,2.4-2.9,4.9-4.2,7.4c2.9-4.9,5.9-9.6,9.7-13.6c0.9-1,1.9-2,2.9-2.8l0.4-0.3c0.1-0.1,0.3-0.2,0.4-0.3l0.8-0.6
							c0.5-0.4,1.1-0.8,1.6-1.2c0.3-0.2,0.6-0.4,0.8-0.5l0.9-0.5c0.3-0.2,0.6-0.3,0.9-0.4c0.1-0.1,0.3-0.1,0.4-0.2l0.5-0.2
							c0.3-0.1,0.6-0.3,0.9-0.4l0.9-0.3c0.6-0.2,1.3-0.4,1.9-0.6c0,0,0.1,0,0.1,0l-3-0.1L85,122.4z"/>
						<path class="st3" d="M119.8,124.1c-0.7,0.3-1.3,0.8-1.8,1.4l-0.4-0.2c-0.3-0.2-0.6-0.4-0.8-0.5c-0.6-0.4-1.1-0.7-1.7-1.1
							c-0.1-0.1-0.3-0.2-0.4-0.3l-2.8-0.1c0.9,0.5,1.7,0.9,2.6,1.5c0.6,0.3,1.1,0.7,1.7,1c0.3,0.2,0.6,0.4,0.8,0.5l0.9,0.5l0.5,0.3
							l0.3-0.5c0.4-0.6,1-1.1,1.7-1.5c0.7-0.4,1.5-0.7,2.3-1c0.2-0.1,0.4-0.2,0.6-0.3c0,0,0.1,0,0.1-0.1l-2.7-0.1
							C120.4,123.8,120.1,123.9,119.8,124.1z"/>
					</g>
					<g>
						<path class="st3" d="M178.1,156.7c-0.8-2.3-1.6-4.6-2.6-6.8c-0.9-2.2-2-4.4-3.1-6.4c0.9,2.2,1.8,4.4,2.7,6.6
							c0.9,2.2,1.7,4.5,2.4,6.8c1.5,4.6,2.8,9.3,3.7,14.1c-0.3-2.4-0.7-4.9-1.3-7.3C179.5,161.3,178.8,159,178.1,156.7z"/>
					</g>
					<g>
						<path class="st3" d="M182.1,182c0,2-0.1,4-0.3,5.9c-0.2,2-0.5,3.9-0.9,5.9c-0.8,3.7-1.9,7.2-3.3,10.7
							c-0.1,0.2-0.2,0.5-0.3,0.7c-1.6,3.7-3.6,7.2-6.1,10.3c-2.4,3.2-5.3,5.9-8.7,8.1c-1.7,1.1-3.4,2-5.3,2.7
							c-0.5,0.2-0.9,0.3-1.4,0.5c-0.5,0.1-0.9,0.3-1.4,0.4c-0.2,0.1-0.5,0.1-0.7,0.2l-0.7,0.2c-0.5,0.1-0.9,0.2-1.4,0.3
							c-1.9,0.3-3.9,0.5-5.8,0.6c-0.5,0-1,0-1.5,0l-0.1,0l-1.4,0c-1-0.1-2-0.1-2.9-0.3c-1.9-0.2-3.9-0.6-5.8-1.1
							c-1.9-0.5-3.8-1.1-5.6-1.9c-3.5-1.4-6.8-3.3-10-5.4c-0.3,0.3-0.6,0.5-0.9,0.7c-0.2,0.2-0.5,0.3-0.7,0.5l-0.7,0.4
							c-0.9,0.5-1.9,1.1-2.8,1.5c-1.9,1-3.8,1.9-5.8,2.7c-2,0.8-4,1.5-6.1,2c-2.1,0.5-4.1,0.9-6.2,1.1c-1.2,0.1-2.5,0.2-3.7,0.2
							c-0.9,0-1.7,0-2.6,0c-2.1-0.1-4.2-0.3-6.2-0.8c-2.1-0.4-4.1-1-6-1.8c-2-0.8-3.8-1.8-5.6-3.1c-1.7-1.2-3.3-2.6-4.8-4.2
							c-1.5-1.6-2.8-3.2-4-5c-0.8-1.2-1.5-2.4-2.2-3.7c-0.3-0.6-0.6-1.1-0.9-1.7c-0.3-0.6-0.6-1.3-0.9-2c-0.6-1.4-1.2-2.8-1.7-4.3
							c-1.1-3.2-1.8-6.4-2.4-9.7c-0.2-1-0.3-1.9-0.4-2.9c-0.2-2.1-0.3-4.3-0.3-6.4c0-2.1,0.2-4.3,0.5-6.4c-0.2,2.1-0.3,4.2-0.2,6.4
							c0,2.1,0.2,4.3,0.5,6.4c0.1,1,0.3,2,0.5,2.9c0.6,3.2,1.4,6.4,2.6,9.5c0.8,2.3,1.8,4.6,3,6.7c0,0,0.1,0.1,0.1,0.1
							c0.3,0.5,0.6,1,0.8,1.5c0.6,1,1.2,1.9,1.8,2.9c1.2,1.7,2.5,3.4,4,4.8c1.5,1.5,3,2.8,4.7,4c1.7,1.2,3.5,2.1,5.4,2.9
							c1.9,0.7,3.9,1.3,5.9,1.7c2,0.4,4,0.6,6.1,0.7c0.3,0,0.6,0,0.9,0c1.7,0,3.5-0.1,5.2-0.3c2-0.2,4.1-0.6,6.1-1.1
							c2-0.5,4-1.2,5.9-2c1.9-0.8,3.8-1.7,5.7-2.7c0.9-0.5,1.8-1,2.7-1.5l0.7-0.4c0.2-0.1,0.4-0.3,0.6-0.4c0.4-0.3,0.8-0.6,1.1-0.9
							l0.4-0.4l0.5,0.3c3.2,2.2,6.6,4.1,10.2,5.6c1.8,0.8,3.6,1.4,5.4,1.9c1.8,0.5,3.7,0.9,5.6,1.1c0.9,0.1,1.9,0.2,2.8,0.3l1.4,0.1
							c0.5,0,0.9,0,1.4,0c0.4,0,0.7,0,1.1,0c1.5-0.1,3.1-0.2,4.6-0.5c0.5-0.1,0.9-0.2,1.4-0.3l0.7-0.1c0.2-0.1,0.5-0.1,0.7-0.2
							c0.5-0.1,0.9-0.2,1.4-0.4c0.4-0.1,0.9-0.3,1.3-0.4c1.8-0.6,3.5-1.5,5.1-2.5c3.2-2,6.1-4.7,8.5-7.7c2.4-3,4.5-6.4,6.2-10
							c0.4-0.8,0.7-1.6,1-2.4c1.2-2.8,2.1-5.8,2.8-8.8C181.5,189.9,182,186,182.1,182z"/>
					</g>
				</g>
				<g>
					<path class="st6" d="M81,127.6c-3.4,2.7-6,6.4-8.1,10.3c5.3-5.4,11.7-9.3,18.8-10.8c6.2-1.3,12.6-0.6,18.9,0.2
						c0.5-0.7,1.1-2.1,1.2-3c0-0.3,0-0.6,0-0.9L91,122.5C87.4,123.5,84,125.2,81,127.6z"/>
				</g>
				<g>
					<path class="st3" d="M168.4,218.1c-3.2,3.3-6.8,5.8-10.7,7.4c-0.7,0.3-1.4,0.5-2.2,0.7c-5.7,1.6-11.8,1.8-17.7,0.7
						c4.4-2.7,9-4.8,13.6-6.8c2.4,0.3,4.8-0.5,6.8-1.8c2-1.3,3.8-3.1,5.5-4.9c1.6-1.7,3.2-3.4,4.6-5.3c2.8-4.1,4-9.2,5.1-14.2
						C175.1,202.1,172.8,211.1,168.4,218.1z"/>
				</g>
				<g>
					<path class="st3" d="M93.7,228c-5.5,0.4-11-0.3-16.1-2.2c-0.7-0.3-1.4-0.6-2.1-0.9c-11.1-5.3-18.8-18.6-21-33.6
						c1.2,4.5,3.1,8.7,5.6,12.5c4.6,7,11.2,12.4,18.8,15.3c-4.3-8.4-5.7-19.1-4.1-28.5C77.8,204.4,84.5,217.3,93.7,228z"/>
				</g>
				<g>
					<path class="st6" d="M193,142.1c0.5,0.7,0.9,1.5,1.3,2.2c-0.2-0.6-0.3-1.2-0.6-1.9C193.5,142.3,193.2,142.2,193,142.1z"/>
				</g>
				<g>
					<path class="st6" d="M172.8,147.4c-0.7-1.7-1.4-3.3-2.2-4.9c-1.4-2.9-2.9-5.7-4.9-8.3c-0.1-0.1-0.2-0.3-0.3-0.4
						c-2-2.6-4.3-4.7-7-6.6c-1.2-0.8-2.4-1.6-3.6-2.2l-4.5-0.2c5.3,3.9,10.7,8,15.2,13.2c3.7,4.4,6.6,9.4,9.3,14.6
						c-0.4-0.8-0.6-1.7-0.9-2.5C173.5,149.1,173.1,148.2,172.8,147.4z"/>
				</g>
				<g>
					<path class="st3" d="M145.4,124.6l-14-0.5c-5.2,2.5-7.9,8.5-9,14.4c-1.2,6.7-0.7,13.7,1.4,20.3c1.8,6,4.9,11.6,9.1,16.3
						c2.6,3,5.7,5.6,9.3,7.1c3.6,1.5,7.7,1.9,11.2,0.4c5.5-2.3,8.6-8.5,9.9-14.5C166.9,152.1,160.7,130.8,145.4,124.6z"/>
				</g>
				<g>
					<path class="st3" d="M114.8,176c-0.8-7.1-3.2-13.9-7-19.6c-3.5-5.2-8.8-9.8-14.9-9.5c-3,0.2-5.8,1.5-8.3,3.2
						c-16.5,11.7-14.1,38.1-2.9,53c3.8,5.1,9.3,9.4,15.4,9c3.9-0.3,7.6-2.6,10.3-5.7c2.7-3.1,4.5-7,5.7-11
						C115,189.1,115.5,182.4,114.8,176z"/>
				</g>
				<g>
					<path class="st2" d="M149.4,127.1c-0.8-0.9-1.7-1.7-2.6-2.5L98,122.8c-7,6.4-12.9,15.5-16.5,23.1c-3.5,7.4-5.8,15.6-6.7,24.1
						c-0.9,7.9-0.9,16.8,0.7,25.4c2.5,14.3,9.1,27.8,22.2,34.6c3.7,1.9,7.7,3.1,11.9,3.7c4.3,0.7,8.7,0.9,13,0.5
						c12.5-1,25.3-6.6,33.7-16.4c1.3-1.5,2.4-3.1,3.5-4.8c2.2-3.7,3.7-7.8,4.7-12.2c1.7-7.7,1.9-16,1.8-23.3
						c-0.1-7.3-0.9-14.5-2.4-21.3C161.5,145.3,156.7,134.8,149.4,127.1z"/>
				</g>
				<g>
					<path class="st6" d="M90.4,134.7c-1.6,1.3-3,2.9-4.2,4.6c-1.2,1.7-2.1,3.6-2.8,5.6c0,0.1-0.1,0.2-0.1,0.3c-0.6,2-0.9,4-1.1,6.1
						c-0.1,1.1-0.2,2.3-0.2,3.4c0,0.6,0,1.2,0,1.8c0,0.6,0.1,1.2,0,1.7c0.5-3.7,1.1-7.3,2.3-10.8c1.5-4.2,3.9-7.9,6.3-11.5
						c0.7-1,1.2-1.9,1.9-2.9c-0.3,0.2-0.7,0.5-0.9,0.7C91.2,134,90.8,134.3,90.4,134.7z"/>
				</g>
				<g>
					<path class="st3" d="M164.4,200.8c-1,4.3-2.5,8.5-4.7,12.2c-1,1.7-2.2,3.3-3.5,4.8c-8.4,9.8-21.2,15.3-33.7,16.4
						c-4.3,0.4-8.7,0.2-13-0.5c-4.1-0.7-8.1-1.8-11.9-3.7c-13.1-6.7-19.7-20.2-22.2-34.6c1.2,2.4,2.6,4.8,4.1,7.1
						c2.2,3.5,4.7,6.8,7.8,9.4c4.2,3.5,9.3,5.4,14.3,7.4c-2.8-4.4-4.4-9.7-5.2-14.9c0.8,3.9,3.1,6.3,5.9,8.9
						c2.8,2.7,6.1,4.6,9.5,6.3c8.2-6.3,13.6-15.7,15.3-26c0.7,4.8,1.5,9.7,1.2,14.6c-0.3,5-1.8,10-5,13.7
						c12.5-9.6,23.9-21.6,28.4-36.6c0.1,7.2-0.1,14.6-2.1,21.6c-2,7.1-5.8,13.9-11.6,18.1c5.5-3.5,10.8-7.4,15.7-11.7
						c3.6-3.2,7.1-6.6,9.8-10.7C163.8,201.9,164.1,201.4,164.4,200.8z"/>
				</g>
				<g>
					<path class="st6" d="M94.2,131.1c0.8-1.3,1.7-2.2,2.9-3.2c2.4-2,5-3.7,7.8-5l-4.2-0.2C98.1,125.2,95.9,128.1,94.2,131.1z"/>
					<path class="st6" d="M129.8,124l-1.4-0.1c1,0.6,1.9,1.3,2.8,2C130.8,125.2,130.4,124.6,129.8,124z"/>
					<path class="st6" d="M140,124.4l-3.3-0.1c0.8,0.5,1.7,1,2.3,1.5c4.9,4.1,8.6,8.1,11.7,13.8c-2.5-4.8-5.1-9.6-8.8-13.4
						C141.2,125.5,140.6,124.9,140,124.4z"/>
				</g>
				<g>
					<g>
						<path class="st3" d="M74.9,170c0,1.4-0.1,2.7-0.1,4.1c0,1.4-0.1,2.7-0.1,4.1c0,1.4-0.1,2.8-0.1,4.1c0,1.4,0,2.8-0.1,4.2
							c-0.2-1.4-0.3-2.8-0.4-4.2c-0.1-1.4-0.1-2.8-0.1-4.2c0-1.4,0.1-2.8,0.3-4.1C74.4,172.7,74.6,171.3,74.9,170z"/>
					</g>
					<g>
						<path class="st3" d="M97.4,122.9c-1.7,1.7-3.3,3.6-4.8,5.6c1.7-1.8,3.4-3.5,5.3-5.1l0.7-0.6l-1,0
							C97.5,122.8,97.5,122.8,97.4,122.9z"/>
					</g>
					<g>
						<path class="st3" d="M166.4,182.5c0,3.1-0.1,6.2-0.3,9.4c-0.2,3.1-0.7,6.3-1.3,9.4c-0.7,3.1-1.6,6.2-3,9.1
							c-0.2,0.4-0.3,0.7-0.5,1.1l-0.6,1.1c-0.2,0.4-0.4,0.7-0.6,1.1c-0.2,0.3-0.4,0.7-0.6,1c-0.9,1.3-1.8,2.6-2.9,3.8
							c-0.2,0.2-0.4,0.4-0.5,0.6c-1.9,2.2-4.1,4.2-6.4,5.9c-5.1,3.8-10.9,6.5-17,8.2c-3,0.8-6.2,1.4-9.3,1.7
							c-1.6,0.2-3.1,0.2-4.7,0.3c-1.6,0-3.2,0-4.7-0.2c-3.1-0.3-6.3-0.8-9.3-1.6c-3-0.8-6-2-8.7-3.7c-2.7-1.6-5.3-3.6-7.5-5.9
							c-1.9-2-3.6-4.1-5.1-6.5c-0.2-0.4-0.5-0.8-0.7-1.2c-1.6-2.8-3-5.7-4-8.7c-0.3-0.8-0.5-1.5-0.8-2.3c-0.2-0.8-0.5-1.5-0.7-2.3
							c-0.2-0.8-0.4-1.5-0.6-2.3l-0.5-2.3l0.6,2.3c0.2,0.8,0.5,1.5,0.7,2.3c0.2,0.8,0.5,1.5,0.8,2.2c0.3,0.7,0.6,1.5,0.8,2.2
							c1,2.5,2.2,5,3.6,7.3c0.2,0.4,0.4,0.7,0.7,1.1c3.4,5.3,7.9,9.8,13.3,12.8c5.4,3.1,11.5,4.4,17.6,4.9
							c6.1,0.4,12.3-0.2,18.2-1.8c5.9-1.6,11.5-4.2,16.5-7.9c0.1,0,0.1-0.1,0.2-0.1c2.4-1.8,4.6-3.8,6.6-6.1c1-1.2,2-2.4,2.8-3.7
							c0.2-0.3,0.4-0.6,0.6-1c0.2-0.3,0.4-0.7,0.6-1l0.6-1c0.2-0.3,0.3-0.7,0.5-1c1.4-2.8,2.3-5.8,3.1-8.8c0.7-3,1.2-6.1,1.6-9.2
							c0.3-3.1,0.5-6.2,0.6-9.3c0.1-1.5,0.1-3.1,0.1-4.6c0-1.5,0-3.1,0-4.6c0.1,1.5,0.2,3.1,0.2,4.6
							C166.4,179.4,166.4,180.9,166.4,182.5z"/>
					</g>
				</g>
				<g>
					<path class="st7" d="M185.5,200.5c-2.6,3-5.6,5.6-8.8,7.8c0.2-0.4,0.3-0.8,0.5-1.2c0.9-2.3,1.4-4.8,1.2-7.4
						c-0.1-1.2,0-2.5-0.1-3.8c-0.1-1.4-0.3-2.1-0.2-2.4c-1.6,6-3.6,11.6-6.6,15.9c-0.6,0.9-1.3,1.8-2,2.7c-0.5,0.6-1,1.2-1.5,1.7
						c-2.2,2.5-4.6,4.9-7.1,7.2c-1.7,1.6-3.4,3.1-5.5,4.1c-2,1-4.4,1.4-6.5,0.6c-0.6,0.3-1.2,0.6-1.8,1c0,0,0,0,0,0
						c0.9-0.6,1.8-1.2,2.7-1.9c2.3-1.7,4.5-3.7,6.4-5.9c-2.2,1.7-4.6,3.2-7.1,4.5c-1.7,0.9-3.5,1.8-5.4,2.5
						c3.1-2.9,6.4-6.8,8.1-10.6c-0.4,0.6-1.3,1.3-1.7,1.6c-0.6,0.6-1.2,1.1-1.9,1.6c-7.3,5.7-15.3,10-24.6,10.3
						c-2.1,0.1-4.1-0.1-6.2-0.6c-5.4-1.1-10.6-4.1-13.6-8.9c0.4,2.7,1.7,5.1,3.3,7.2c0.3,0.4,1.1,1.7,1.6,1.9
						c-7.1-2-14.1-5.2-19.9-9.9c-2.2-2.1-4.7-4.2-7-7.5c0,0-0.1-0.1-0.1-0.1c-0.6-0.8-1.1-1.7-1.7-2.6c0,5.1,1.3,10.2,3.6,14.6
						c-7-1.6-13.6-5-19-9.9c-0.9-0.8-1.8-1.7-2.7-2.6c-0.5-0.5-1-1-1.4-1.5c0,0-0.1-0.1-0.1-0.1c0-0.1-0.1-0.1-0.1-0.2
						c-0.7-0.7-1.3-1.4-1.9-2.2c-0.4-0.5-0.8-1-1.2-1.5c-2.6-3.6-4.3-7.9-5.4-12.3c-0.3-1.1-0.5-2.2-0.7-3.3
						c-0.2,1.1-0.3,2.2-0.3,3.2c-0.1,2.9,0.4,5.7,1.3,8.4c-4.3-2.5-7.9-6.5-10.4-11.1c-1.8-3.4-3-7.3-3.3-11.1c0,0,0,0.1,0,0.1
						c-0.4,2.3-0.6,3.2-0.4,5.4c0,0.4,0.1,1.3,0.1,1.7c0,0.3,0.2,0.8,0.2,1.1c0.5,2.4,1.1,4.6,2,6.8c0.6,1.5,1.3,2.9,2.1,4.3
						c0.8,1.4,1.7,2.7,2.8,3.8c2.1,2.4,4.6,4.3,7.4,5.7c2.4,1.2,4.9,2,7.4,2.4c0.7,1.3,1.4,2.5,2.2,3.7c1.2,1.8,2.5,3.5,4,5
						c1.5,1.6,3.1,3,4.8,4.2c1.7,1.2,3.6,2.3,5.6,3.1c2,0.7,4,1.3,6,1.8c2.1,0.4,7.8,1.1,9.9,1.2c0.8,0,1.6,0,2.4,0
						c0.3,0.2,0.5,0.3,0.8,0.5c2.7,1.7,5.7,2.9,8.7,3.7c3.1,0.8,6.2,1.3,9.3,1.6c1.6,0.1,3.1,0.2,4.7,0.2c1.6,0,3.1-0.1,4.7-0.3
						c3.1-0.3,6.2-0.9,9.3-1.7c4.1-1.1,8.1-2.8,11.8-4.9c0,0,0,0,0,0c0.4,0,0.9,0,1.3,0c1.9,0,3.9-0.2,5.8-0.6
						c0.5-0.1,1-0.2,1.4-0.3l0.7-0.2c0.2-0.1,0.5-0.1,0.7-0.2c0.5-0.1,0.9-0.2,1.4-0.4c0.5-0.1,0.9-0.3,1.4-0.5
						c1.8-0.7,3.6-1.6,5.3-2.7c3.3-2.1,6.2-4.9,8.7-8.1c0.3-0.4,0.6-0.7,0.9-1.1c0.5-0.6,1-1.1,1.5-1.7c0.3-0.1,0.5-0.2,0.8-0.2
						c1.3-0.4,2.6-1,3.9-1.6c2.5-1.3,4.8-3,6.9-5c0.2-0.2,0.5-0.5,0.7-0.8c1-1.6,2.5-3.3,3.3-5.1c1.1-2.4,1.8-4.7,2.2-7.4
						C189.5,195.5,187.6,198.1,185.5,200.5z"/>
				</g>
			</g>
			<g>
				<g>
					<g>
						<polygon class="st8" points="124.4,180.1 109.8,181 111.3,177.6 116.2,166.8 122.5,177 						"/>
						
							<radialGradient id="SVGID_1_" cx="-198.6638" cy="339.5922" r="21.2469" gradientTransform="matrix(1.0487 4.010000e-02 -4.080000e-02 1.0654 339.7506 -183.3528)" gradientUnits="userSpaceOnUse">
							<stop  offset="1.483340e-02" style="stop-color:#FBF7CC"/>
							<stop  offset="0.6125" style="stop-color:#FBB116"/>
							<stop  offset="0.8232" style="stop-color:#B86928"/>
						</radialGradient>
						<polygon class="st9" points="122.5,177 111.3,177.6 116.2,166.8 						"/>
					</g>
					<g>
						<path class="st8" d="M153.3,138c-0.7,0.5-1.4,1-2.1,1.4c-4.5,3.1-9,6.1-13.6,9.1c-3.3,2.1-6.7,4.3-10,6.4
							c0,0.1,0.1,0.1,0.1,0.2c3.8,5.1,7.7,10.1,11.7,15.2c0.7,0.9,1.3,1.7,2,2.6c4.8-5.4,8.3-11.8,10.5-18.7
							c0.3-0.9,0.6-1.9,0.8-2.9c0.8-3.2,1.3-6.4,1.1-9.7C153.7,140.5,153.7,139.2,153.3,138z"/>
						
							<radialGradient id="SVGID_00000029748882556674443200000015753876388435401118_" cx="-191.926" cy="324.1657" r="38.3672" gradientTransform="matrix(1.0487 4.010000e-02 -4.080000e-02 1.0654 339.7506 -183.3528)" gradientUnits="userSpaceOnUse">
							<stop  offset="0.1908" style="stop-color:#FBF7CC"/>
							<stop  offset="0.6125" style="stop-color:#FBB116"/>
							<stop  offset="0.8232" style="stop-color:#B86928"/>
						</radialGradient>
						<path style="fill:url(#SVGID_00000029748882556674443200000015753876388435401118_);" d="M151.2,139.4
							c-4.5,3.1-9,6.1-13.6,9.1c-3.3,2.1-6.7,4.3-10,6.4c0,0.1,0.1,0.1,0.1,0.2c3.8,5.1,7.7,10.1,11.7,15.2c4.5-5.2,7.9-11.4,10-18
							c0.3-0.9,0.6-1.9,0.8-2.8c0.8-3.2,1.3-6.4,1.1-9.7C151.2,139.7,151.2,139.6,151.2,139.4z"/>
					</g>
					<g>
						<path class="st8" d="M82,148.7c0,1,0,2,0,3c0.2,7.3,1.8,14.5,4.8,21.1c0.9-0.6,1.8-1.2,2.6-1.9c5.2-3.7,10.3-7.5,15.4-11.3
							c0.1,0,0.1-0.1,0.2-0.2c-2.6-3.1-5.2-6.1-7.8-9.2c-3.6-4.2-7.1-8.5-10.5-12.7c-0.5-0.7-1.1-1.3-1.6-2c-0.6,1-1,2.3-1.4,3.4
							C82.5,142.1,82.1,145.4,82,148.7z"/>
						
							<radialGradient id="SVGID_00000119087960006489645650000012318071886200199593_" cx="-210.3239" cy="329.6353" r="45.5577" gradientTransform="matrix(1.0487 4.010000e-02 -4.080000e-02 1.0654 339.7506 -183.3528)" gradientUnits="userSpaceOnUse">
							<stop  offset="0.1292" style="stop-color:#FBF7CC"/>
							<stop  offset="0.6125" style="stop-color:#FBB116"/>
							<stop  offset="0.8232" style="stop-color:#B86928"/>
						</radialGradient>
						<path style="fill:url(#SVGID_00000119087960006489645650000012318071886200199593_);" d="M84.9,147.7c0,1,0,2,0,3
							c0.2,7,1.7,13.9,4.5,20.3c5.2-3.7,10.3-7.5,15.4-11.3c0.1,0,0.1-0.1,0.2-0.2c-2.6-3.1-5.2-6.1-7.8-9.2
							c-3.6-4.2-7.1-8.5-10.5-12.7c0,0.1-0.1,0.3-0.1,0.4C85.4,141.1,85,144.4,84.9,147.7z"/>
					</g>
				</g>
				<path class="st8" d="M169.4,166.8l-1.3,2.5l1.3,2.8c-1.7,2.1-3.7,4.1-5.8,5.8l-1.8-5l-3.2,2.2l1.5,5.5c-1.5,1.1-3.2,2.1-4.8,3
					c-1.3-1.8-2.7-3.7-2.7-3.7l-4.2,2c0,0,0.9,2.3,1.6,4.3c0,0,0,0-0.1,0c-2.6,1.1-5.3,2.1-8,3l-2.5-6.2l-1.8,1.3l0.5,5.9
					c-2.4,0.6-4.8,1.1-7.2,1.5l-3.3-9.3l-3.2-0.1l-1.5,10.3c-2.8,0.2-5.7,0.2-8.5,0.1c-0.2-3.9-0.5-8.2-0.5-8.2l-4.1-1.3l-1.7,9.1
					c-2.6-0.3-5.3-0.7-7.9-1.2c0.2-3.6,0.4-8.2,0.4-8.2l-3.2-0.3l-3.1,7.1c-2.8-0.7-5.6-1.6-8.3-2.7l2.5-9.6l-3.3-1.5l-4.5,8.8
					c-1.9-0.9-3.7-1.9-5.5-3l1.9-8.5l-3.4-0.9l-2.9,6.2c-0.4-0.3-0.9-0.7-1.3-1.1c-1.2-1-2.3-2.1-3.4-3.3l1.7-3.8l-2.1-3.1l-2,3.8
					c-2.2-3-4-6.4-5.2-9.9c1.3,4,2.6,8.1,4.1,12L62,174l-0.2,0.5l-1.3,2.5l1.3,6.7l2-4.5c1,2.4,2.6,3.5,3.8,5.7
					c0.3,0.5,0.5,1,0.8,1.5l-1.4,3.4l-1.6,3.8l3,5.6l3.6-7.1c1.4,1.9,2.8,3.8,4.4,5.6c0.3,0.4,0.7,0.7,1,1.1l-1.1,2.6l-1.8,4.4
					l5.4,5l2.4-7.6c2.4,1.8,4.9,3.4,7.6,4.8c0.3,0.2,0.6,0.3,0.9,0.5l-0.6,1.7l-1.6,5.1l6.8,2.9l1.3-7.3c2.9,1,5.9,1.8,8.9,2.4
					c0.1,0,0.2,0,0.3,0.1l-0.8,4.7l-0.9,5.5l6.4,1.2l0.5-5.6l0.4-5.1c0,0,0.1,0,0.1,0c4.1,0.3,8.2,0.3,12.3-0.2l0.4,8.1l6.7-0.8
					l-0.3-5.5l-0.2-2.9c0.3-0.1,0.5-0.1,0.8-0.2c2.7-0.6,5.3-1.5,7.9-2.5l2.4,7.3l6.5-2.4l-1.4-4.9l-0.9-3.2c0.6-0.3,1.1-0.6,1.7-1
					c2.7-1.6,5.2-3.5,7.5-5.6l1.7,7.5l4.6-4l-1.3-4l-1.1-3.5c0.5-0.6,1-1.2,1.5-1.8c1.3-1.6,2.4-3.3,3.5-5l2,5.1l3.5-2.8l-1.6-3.8
					l-1.3-3c0.5-0.9,0.9-1.8,1.4-2.7c1.1-2.2,2-4.4,2.9-6.7l1.4,3l1.2-2.5l-1.5-3.3c0-0.1,0.1-0.2,0.1-0.3c0.4-1.2,0.9-2.5,1.3-3.7
					c1-3.2,2-6.4,2.9-9.6c-1.3,4-3.2,7.7-5.5,11L169.4,166.8z"/>
				<polygon class="st12" points="91,208.5 93.8,205 91.6,211.7 88.8,215.4 				"/>
				<path class="st12" d="M95.4,205.7l-1.3,7.1c0,0,1.4,5.3,1.5,5.5l1.3-7.3L95.4,205.7z"/>
				<polygon class="st12" points="106.2,213.4 108.7,209.2 107,219.4 104.4,223.6 				"/>
				<polygon class="st12" points="110.8,224.8 109,219.7 109.9,209.4 111.8,214.1 				"/>
				<polygon class="st12" points="124.5,222 124.1,213.9 126.2,209.1 126.6,217.1 				"/>
				<polygon class="st12" points="129,216.8 131.2,221.2 130.7,212.8 128.6,208.7 				"/>
				<polygon class="st12" points="141.8,217.4 139.4,210.2 140.7,204.9 143.1,212.2 				"/>
				<polygon class="st12" points="145.8,211.2 148.3,215 146.1,207 143.6,203.5 				"/>
				<polygon class="st12" points="155.3,200.4 156.5,194.1 158.2,201.6 157,207.9 				"/>
				<polygon class="st12" points="161.5,203.9 159.1,200.9 156.8,193.6 159.1,196.5 				"/>
				
					<radialGradient id="SVGID_00000165918286123045305650000009660583300389830530_" cx="-198.4108" cy="357.1213" r="60.2567" gradientTransform="matrix(1.0487 4.010000e-02 -4.080000e-02 1.0654 339.7506 -183.3528)" gradientUnits="userSpaceOnUse">
					<stop  offset="0.1813" style="stop-color:#FBF7CC"/>
					<stop  offset="0.5962" style="stop-color:#FBB116"/>
					<stop  offset="1" style="stop-color:#B86928"/>
				</radialGradient>
				<path style="fill:url(#SVGID_00000165918286123045305650000009660583300389830530_);" d="M169.4,166.8l-1.3,2.5l1.3,2.8
					c-1.7,2.1-3.7,4.1-5.8,5.8l-1.8-5l-3.2,2.2l1.5,5.5c-1.5,1.1-3.2,2.1-4.8,3c-1.3-1.8-2.7-3.7-2.7-3.7l-4.2,2
					c0,0,0.9,2.3,1.6,4.3c0,0,0,0-0.1,0c-2.6,1.1-5.3,2.1-8,3l-2.5-6.2l-1.8,1.3l0.5,5.9c-2.4,0.6-4.8,1.1-7.2,1.5l-3.3-9.3
					l-3.2-0.1l-1.5,10.3c-2.8,0.2-5.7,0.2-8.5,0.1c-0.2-3.9-0.5-8.2-0.5-8.2l-4.1-1.3l-1.7,9.1c-2.6-0.3-5.3-0.7-7.9-1.2
					c0.2-3.6,0.4-8.2,0.4-8.2l-3.2-0.3l-3.1,7.1c-2.8-0.7-5.6-1.6-8.3-2.7l2.5-9.6l-3.3-1.5l-4.5,8.8c-1.9-0.9-3.7-1.9-5.5-3
					l1.9-8.5l-3.4-0.9l-2.9,6.2c-0.4-0.3-0.9-0.7-1.3-1.1c-1.2-1-2.3-2.1-3.4-3.3l1.7-3.8l-2.1-3.1l-2,3.8c-2.2-3-4-6.4-5.2-9.9
					c1.3,4,2.6,8.1,4.1,12L62,174c0.2,0.4,0.5,0.7,0.7,1.1l0,0l-1.1,2l1.5,3.7l0.7-1.5l2,0.1c1.2,1.4,2.4,2.7,3.8,3.9
					c0.4,0.3,0.8,0.6,1.2,1l-1.8,4.3l-1.1,2.7l0.7,1.3l3.4-6.6l1.9,2.7c1.4,1.9,2.8,3.7,4.3,5.3c0.3,0.3,0.6,0.7,1,1l1,1.1l-2.8,6.9
					l1.9,1.8l2.3-7.3l2.3,1.7c2.2,1.7,4.7,3.3,7.3,4.6c0.3,0.2,0.6,0.3,0.9,0.5l1.7,0.8l-2.2,6.7l2.6,1.1l1.3-7.1l2.3,0.8
					c2.8,1,5.7,1.7,8.6,2.3l0.1,0c0.1,0,0.2,0,0.2,0l2.1,0.4l-1.7,10.2l2,0.4l0.3-3l0.6-7.3l2,0.1c0,0,0.2,0,0.2,0
					c0.9,0.1,1.7,0.1,2.6,0.2c3.1,0.1,6.2,0,9.3-0.3l2.2-0.3l0.4,8l2.5-0.3l-0.5-8.1l1.8-0.4c0.2-0.1,0.5-0.1,0.8-0.2
					c2.6-0.6,5.2-1.4,7.6-2.4l2-0.8l2.5,7.2l2.7-1l-2.1-7.7l1.5-0.8c0.4-0.3,1-0.6,1.6-0.9c2.6-1.6,5-3.4,7.2-5.4l2.6-2.3l1.7,7.6
					l0.9-0.8l-2.3-7.2l0.8-1c0.5-0.6,1-1.1,1.4-1.7c1.2-1.5,2.3-3.1,3.4-4.8l1.3-2l2.7,6.2c0,0,0.8-0.3,0.8-0.4c0,0-1.7-4.9-2.5-7.2
					c2-2.1,3.7-4.4,5.2-6.9l1.2-0.2l1,2.1l0.9-1.5l-1.3-3.5l0,0c0.7-1.3,1.3-2.7,1.9-4c1-3.2,2-6.4,2.9-9.6c-1.3,4-3.2,7.7-5.5,11
					L169.4,166.8z"/>
				<polygon class="st12" points="164.2,189.7 163.7,184.2 166.4,190.4 166.2,194.7 				"/>
				<path class="st12" d="M169.6,191.9c0,0-2.3-1.6-2.5-1.9c-0.1-0.3-2.5-7.2-2.5-7.2l2.1,2.4L169.6,191.9z"/>
				<polygon class="st12" points="172.2,172.8 171.6,172.8 172.9,176.3 173.7,176.2 				"/>
				<polygon class="st12" points="82.5,203.3 81.6,197.4 79.3,204.6 80,210.9 				"/>
				<polygon class="st12" points="77.3,202.9 74.6,205.8 77.5,198.8 80.2,196 				"/>
				<polygon class="st12" points="72,192.2 72,185.8 68.6,192.5 68.4,199.3 				"/>
				<polygon class="st12" points="67.9,191.2 65.4,193.7 68.5,186.4 70.9,184.2 				"/>
				<polygon class="st12" points="60.5,177 61.6,177 62.7,175.1 62.4,173.3 				"/>
				<g>
					
						<image style="overflow:visible;opacity:0.4;" width="56" height="60" xlink:href="30FF443C.png"  transform="matrix(1 0 0 1 104.1489 126.1489)">
					</image>
				</g>
				<g>
					
						<image style="overflow:visible;opacity:0.4;" width="55" height="60" xlink:href="30FF443D.png"  transform="matrix(1 0 0 1 74.1489 131.1489)">
					</image>
				</g>
				<g>
					
						<image style="overflow:visible;opacity:0.4;" width="44" height="49" xlink:href="30FF443B.png"  transform="matrix(1 0 0 1 94.1489 170.1489)">
					</image>
				</g>
				<g>
					
						<image style="overflow:visible;opacity:0.4;" width="39" height="43" xlink:href="30FF4444.png"  transform="matrix(1 0 0 1 131.1489 167.1489)">
					</image>
				</g>
				<g>
					
						<image style="overflow:visible;opacity:0.4;" width="38" height="41" xlink:href="30FF4447.png"  transform="matrix(1 0 0 1 126.1489 129.1489)">
					</image>
				</g>
				<g>
					
						<image style="overflow:visible;opacity:0.4;" width="39" height="40" xlink:href="30FF4445.png"  transform="matrix(1 0 0 1 68.1489 127.1489)">
					</image>
				</g>
				<g>
					
						<image style="overflow:visible;opacity:0.4;" width="40" height="44" xlink:href="30FF444B.png"  transform="matrix(1 0 0 1 60.1489 169.1489)">
					</image>
				</g>
			</g>
		</g>
	</g>
	<path class="st14" d="M215.6,170.6c-0.3-0.2-0.6-0.4-0.9-0.6c-0.3-0.2-0.6-0.4-1-0.6c-3.6-2.2-7.2-4.3-10.8-6.3
		c-1.6-0.8-3.2-1.7-4.8-2.5c-6.4-3.2-13-6-19.8-8.2c-0.8-0.3-1.6-0.5-2.4-0.7c-0.6-0.2-1.1-0.3-1.7-0.5c-0.2,0-0.3-0.1-0.5-0.1
		c-0.2-0.1-0.5-0.1-0.7-0.2c-0.4-0.1-0.9-0.2-1.3-0.3c-0.6-0.2-1.2-0.3-1.8-0.5c-0.1,0-0.2,0-0.3-0.1c-0.1,0-0.2,0-0.3-0.1
		c-1.5-0.3-2.9-0.7-4.4-0.9c-0.4-0.1-0.9-0.2-1.3-0.2c-0.8-0.2-1.6-0.3-2.5-0.4c-2.4-0.4-4.8-0.7-7.2-1c-0.2,0-0.5-0.1-0.7-0.1
		c-0.3,0-0.5-0.1-0.8-0.1c0,0-0.1,0-0.1,0c-0.6-0.1-1.3-0.1-1.9-0.2c-5.1-0.5-10.3-0.7-15.4-0.8c-1.4,0-2.8-0.1-4.2-0.1
		c-0.5,0-1,0-1.4,0c-0.1,0-0.3,0-0.4,0c-0.5,0-1,0-1.4,0c-0.5,0-1,0-1.4,0l0,0c-0.5,0-1,0-1.6,0c-0.2,0-0.4,0-0.6,0
		c-0.5,0-0.9,0-1.4,0c-0.1,0-0.1,0-0.2,0c-0.2,0-0.4,0-0.6,0c-0.2,0-0.5,0-0.7,0c-0.7,0-1.4,0-2.1,0c0,0,0,0,0,0
		c-0.9,0-1.8,0-2.6,0.1c-0.4,0-0.8,0-1.1,0c-0.1,0-0.1,0-0.2,0c-0.2,0-0.5,0-0.7,0c-0.1,0-0.2,0-0.2,0c-0.2,0-0.4,0-0.5,0
		c-7.4,0.3-14.9,0.7-22.3,1.2c-1.5,0.1-2.9,0.2-4.4,0.3c-2.5,0.2-5,0.4-7.5,0.6c-0.2,0-0.4,0-0.7,0.1c-0.3,0-0.5,0-0.8,0.1
		c-0.3,0-0.5,0-0.8,0.1c-1.5,0.1-3,0.2-4.5,0.4c-0.6,0-1.1,0.1-1.7,0.1c-0.3,0-0.7,0.1-1,0.1c-1.4,0.1-2.7,0.2-4.1,0.3
		c-0.2,0-0.3,0-0.5,0c-0.1,0-0.3,0-0.4,0c-0.5,0-1,0.1-1.4,0.1c-1.8,0.1-3.7,0.3-5.5,0.4c-0.5,0-1,0.1-1.5,0.1
		c-5.1,0.4-10.2,0.8-15.3,1.2c-0.6,0-1.1,0.1-1.7,0.1c-4.2,0.3-8.4,0.7-12.6,1c-0.3,0-0.6,0-0.9,0.1c-0.3,0-0.6,0-0.9,0.1
		c3.5-6.8,8.3-12.9,14.1-17.7c9.8-8.2,22.2-12.8,35-13c3.4-0.1,6.4,0.2,9,0.8c0.3-0.1,0.6-0.1,0.9-0.2c3.3-0.8,6.9-1.6,10.4-1.4
		l0.1,0c3.3,0.2,6.5,1.4,9.4,2.6c0.2,0.1,0.5,0.2,0.7,0.3c2.4-1,4.9-1.9,7.6-2.4c0.9-1.5,1.8-3,2.7-4.5c1.5-2.3,3.2-4.5,5-6.6
		c7.1-8.2,16.7-14.4,27.3-16.7l2.2,4.4l0.1,0.1l1.2,2.4c-3.7,1.2-6.8,3.8-9.1,7c-2.3,3.2-3.7,6.8-5,10.5c-0.6,1.8-1.2,3.7-1.7,5.7
		c2.1,0.8,4.2,1.9,6.2,3c4.2-1.2,8.6-2,13-2.1c1,0,2,0,3,0.1c4.5,0.3,8.4,1.6,12.5,3.6c0.2,0,0.4,0.1,0.5,0.1
		c12.6,2,24.3,8.3,32.8,17.8C208.9,153.3,213.3,161.7,215.6,170.6z"/>
	<path class="st15" d="M213.8,77l-7.5,4.3l-10-0.7l-0.8-2l-0.9-2l-0.9-2l-3.1-7.1L190,52.3l-10.7-15.1l-16.1-13.1l-7.8-7.3L130,15
		l-14.4,18.1l-10,17.6l-2.3,4L98,73.7l-7.8,13.7l-4.7,5l-6.8,7.3l-14.5,23.6c3.8-0.9,7.6-0.9,11.5-1c5.2-0.1,10.4-0.4,15.6-0.4
		c17.6-0.1,35.3-0.4,52.7,2.6c9.2,1.6,18.4,3.9,27.2,7.3l7.4,0.5l-10.7-34.2l-0.3-3.2l-0.5-5l-1.7-17.2l-0.4-3.6l-1.1-9.7l-1.1-10.4
		l-0.5-4.5l5.7,0.7l8.1,6l4.8,14l1.1,16.5l9.7,8.9l14-1.9l8.1-6.7l5.9-2.2L213.8,77z"/>
	<path class="st16" d="M167.9,98.2l-0.3-3.2l-0.5-5l-27.5-5.1l-18.5-1.3l-10.4-3.2l13.9-6.5l4.7-1.5l-11.8-2.6l-11.8,0.9l7.3-7.8
		l2-3.9l-5.1-2.6l-4.4-5.7l-2.3,4L98,73.7l-7.8,13.7l-4.7,5l-6.8,7.3L64.4,123c8.5-1.1,17.2-1.4,25.8-1.6
		c16.4-0.4,32.9-1.6,49.3-0.2c12.7,1.1,25.1,5,36.4,11l2.7,0.2L167.9,98.2z"/>
	<g>
		<path class="st17" d="M175.6,122.8l-4.5-14.5l-0.5-1.5l-2.7-8.6l0-0.3l-0.3-2.9c-5-1.1-10-2.1-15-3c-0.9-0.2-1.8-0.3-2.7-0.5
			c-1.5-0.3-3.1-0.5-4.6-0.7c-2.7-0.4-5.5-0.6-8.3-0.7c-4.1-0.1-8.3,0.4-12.4,0.6c-4.1,0.2-8.3,0.2-12.4,0.2c-2.1,0-4.2,0-6.4,0
			c-1.4,0-2.9,0-4.3,0.1c-5.4,0.2-10.7,0.7-16,1.4l-6.8,7.3L64.4,123c4.4-0.8,8.9-1.4,13.4-1.8c5.8-1.3,11.7-1.7,17.6-1.8
			c6.2-0.2,12.5-0.2,18.7,0.2c1.2,0,2.4,0,3.6,0.1c4.5,0.1,9,0.3,13.5,0.7c4.6,0.5,9.2,1.3,13.7,2.4c4.4,1.1,8.8,2.3,13.1,3.5
			c4.3,1.2,8.6,2.2,12.9,3.1c2.5,0.5,5,1.2,7.4,2.1L175.6,122.8z"/>
		<path class="st18" d="M175.6,122.8c-6.8-2.4-13.8-4.5-20.9-6.2c-4.5-1.1-9.1-2-13.6-2.8c-9-1.5-18-2.5-27.1-2.9
			c-3.8-0.2-7.7-0.2-11.5-0.1c-7.5,0.1-15,0.6-22.4,1.6c7.6-2.8,15.3-4.8,23.2-6.1c2.6-0.4,5.3-0.8,8-1c10.8-1.1,21.7-1,32.6-0.3
			c2.4,0.2,4.7,0.4,7.1,0.6c6.7,0.7,13.5,1.6,20.1,2.6l-0.5-1.5c-6.6-1.8-13.4-3.2-20.2-4.2c-2-0.3-4-0.6-6.1-0.8
			c-10.9-1.3-22-1.8-33-1.3c-2.4,0.1-4.8,0.3-7.3,0.5c-5.4,0.5-10.7,1.1-16,2c5.3-2.5,10.9-4.4,16.7-5.7c1.1-0.3,2.3-0.5,3.4-0.7
			c1.2-0.2,2.3-0.4,3.5-0.6c11-1.7,22.3-1.6,33.4-0.8c0.4,0,0.7,0.1,1.1,0.1c1.2,0.1,2.5,0.2,3.7,0.3c5.2,0.5,10.4,1.1,15.5,1.8
			c0.7,0.1,1.6,0.3,2.4,0.5l-0.3-2.9c-5-1.1-10-2.1-15-3c-0.9-0.2-1.8-0.3-2.7-0.5c-1.5-0.3-3.1-0.5-4.6-0.7
			c-2.7-0.4-5.5-0.6-8.3-0.7c-4.1-0.1-8.3,0.4-12.4,0.6c-4.1,0.2-8.3,0.2-12.4,0.2c-2.1,0-4.2,0-6.4,0c-1.4,0-2.9,0-4.3,0.1
			c-5.4,0.2-10.7,0.7-16,1.4l-6.8,7.3L64.4,123c4.4-0.8,8.9-1.4,13.4-1.8c5.8-1.3,11.7-1.7,17.6-1.8c6.2-0.2,12.5-0.2,18.7,0.2
			c1.2,0,2.4,0,3.6,0.1c4.5,0.1,9,0.3,13.5,0.7c4.6,0.5,9.2,1.3,13.7,2.4c4.4,1.1,8.8,2.3,13.1,3.5c4.3,1.2,8.6,2.2,12.9,3.1
			c2.5,0.5,5,1.2,7.4,2.1L175.6,122.8z"/>
	</g>
	<path class="st19" d="M155.2,117.6c-0.2-0.3-0.3-0.6-0.5-0.9c-1.9-3.4-3-7.1-3.8-11c-0.2-1-0.4-2.1-0.5-3.1
		c-0.3-2.3-0.5-4.7-0.5-7.1c0-1.3,0-2.7,0-4c-1.5-0.3-3.1-0.5-4.6-0.7c0,1.5-0.1,2.9-0.2,4.4c-0.2,2.2-0.4,4.4-0.7,6.6
		c-0.2,1.1-0.3,2.2-0.5,3.3c-0.5,2.6-1,5.1-1.7,7.6c-0.1,0.4-0.2,0.7-0.5,1c-0.2,0.1-0.4,0.2-0.6,0.2c-0.1,0-0.2,0-0.3,0
		c-9,0.7-18.2-0.2-26.9-2.9c-1-0.3-1.9-0.6-2.9-0.9c0-1.6,0.1-3.2,0.1-4.7c0.1-1.6,0.1-3.2,0.2-4.9c0.1-1.5,0.2-3.1,0.3-4.6
		c0.1-1,0.1-2,0.2-3c0-0.5,0.2-1.2,0.3-2c-2.1,0-4.2,0-6.4,0c-0.4,2.1-0.7,4.2-1.1,6.3c-0.2,1.2-0.4,2.5-0.6,3.7
		c-0.3,1.8-0.6,3.6-0.9,5.4c-0.3,1.5-0.5,3-0.8,4.5c-0.2,0.9-0.3,1.9-0.5,2.8c-0.3,1.6-0.6,3.3-0.5,5c0,0.2,0,0.4,0,0.6
		c4.2,0,8.4,0.1,12.6,0.3c1.2,0,2.4,0,3.6,0.1c4.5,0.1,9,0.3,13.5,0.7c4.6,0.5,9.2,1.3,13.7,2.4c4.4,1.1,8.8,2.3,13.1,3.5
		c1.3,0.4,2.6,0.7,3.9,1C159.9,124,157.2,121,155.2,117.6z"/>
	<polygon class="st16" points="164,59.6 165,69.3 155.8,65.9 142.9,60.4 156.2,61.1 148.1,53.7 153,52.6 	"/>
	<polygon class="st16" points="219.8,79.9 213.9,82.1 205.8,88.9 191.8,90.8 182.1,81.9 181,65.4 176.2,51.3 168.1,45.4 162.4,44.7 
		162.8,49.2 159.6,45 153.2,39 146.9,24.7 158.5,36.4 165.5,36.1 172.1,42.3 177.1,45.5 182.1,53.6 183.5,62.8 185.5,73.5 
		186.4,78.1 193.8,74.6 194.6,76.7 190.5,80.6 195.5,78.7 196.3,80.6 197.7,80.7 196,85.1 199.1,80.8 203.3,81.1 203.1,84.3 
		206.1,81.3 206.3,81.3 213.8,77 	"/>
	<g>
		<path class="st20" d="M146.7,103.2l-0.3-13.5l-3.9-2.3l-13.9-1L105,87.7l-3.4,17.8l-2.1,11l14.4,2.8l19.2-1l14,1.5L146.7,103.2z
			 M118.1,114.6l-12.7-0.4l1.5-8.2l2.9-15.1l13.7-0.2l18,0.4l-0.5,6.8l0.2,6.3l0.5,12L118.1,114.6z"/>
		<path class="st21" d="M147.1,119.9l-14-1.5l-19.2,1l-14.4-2.8l2.1-11c1.8,0.2,3.6,0.3,5.4,0.4l-1.5,8.2l12.7,0.4l23.6,1.7l-0.5-12
			c1.5-0.3,3.1-0.5,4.6-0.9c0.3-0.1,0.5-0.1,0.8-0.2L147.1,119.9z"/>
	</g>
	<g>
		<path class="st22" d="M244.3,172.2c-0.1,0-0.3,0-0.4,0c-19.2-4.4-26.2-6.5-41-14.1l-14.9-16l7.2,14.2c-3.1-1.6-12.3-6.3-15.5-7.8
			l-12.4-13.1l3.9,10.5c-2.1-0.8-9.5-2.5-11.6-3.3l-5.8-12.1l0-0.1l0,0.1l3.1,12.2c-4.3-1.5-9.8-2.9-14.2-3.9l-3.5-7.8l1.4,9
			c-3.4-0.6-15.5-1.7-23.2-1.8c-13.3-0.2-15.5-0.5-28.6,2l-1.2-11.9l-4.6,12.1c-0.6,0.1-5.3,1.1-5.9,1.1l2.1-15.4L70,142.8
			c-6.6,0.6-14.1-0.2-20.7,0.3l2.1-10.8l-9.2,11.2c-12,1.8-23.5,2.4-35.8,6.3c3-4,6.4-5.5,9-7.2c3.8-2.5,7.8-4.5,11.7-6.8
			c6.6-3.9,12.3-6.7,19.5-9.4c0.4-0.2,0.8-0.3,1.3-0.5c43.8-16.4,101.5-18.7,141.2,8.3c5.8,3.9,11.7,8,17.7,12.2
			C219.3,155.1,232.2,164,244.3,172.2z"/>
		<path class="st16" d="M153.9,130.5l3.1,12.2c-4.3-1.5-9.8-2.9-14.2-3.9l-3.5-7.8l1.4,9c-3.4-0.6-15.5-1.7-23.2-1.8
			c-13.3-0.2-15.5-0.5-28.6,2l-1.2-11.9l-4.6,12.1c-0.6,0.1-5.3,1.1-5.9,1.1l2.1-15.4L70,142.8c-6.6,0.6-14.1-0.2-20.7,0.3l2.1-10.8
			l-9.2,11.2c-12,1.8-23.5,2.4-35.8,6.3c3-4,6.4-5.5,9-7.2c3.8-2.5,7.8-4.5,11.7-6.8c6.6-3.9,12.3-6.7,19.5-9.4
			c0.4-0.2,0.8-0.3,1.3-0.5c35.2-2.8,70.4-2.8,104.9,4.3C153.1,130.3,153.5,130.4,153.9,130.5z"/>
		<path class="st16" d="M244.3,172.2c-0.1,0-0.3,0-0.4,0c-19.2-4.4-26.2-6.5-41-14.1l-14.9-16l7.2,14.2c-3.1-1.6-12.3-6.3-15.5-7.8
			l-12.4-13.1l3.9,10.5c-2.1-0.8-9.5-2.5-11.6-3.3l-5.8-12.1c18,3.8,35.5,9.5,52.8,15.9C219.3,155.1,232.2,164,244.3,172.2z"/>
	</g>
</g>
</svg>
