<?xml version="1.0" encoding="utf-8"?>
<!-- Generator: Adobe Illustrator 26.5.0, SVG Export Plug-In . SVG Version: 6.00 Build 0)  -->
<svg version="1.1" id="Layer_1" xmlns="http://www.w3.org/2000/svg" xmlns:xlink="http://www.w3.org/1999/xlink" x="0px" y="0px"
	 viewBox="0 0 250.1 250.1" style="enable-background:new 0 0 250.1 250.1;" xml:space="preserve">
<path d="M247.2,31.4c0,0-52.2,16.8-53.1,31.8c-1.5,26-24,57.6-39.8,73.5c1.6-5.7,2-12.8-2.3-19.3c0,0-0.3,5.7-13.6,8.2
	c-13.4,2.5-15.7-2.8-15.7-2.8c-1.7,7.6,1.2,14.1,4.7,18.8C107,132.5,74.6,111,63.9,87.3C57.7,73.6,3,76.7,3,76.7s11.3,2.7,15.4,10.8
	c4.7,9.2-0.4,17.2-0.4,17.2s20.4-6.6,31.7,4.7c11.5,11.4,7.2,35.4,7.2,35.4s15.4-11.4,38.2,1.5c23.1,13,19.1,39,19.1,39
	s16.5,2.7,28.4,16.5c8.1,9.5,10.8,17.1,13.1,17c2.3-0.1,1.5-13.1,6.7-24c6-12.5,20-22.2,20-22.2s-13-22.8,3.8-43.2
	c16.7-20.2,35.1-15.1,35.1-15.1s-12.6-20.9-6-35.7c6.5-14.6,27.9-15.7,27.9-15.7s-7.6-5.7-6.6-15.9
	C237.6,37.9,247.2,31.4,247.2,31.4z"/>
</svg>
