<?xml version="1.0" encoding="utf-8"?>
<!-- Generator: Adobe Illustrator 26.5.0, SVG Export Plug-In . SVG Version: 6.00 Build 0)  -->
<svg version="1.1" id="Layer_1" xmlns="http://www.w3.org/2000/svg" xmlns:xlink="http://www.w3.org/1999/xlink" x="0px" y="0px"
	 viewBox="0 0 250.1 250.1" style="enable-background:new 0 0 250.1 250.1;" xml:space="preserve">
<g>
	<g>
		<g>
			<path d="M152.4,91c0,16.8-13.1,30.4-29.2,30.4S94,107.8,94,91c0-16.8,29.2-30.4,29.2-30.4S152.4,74.2,152.4,91z"/>
			<path d="M137.6,182V175h-28.8v6.9c-2.9-3.4-4.7-7.8-4.7-12.6c0-3.3,1.9-6.4,4.5-9.1c5.7-6,14.7-10,14.7-10s9,4,14.7,10
				c2.6,2.7,4.5,5.8,4.5,9.1C142.3,174.2,140.5,178.6,137.6,182z"/>
			<circle cx="123.2" cy="131.6" r="32.1"/>
		</g>
		<path d="M98,118c-2.8-4.2-5.5-8.4-8.3-12.6c-2.7-4.2-5.5-8.4-8.2-12.7L65.4,67.2l-1.1-1.7l0.3-1.7c2-10.1,4.2-20.2,6.3-30.3
			c1.1-5,2.3-10.1,3.6-15.1c1.3-5,2.8-10,4.5-14.9C79.2,8.8,79,14,78.7,19.1c-0.3,5.2-0.8,10.3-1.3,15.5
			c-1.1,10.3-2.3,20.5-3.5,30.8L73.2,62l17.3,24.8c2.9,4.1,5.7,8.3,8.5,12.5c2.8,4.2,5.7,8.3,8.4,12.5L98,118z"/>
		<path d="M99.6,130.1c-4.6-2.1-9.1-4.4-13.6-6.6c-4.5-2.2-9-4.5-13.5-6.8l-13.5-6.8l-13.4-7l-1.9-1l-0.4-1.7l-3.3-14.7
			c-1.1-4.9-2.2-9.8-3.2-14.7c-2-9.8-3.8-19.8-5-29.8c4,9.3,7.4,18.8,10.6,28.3c1.6,4.8,3.1,9.6,4.6,14.4L51.6,98l-2.3-2.7l13.9,6
			l13.8,6.1c4.6,2,9.2,4,13.8,6.2c4.6,2.1,9.2,4.2,13.7,6.3L99.6,130.1z"/>
		<path d="M102.4,140.5c-3.3,1-6.6,1.9-9.9,2.9c-3.3,0.9-6.6,1.9-10,2.7c-6.7,1.7-13.3,3.5-20,5.2l3.1-3.3l-5.3,18.2l-5.5,18.1
			c-1.9,6-3.8,12-5.9,18c-2.1,6-4.2,11.9-6.7,17.8c0.7-6.3,1.7-12.6,2.8-18.8c1.1-6.2,2.3-12.4,3.6-18.6l4-18.5l4.1-18.5l0.5-2.3
			l2.6-0.9c6.5-2.3,13-4.4,19.6-6.6c3.3-1.1,6.5-2.1,9.8-3.2c3.3-1,6.6-2.1,9.9-3.1L102.4,140.5z"/>
		<path d="M110.3,146.9c-2.6,5.5-5.4,10.9-8,16.3l-8.3,16.2l0.3-3.5c1.5,5.8,2.9,11.7,4.3,17.5c1.4,5.8,2.7,11.7,4.1,17.6
			c1.4,5.9,2.6,11.7,3.7,17.7c1.1,5.9,2.1,11.9,2.7,18c-2.7-5.5-4.9-11.1-7.1-16.7c-2.1-5.6-4.1-11.3-6-17
			c-1.9-5.7-3.8-11.4-5.7-17.1c-1.9-5.7-3.7-11.4-5.5-17.2l-0.5-1.7l0.8-1.8l7.4-16.6c2.6-5.5,5.1-11,7.7-16.5L110.3,146.9z"/>
		<path d="M142.7,111.7c2.8-4.2,5.6-8.4,8.4-12.5c2.8-4.2,5.6-8.3,8.5-12.5L177,62l-0.7,3.3c-1.3-10.2-2.4-20.5-3.5-30.8
			c-0.5-5.1-1-10.3-1.3-15.5c-0.3-5.2-0.5-10.4-0.4-15.6c1.7,4.9,3.2,9.9,4.5,14.9c1.3,5,2.5,10,3.6,15.1
			c2.2,10.1,4.3,20.2,6.3,30.3l0.3,1.7l-1.1,1.7l-16.1,25.5c-2.7,4.3-5.5,8.5-8.2,12.7c-2.7,4.2-5.5,8.4-8.3,12.6L142.7,111.7z"/>
		<path d="M145.7,119.8c4.5-2.2,9.1-4.2,13.7-6.3c4.6-2.1,9.2-4.1,13.8-6.2l13.8-6.1l13.9-6l-2.3,2.7l4.5-14.4
			c1.5-4.8,3-9.6,4.6-14.4c3.2-9.5,6.6-19,10.6-28.3c-1.2,10.1-3,20-5,29.8c-1,4.9-2.1,9.8-3.2,14.7l-3.3,14.7l-0.4,1.7l-1.9,1
			l-13.4,7l-13.5,6.8c-4.5,2.3-9,4.6-13.5,6.8c-4.5,2.2-9,4.4-13.6,6.6L145.7,119.8z"/>
		<path d="M151,129.6c3.3,1,6.6,2,9.9,3.1c3.3,1,6.6,2.1,9.8,3.2c6.5,2.2,13.1,4.3,19.6,6.6l2.6,0.9l0.5,2.3l4.1,18.5l4,18.5
			c1.3,6.2,2.5,12.4,3.6,18.6c1.1,6.2,2.1,12.5,2.8,18.8c-2.5-5.9-4.6-11.8-6.7-17.8c-2.1-6-4-12-5.9-18l-5.5-18.1l-5.4-18.2
			l3.1,3.3c-6.7-1.7-13.3-3.5-20-5.2c-3.3-0.9-6.6-1.8-10-2.7c-3.3-0.9-6.6-1.9-9.9-2.9L151,129.6z"/>
		<path d="M150,142c2.7,5.4,5.1,11,7.7,16.5l7.4,16.6l0.8,1.8l-0.5,1.7c-1.8,5.7-3.6,11.4-5.5,17.2c-1.8,5.7-3.8,11.4-5.7,17.1
			c-1.9,5.7-3.9,11.4-6,17c-2.2,5.6-4.4,11.2-7.1,16.7c0.6-6.1,1.6-12,2.7-18c1.1-5.9,2.4-11.8,3.7-17.7c1.4-5.9,2.7-11.7,4.1-17.6
			c1.4-5.8,2.8-11.7,4.3-17.5l0.3,3.5l-8.3-16.2c-2.7-5.4-5.5-10.8-8-16.3L150,142z"/>
	</g>
</g>
</svg>
